NotoSansMyanmarUI-Regular.ufo
<glyph name="question" format="2">
  <advance width="434"/>
  <unicode hex="003F"/>
  <outline>
    <contour>
      <point x="140" y="380" type="line"/>
      <point x="210" y="380" type="line"/>
      <point x="211" y="385" type="line" smooth="yes"/>
      <point x="213" y="395"/>
      <point x="223" y="420"/>
      <point x="290" y="471" type="curve" smooth="yes"/>
      <point x="362" y="525"/>
      <point x="408" y="562"/>
      <point x="408" y="643" type="curve" smooth="yes"/>
      <point x="408" y="740"/>
      <point x="336" y="801"/>
      <point x="209" y="801" type="curve" smooth="yes"/>
      <point x="129" y="801"/>
      <point x="65" y="782"/>
      <point x="12" y="757" type="curve"/>
      <point x="43" y="694" type="line"/>
      <point x="89" y="713"/>
      <point x="137" y="731"/>
      <point x="203" y="731" type="curve" smooth="yes"/>
      <point x="281" y="731"/>
      <point x="324" y="699"/>
      <point x="324" y="641" type="curve" smooth="yes"/>
      <point x="324" y="587"/>
      <point x="302" y="566"/>
      <point x="224" y="507" type="curve" smooth="yes"/>
      <point x="159" y="458"/>
      <point x="145" y="420"/>
      <point x="141" y="388" type="curve" smooth="yes"/>
    </contour>
    <contour>
      <point x="179" y="140" type="curve" smooth="yes"/>
      <point x="243" y="140"/>
      <point x="290" y="175"/>
      <point x="290" y="236" type="curve" smooth="yes"/>
      <point x="290" y="295"/>
      <point x="243" y="331"/>
      <point x="179" y="331" type="curve" smooth="yes"/>
      <point x="114" y="331"/>
      <point x="70" y="296"/>
      <point x="70" y="236" type="curve" smooth="yes"/>
      <point x="70" y="174"/>
      <point x="114" y="140"/>
    </contour>
    <contour>
      <point x="180" y="188" type="curve" smooth="yes"/>
      <point x="145" y="188"/>
      <point x="127" y="205"/>
      <point x="127" y="236" type="curve" smooth="yes"/>
      <point x="127" y="265"/>
      <point x="149" y="283"/>
      <point x="180" y="283" type="curve" smooth="yes"/>
      <point x="211" y="283"/>
      <point x="233" y="265"/>
      <point x="233" y="236" type="curve" smooth="yes"/>
      <point x="233" y="205"/>
      <point x="211" y="188"/>
    </contour>
  </outline>
</glyph>
<glyph name="ka" format="2">
  <advance width="1124"/>
  <unicode hex="1000"/>
  <note>
ka
</note>
  <outline>
    <contour>
      <point x="184" y="140" type="curve"/>
      <point x="235" y="198" type="line"/>
      <point x="178" y="240"/>
      <point x="146" y="299"/>
      <point x="146" y="379" type="curve" smooth="yes"/>
      <point x="146" y="499"/>
      <point x="220" y="573"/>
      <point x="332" y="573" type="curve" smooth="yes"/>
      <point x="443" y="573"/>
      <point x="516" y="498"/>
      <point x="516" y="379" type="curve" smooth="yes"/>
      <point x="516" y="299"/>
      <point x="484" y="240"/>
      <point x="427" y="198" type="curve"/>
      <point x="478" y="140" type="line"/>
      <point x="553" y="187"/>
      <point x="607" y="269"/>
      <point x="607" y="381" type="curve" smooth="yes"/>
      <point x="607" y="525"/>
      <point x="498" y="640"/>
      <point x="332" y="640" type="curve" smooth="yes"/>
      <point x="175" y="640"/>
      <point x="55" y="535"/>
      <point x="55" y="381" type="curve" smooth="yes"/>
      <point x="55" y="278"/>
      <point x="111" y="183"/>
    </contour>
    <contour>
      <point x="811" y="141" type="curve" smooth="yes"/>
      <point x="960" y="141"/>
      <point x="1069" y="238"/>
      <point x="1069" y="390" type="curve" smooth="yes"/>
      <point x="1069" y="532"/>
      <point x="963" y="640"/>
      <point x="792" y="640" type="curve" smooth="yes"/>
      <point x="689" y="640"/>
      <point x="604" y="599"/>
      <point x="552" y="522" type="curve"/>
      <point x="588" y="441" type="line"/>
      <point x="642" y="523"/>
      <point x="701" y="573"/>
      <point x="793" y="573" type="curve" smooth="yes"/>
      <point x="912" y="573"/>
      <point x="978" y="499"/>
      <point x="978" y="388" type="curve" smooth="yes"/>
      <point x="978" y="278"/>
      <point x="906" y="207"/>
      <point x="796" y="207" type="curve" smooth="yes"/>
      <point x="759" y="207"/>
      <point x="728" y="212"/>
      <point x="702" y="224" type="curve"/>
      <point x="670" y="164" type="line"/>
      <point x="708" y="147"/>
      <point x="750" y="141"/>
    </contour>
  </outline>
</glyph>
<glyph name="kha" format="2">
  <advance width="676"/>
  <unicode hex="1001"/>
  <note>
kha
</note>
  <outline>
    <contour>
      <point x="325" y="140" type="curve" smooth="yes"/>
      <point x="508" y="140"/>
      <point x="621" y="251"/>
      <point x="621" y="391" type="curve" smooth="yes"/>
      <point x="621" y="532"/>
      <point x="506" y="640"/>
      <point x="325" y="640" type="curve" smooth="yes"/>
      <point x="199" y="640"/>
      <point x="97" y="581"/>
      <point x="60" y="494" type="curve"/>
      <point x="130" y="461" type="line"/>
      <point x="167" y="536"/>
      <point x="239" y="574"/>
      <point x="327" y="574" type="curve" smooth="yes"/>
      <point x="449" y="574"/>
      <point x="530" y="502"/>
      <point x="530" y="392" type="curve" smooth="yes"/>
      <point x="530" y="301"/>
      <point x="475" y="207"/>
      <point x="328" y="207" type="curve" smooth="yes"/>
      <point x="251" y="207"/>
      <point x="187" y="234"/>
      <point x="147" y="288" type="curve"/>
      <point x="192" y="308"/>
      <point x="246" y="325"/>
      <point x="306" y="325" type="curve" smooth="yes"/>
      <point x="395" y="325"/>
      <point x="457" y="298"/>
      <point x="503" y="261" type="curve"/>
      <point x="532" y="322" type="line"/>
      <point x="478" y="363"/>
      <point x="402" y="391"/>
      <point x="309" y="391" type="curve" smooth="yes"/>
      <point x="222" y="391"/>
      <point x="144" y="368"/>
      <point x="52" y="313" type="curve"/>
      <point x="83" y="207"/>
      <point x="192" y="140"/>
    </contour>
  </outline>
</glyph>
<glyph name="ga" format="2">
  <advance width="668"/>
  <unicode hex="1002"/>
  <note>
ga
</note>
  <outline>
    <contour>
      <point x="184" y="140" type="curve"/>
      <point x="235" y="198" type="line"/>
      <point x="178" y="240"/>
      <point x="146" y="299"/>
      <point x="146" y="379" type="curve" smooth="yes"/>
      <point x="146" y="500"/>
      <point x="224" y="574"/>
      <point x="335" y="574" type="curve" smooth="yes"/>
      <point x="444" y="574"/>
      <point x="522" y="501"/>
      <point x="522" y="379" type="curve" smooth="yes"/>
      <point x="522" y="299"/>
      <point x="490" y="240"/>
      <point x="433" y="198" type="curve"/>
      <point x="484" y="140" type="line"/>
      <point x="558" y="184"/>
      <point x="613" y="282"/>
      <point x="613" y="381" type="curve" smooth="yes"/>
      <point x="613" y="532"/>
      <point x="497" y="640"/>
      <point x="335" y="640" type="curve" smooth="yes"/>
      <point x="175" y="640"/>
      <point x="55" y="534"/>
      <point x="55" y="381" type="curve" smooth="yes"/>
      <point x="55" y="278"/>
      <point x="111" y="183"/>
    </contour>
  </outline>
</glyph>
<glyph name="gha" format="2">
  <advance width="1125"/>
  <unicode hex="1003"/>
  <note>
gha
</note>
  <outline>
    <contour>
      <point x="324" y="140" type="curve" smooth="yes"/>
      <point x="491" y="140"/>
      <point x="606" y="240"/>
      <point x="606" y="399" type="curve" smooth="yes"/>
      <point x="606" y="494"/>
      <point x="558" y="589"/>
      <point x="477" y="640" type="curve"/>
      <point x="426" y="583" type="line"/>
      <point x="483" y="541"/>
      <point x="515" y="482"/>
      <point x="515" y="401" type="curve" smooth="yes"/>
      <point x="515" y="280"/>
      <point x="436" y="207"/>
      <point x="331" y="207" type="curve" smooth="yes"/>
      <point x="215" y="207"/>
      <point x="153" y="259"/>
      <point x="153" y="329" type="curve" smooth="yes"/>
      <point x="153" y="367"/>
      <point x="167" y="398"/>
      <point x="222" y="442" type="curve" smooth="yes"/>
      <point x="277" y="485"/>
      <point x="286" y="506"/>
      <point x="286" y="547" type="curve" smooth="yes"/>
      <point x="286" y="591"/>
      <point x="244" y="640"/>
      <point x="170" y="640" type="curve" smooth="yes"/>
      <point x="119" y="640"/>
      <point x="93" y="625"/>
      <point x="53" y="586" type="curve"/>
      <point x="103" y="541" type="line"/>
      <point x="126" y="565"/>
      <point x="143" y="574"/>
      <point x="163" y="574" type="curve" smooth="yes"/>
      <point x="186" y="574"/>
      <point x="200" y="559"/>
      <point x="200" y="542" type="curve" smooth="yes"/>
      <point x="200" y="518"/>
      <point x="182" y="502"/>
      <point x="150" y="480" type="curve" smooth="yes"/>
      <point x="94" y="442"/>
      <point x="63" y="392"/>
      <point x="63" y="329" type="curve" smooth="yes"/>
      <point x="63" y="217"/>
      <point x="166" y="140"/>
    </contour>
    <contour>
      <point x="793" y="140" type="curve" smooth="yes"/>
      <point x="963" y="140"/>
      <point x="1070" y="249"/>
      <point x="1070" y="390" type="curve" smooth="yes"/>
      <point x="1070" y="542"/>
      <point x="962" y="640"/>
      <point x="811" y="640" type="curve" smooth="yes"/>
      <point x="750" y="640"/>
      <point x="708" y="634"/>
      <point x="670" y="617" type="curve"/>
      <point x="702" y="558" type="line"/>
      <point x="728" y="568"/>
      <point x="759" y="574"/>
      <point x="797" y="574" type="curve" smooth="yes"/>
      <point x="906" y="574"/>
      <point x="979" y="504"/>
      <point x="979" y="392" type="curve" smooth="yes"/>
      <point x="979" y="280"/>
      <point x="908" y="207"/>
      <point x="795" y="207" type="curve" smooth="yes"/>
      <point x="713" y="207"/>
      <point x="635" y="255"/>
      <point x="588" y="341" type="curve"/>
      <point x="551" y="259" type="line"/>
      <point x="602" y="181"/>
      <point x="690" y="140"/>
    </contour>
  </outline>
</glyph>
<glyph name="nga" format="2">
  <advance width="650"/>
  <unicode hex="1004"/>
  <note>
nga
</note>
  <outline>
    <contour>
      <point x="341" y="140" type="curve" smooth="yes"/>
      <point x="460" y="140"/>
      <point x="560" y="199"/>
      <point x="595" y="287" type="curve"/>
      <point x="525" y="319" type="line"/>
      <point x="490" y="244"/>
      <point x="422" y="207"/>
      <point x="339" y="207" type="curve" smooth="yes"/>
      <point x="227" y="207"/>
      <point x="146" y="285"/>
      <point x="146" y="392" type="curve" smooth="yes"/>
      <point x="146" y="500"/>
      <point x="221" y="574"/>
      <point x="339" y="574" type="curve" smooth="yes"/>
      <point x="422" y="574"/>
      <point x="490" y="536"/>
      <point x="525" y="461" type="curve"/>
      <point x="595" y="494" type="line"/>
      <point x="560" y="581"/>
      <point x="460" y="640"/>
      <point x="341" y="640" type="curve" smooth="yes"/>
      <point x="167" y="640"/>
      <point x="55" y="533"/>
      <point x="55" y="391" type="curve" smooth="yes"/>
      <point x="55" y="246"/>
      <point x="162" y="140"/>
    </contour>
  </outline>
</glyph>
<glyph name="ca" format="2">
  <advance width="674"/>
  <unicode hex="1005"/>
  <note>
ca
</note>
  <outline>
    <contour>
      <point x="334" y="140" type="curve" smooth="yes"/>
      <point x="502" y="140"/>
      <point x="619" y="244"/>
      <point x="619" y="390" type="curve" smooth="yes"/>
      <point x="619" y="535"/>
      <point x="507" y="640"/>
      <point x="337" y="640" type="curve" smooth="yes"/>
      <point x="165" y="640"/>
      <point x="55" y="532"/>
      <point x="55" y="390" type="curve" smooth="yes"/>
      <point x="55" y="247"/>
      <point x="164" y="140"/>
    </contour>
    <contour>
      <point x="250" y="208" type="line"/>
      <point x="303" y="253"/>
      <point x="339" y="312"/>
      <point x="339" y="388" type="curve" smooth="yes"/>
      <point x="339" y="468"/>
      <point x="299" y="525"/>
      <point x="246" y="570" type="curve"/>
      <point x="181" y="534" type="line"/>
      <point x="234" y="494"/>
      <point x="258" y="442"/>
      <point x="258" y="388" type="curve" smooth="yes"/>
      <point x="258" y="331"/>
      <point x="233" y="280"/>
      <point x="184" y="244" type="curve"/>
    </contour>
    <contour>
      <point x="334" y="206" type="curve" smooth="yes"/>
      <point x="225" y="206"/>
      <point x="136" y="281"/>
      <point x="136" y="388" type="curve" smooth="yes"/>
      <point x="136" y="496"/>
      <point x="221" y="574"/>
      <point x="335" y="574" type="curve" smooth="yes"/>
      <point x="452" y="574"/>
      <point x="528" y="500"/>
      <point x="528" y="388" type="curve" smooth="yes"/>
      <point x="528" y="280"/>
      <point x="451" y="206"/>
    </contour>
  </outline>
</glyph>
<glyph name="cha" format="2">
  <advance width="1127"/>
  <unicode hex="1006"/>
  <note>
cha
</note>
  <outline>
    <contour>
      <point x="325" y="140" type="curve" smooth="yes"/>
      <point x="508" y="140"/>
      <point x="621" y="251"/>
      <point x="621" y="391" type="curve" smooth="yes"/>
      <point x="621" y="532"/>
      <point x="506" y="640"/>
      <point x="325" y="640" type="curve" smooth="yes"/>
      <point x="199" y="640"/>
      <point x="97" y="581"/>
      <point x="60" y="494" type="curve"/>
      <point x="130" y="461" type="line"/>
      <point x="167" y="536"/>
      <point x="239" y="574"/>
      <point x="327" y="574" type="curve" smooth="yes"/>
      <point x="449" y="574"/>
      <point x="530" y="502"/>
      <point x="530" y="392" type="curve" smooth="yes"/>
      <point x="530" y="301"/>
      <point x="475" y="207"/>
      <point x="328" y="207" type="curve" smooth="yes"/>
      <point x="251" y="207"/>
      <point x="187" y="234"/>
      <point x="147" y="288" type="curve"/>
      <point x="192" y="308"/>
      <point x="246" y="325"/>
      <point x="306" y="325" type="curve" smooth="yes"/>
      <point x="395" y="325"/>
      <point x="457" y="298"/>
      <point x="503" y="261" type="curve"/>
      <point x="532" y="322" type="line"/>
      <point x="478" y="363"/>
      <point x="402" y="391"/>
      <point x="309" y="391" type="curve" smooth="yes"/>
      <point x="222" y="391"/>
      <point x="144" y="368"/>
      <point x="52" y="313" type="curve"/>
      <point x="83" y="207"/>
      <point x="192" y="140"/>
    </contour>
    <contour>
      <point x="785" y="140" type="curve" smooth="yes"/>
      <point x="955" y="140"/>
      <point x="1072" y="243"/>
      <point x="1072" y="390" type="curve" smooth="yes"/>
      <point x="1072" y="536"/>
      <point x="959" y="640"/>
      <point x="788" y="640" type="curve" smooth="yes"/>
      <point x="670" y="640"/>
      <point x="597" y="605"/>
      <point x="532" y="534" type="curve"/>
      <point x="572" y="460" type="line"/>
      <point x="624" y="548"/>
      <point x="697" y="574"/>
      <point x="790" y="574" type="curve" smooth="yes"/>
      <point x="910" y="574"/>
      <point x="981" y="503"/>
      <point x="981" y="388" type="curve" smooth="yes"/>
      <point x="981" y="280"/>
      <point x="905" y="207"/>
      <point x="784" y="207" type="curve" smooth="yes"/>
      <point x="684" y="207"/>
      <point x="606" y="256"/>
      <point x="577" y="321" type="curve"/>
      <point x="537" y="248" type="line"/>
      <point x="582" y="183"/>
      <point x="666" y="140"/>
    </contour>
  </outline>
</glyph>
<glyph name="ja" format="2">
  <advance width="684"/>
  <unicode hex="1007"/>
  <note>
ja
</note>
  <outline>
    <contour>
      <point x="336" y="140" type="curve" smooth="yes"/>
      <point x="438" y="140"/>
      <point x="518" y="167"/>
      <point x="565" y="202" type="curve"/>
      <point x="506" y="256" type="line"/>
      <point x="466" y="223"/>
      <point x="411" y="207"/>
      <point x="341" y="207" type="curve" smooth="yes"/>
      <point x="204" y="207"/>
      <point x="146" y="282"/>
      <point x="146" y="398" type="curve" smooth="yes"/>
      <point x="146" y="503"/>
      <point x="222" y="574"/>
      <point x="335" y="574" type="curve" smooth="yes"/>
      <point x="358" y="574"/>
      <point x="383" y="571"/>
      <point x="406" y="567" type="curve"/>
      <point x="401" y="582" type="line"/>
      <point x="363" y="568"/>
      <point x="333" y="535"/>
      <point x="333" y="489" type="curve" smooth="yes"/>
      <point x="333" y="428"/>
      <point x="388" y="382"/>
      <point x="460" y="382" type="curve" smooth="yes"/>
      <point x="493" y="382"/>
      <point x="522" y="389"/>
      <point x="541" y="406" type="curve"/>
      <point x="517" y="401" type="line"/>
      <point x="517" y="339"/>
      <point x="559" y="298"/>
      <point x="645" y="298" type="curve" smooth="yes"/>
      <point x="663" y="298" type="line"/>
      <point x="663" y="363" type="line"/>
      <point x="609" y="363"/>
      <point x="588" y="372"/>
      <point x="588" y="411" type="curve" smooth="yes"/>
      <point x="588" y="421"/>
      <point x="592" y="462"/>
      <point x="592" y="482" type="curve" smooth="yes"/>
      <point x="592" y="590"/>
      <point x="481" y="640"/>
      <point x="336" y="640" type="curve" smooth="yes"/>
      <point x="169" y="640"/>
      <point x="55" y="537"/>
      <point x="55" y="391" type="curve" smooth="yes"/>
      <point x="55" y="259"/>
      <point x="145" y="140"/>
    </contour>
    <contour>
      <point x="459" y="441" type="curve" smooth="yes"/>
      <point x="429" y="441"/>
      <point x="404" y="462"/>
      <point x="404" y="490" type="curve" smooth="yes"/>
      <point x="404" y="518"/>
      <point x="429" y="540"/>
      <point x="459" y="540" type="curve" smooth="yes"/>
      <point x="490" y="540"/>
      <point x="515" y="518"/>
      <point x="515" y="490" type="curve" smooth="yes"/>
      <point x="515" y="462"/>
      <point x="490" y="441"/>
    </contour>
  </outline>
</glyph>
<glyph name="jha" format="2">
  <advance width="869"/>
  <unicode hex="1008"/>
  <note>
jha
</note>
  <outline>
    <contour>
      <point x="589" y="-271" type="curve" smooth="yes"/>
      <point x="714" y="-271"/>
      <point x="777" y="-194"/>
      <point x="777" y="-39" type="curve" smooth="yes"/>
      <point x="777" y="631" type="line"/>
      <point x="688" y="631" type="line"/>
      <point x="688" y="-46" type="line" smooth="yes"/>
      <point x="688" y="-149"/>
      <point x="658" y="-206"/>
      <point x="590" y="-206" type="curve" smooth="yes"/>
      <point x="522" y="-206"/>
      <point x="491" y="-149"/>
      <point x="491" y="-46" type="curve" smooth="yes"/>
      <point x="491" y="200" type="line"/>
      <point x="402" y="163" type="line"/>
      <point x="402" y="-38" type="line" smooth="yes"/>
      <point x="402" y="-193"/>
      <point x="464" y="-271"/>
    </contour>
    <contour>
      <point x="324" y="140" type="curve" smooth="yes"/>
      <point x="489" y="140"/>
      <point x="597" y="244"/>
      <point x="597" y="390" type="curve" smooth="yes"/>
      <point x="597" y="535"/>
      <point x="494" y="640"/>
      <point x="327" y="640" type="curve" smooth="yes"/>
      <point x="165" y="640"/>
      <point x="55" y="532"/>
      <point x="55" y="390" type="curve" smooth="yes"/>
      <point x="55" y="247"/>
      <point x="164" y="140"/>
    </contour>
    <contour>
      <point x="324" y="206" type="curve" smooth="yes"/>
      <point x="225" y="206"/>
      <point x="136" y="281"/>
      <point x="136" y="388" type="curve" smooth="yes"/>
      <point x="136" y="496"/>
      <point x="221" y="574"/>
      <point x="325" y="574" type="curve" smooth="yes"/>
      <point x="439" y="574"/>
      <point x="506" y="500"/>
      <point x="506" y="388" type="curve" smooth="yes"/>
      <point x="506" y="280"/>
      <point x="438" y="206"/>
    </contour>
    <contour>
      <point x="242" y="208" type="line"/>
      <point x="295" y="253"/>
      <point x="331" y="312"/>
      <point x="331" y="388" type="curve" smooth="yes"/>
      <point x="331" y="468"/>
      <point x="291" y="525"/>
      <point x="238" y="570" type="curve"/>
      <point x="173" y="534" type="line"/>
      <point x="226" y="494"/>
      <point x="250" y="442"/>
      <point x="250" y="388" type="curve" smooth="yes"/>
      <point x="250" y="331"/>
      <point x="225" y="280"/>
      <point x="176" y="244" type="curve"/>
    </contour>
  </outline>
</glyph>
<glyph name="nya" format="2">
  <advance width="661"/>
  <unicode hex="1009"/>
  <note>
nya
</note>
  <outline>
    <contour>
      <point x="296" y="-271" type="curve" smooth="yes"/>
      <point x="847" y="-271" type="line" smooth="yes"/>
      <point x="982" y="-271"/>
      <point x="1052" y="-208"/>
      <point x="1052" y="-81" type="curve" smooth="yes"/>
      <point x="1052" y="-79" type="line"/>
      <point x="963" y="-79" type="line"/>
      <point x="963" y="-93" type="line" smooth="yes"/>
      <point x="963" y="-165"/>
      <point x="929" y="-206"/>
      <point x="851" y="-206" type="curve" smooth="yes"/>
      <point x="292" y="-206" type="line" smooth="yes"/>
      <point x="214" y="-206"/>
      <point x="180" y="-165"/>
      <point x="180" y="-93" type="curve" smooth="yes"/>
      <point x="180" y="196" type="line"/>
      <point x="91" y="287" type="line"/>
      <point x="91" y="-79" type="line" smooth="yes"/>
      <point x="91" y="-207"/>
      <point x="159" y="-271"/>
    </contour>
    <contour>
      <point x="333" y="140" type="curve" smooth="yes"/>
      <point x="507" y="140"/>
      <point x="604" y="246"/>
      <point x="604" y="391" type="curve" smooth="yes"/>
      <point x="604" y="533"/>
      <point x="503" y="640"/>
      <point x="333" y="640" type="curve" smooth="yes"/>
      <point x="226" y="640"/>
      <point x="126" y="581"/>
      <point x="91" y="494" type="curve"/>
      <point x="161" y="461" type="line"/>
      <point x="196" y="536"/>
      <point x="264" y="574"/>
      <point x="335" y="574" type="curve" smooth="yes"/>
      <point x="448" y="574"/>
      <point x="513" y="500"/>
      <point x="513" y="392" type="curve" smooth="yes"/>
      <point x="513" y="285"/>
      <point x="443" y="207"/>
      <point x="335" y="207" type="curve" smooth="yes"/>
      <point x="264" y="207"/>
      <point x="196" y="244"/>
      <point x="161" y="319" type="curve"/>
      <point x="91" y="287" type="line"/>
      <point x="126" y="199"/>
      <point x="226" y="140"/>
    </contour>
  </outline>
</glyph>
<glyph name="nnya" format="2">
  <advance width="1109"/>
  <unicode hex="100A"/>
  <note>
nnya
</note>
  <outline>
    <contour>
      <point x="296" y="-271" type="curve" smooth="yes"/>
      <point x="847" y="-271" type="line" smooth="yes"/>
      <point x="982" y="-271"/>
      <point x="1052" y="-208"/>
      <point x="1052" y="-81" type="curve" smooth="yes"/>
      <point x="1052" y="-79" type="line"/>
      <point x="963" y="-79" type="line"/>
      <point x="963" y="-93" type="line" smooth="yes"/>
      <point x="963" y="-165"/>
      <point x="929" y="-206"/>
      <point x="851" y="-206" type="curve" smooth="yes"/>
      <point x="292" y="-206" type="line" smooth="yes"/>
      <point x="214" y="-206"/>
      <point x="180" y="-165"/>
      <point x="180" y="-93" type="curve" smooth="yes"/>
      <point x="180" y="196" type="line"/>
      <point x="91" y="287" type="line"/>
      <point x="91" y="-79" type="line" smooth="yes"/>
      <point x="91" y="-207"/>
      <point x="159" y="-271"/>
    </contour>
    <contour>
      <point x="333" y="140" type="curve" smooth="yes"/>
      <point x="507" y="140"/>
      <point x="604" y="246"/>
      <point x="604" y="391" type="curve" smooth="yes"/>
      <point x="604" y="533"/>
      <point x="503" y="640"/>
      <point x="333" y="640" type="curve" smooth="yes"/>
      <point x="226" y="640"/>
      <point x="126" y="581"/>
      <point x="91" y="494" type="curve"/>
      <point x="161" y="461" type="line"/>
      <point x="196" y="536"/>
      <point x="264" y="574"/>
      <point x="335" y="574" type="curve" smooth="yes"/>
      <point x="448" y="574"/>
      <point x="513" y="500"/>
      <point x="513" y="392" type="curve" smooth="yes"/>
      <point x="513" y="285"/>
      <point x="443" y="207"/>
      <point x="335" y="207" type="curve" smooth="yes"/>
      <point x="264" y="207"/>
      <point x="196" y="244"/>
      <point x="161" y="319" type="curve"/>
      <point x="91" y="287" type="line"/>
      <point x="126" y="199"/>
      <point x="226" y="140"/>
    </contour>
    <contour>
      <point x="783" y="140" type="curve" smooth="yes"/>
      <point x="946" y="140"/>
      <point x="1054" y="246"/>
      <point x="1054" y="390" type="curve" smooth="yes"/>
      <point x="1054" y="543"/>
      <point x="948" y="640"/>
      <point x="800" y="640" type="curve" smooth="yes"/>
      <point x="740" y="640"/>
      <point x="699" y="634"/>
      <point x="662" y="617" type="curve"/>
      <point x="694" y="558" type="line"/>
      <point x="719" y="568"/>
      <point x="750" y="574"/>
      <point x="786" y="574" type="curve" smooth="yes"/>
      <point x="892" y="574"/>
      <point x="963" y="504"/>
      <point x="963" y="392" type="curve" smooth="yes"/>
      <point x="963" y="281"/>
      <point x="894" y="207"/>
      <point x="784" y="207" type="curve" smooth="yes"/>
      <point x="687" y="207"/>
      <point x="628" y="253"/>
      <point x="587" y="342" type="curve"/>
      <point x="549" y="260" type="line"/>
      <point x="599" y="180"/>
      <point x="685" y="140"/>
    </contour>
  </outline>
</glyph>
<glyph name="tta" format="2">
  <advance width="666"/>
  <unicode hex="100B"/>
  <note>
tta
</note>
  <outline>
    <contour>
      <point x="487" y="-271" type="line"/>
      <point x="700" y="-271" type="line"/>
      <point x="700" y="-210" type="line"/>
      <point x="575" y="-210" type="line"/>
      <point x="575" y="-14" type="line"/>
      <point x="499" y="-50"/>
      <point x="418" y="-71"/>
      <point x="332" y="-71" type="curve" smooth="yes"/>
      <point x="264" y="-71"/>
      <point x="216" y="-63"/>
      <point x="169" y="-47" type="curve"/>
      <point x="169" y="30" type="line"/>
      <point x="220" y="12"/>
      <point x="275" y="1"/>
      <point x="332" y="1" type="curve" smooth="yes"/>
      <point x="421" y="1"/>
      <point x="509" y="31"/>
      <point x="575" y="74" type="curve"/>
      <point x="575" y="287" type="line"/>
      <point x="487" y="197" type="line"/>
      <point x="487" y="105" type="line"/>
      <point x="440" y="81"/>
      <point x="388" y="68"/>
      <point x="332" y="68" type="curve" smooth="yes"/>
      <point x="246" y="68"/>
      <point x="157" y="100"/>
      <point x="91" y="149" type="curve"/>
      <point x="91" y="-90" type="line"/>
      <point x="166" y="-121"/>
      <point x="246" y="-137"/>
      <point x="332" y="-137" type="curve" smooth="yes"/>
      <point x="385" y="-137"/>
      <point x="437" y="-131"/>
      <point x="487" y="-117" type="curve"/>
    </contour>
    <contour>
      <point x="333" y="140" type="curve" smooth="yes"/>
      <point x="451" y="140"/>
      <point x="501" y="184"/>
      <point x="575" y="287" type="curve"/>
      <point x="505" y="319" type="line"/>
      <point x="472" y="244"/>
      <point x="410" y="207"/>
      <point x="332" y="207" type="curve" smooth="yes"/>
      <point x="222" y="207"/>
      <point x="153" y="278"/>
      <point x="153" y="392" type="curve" smooth="yes"/>
      <point x="153" y="501"/>
      <point x="224" y="574"/>
      <point x="332" y="574" type="curve" smooth="yes"/>
      <point x="410" y="574"/>
      <point x="472" y="536"/>
      <point x="505" y="461" type="curve"/>
      <point x="575" y="494" type="line"/>
      <point x="539" y="584"/>
      <point x="446" y="640"/>
      <point x="333" y="640" type="curve" smooth="yes"/>
      <point x="168" y="640"/>
      <point x="62" y="537"/>
      <point x="62" y="391" type="curve" smooth="yes"/>
      <point x="62" y="249"/>
      <point x="168" y="140"/>
    </contour>
  </outline>
</glyph>
<glyph name="ttha" format="2">
  <advance width="659"/>
  <unicode hex="100C"/>
  <note>
ttha
</note>
  <outline>
    <contour>
      <point x="256" y="-271" type="curve" smooth="yes"/>
      <point x="363" y="-271" type="line" smooth="yes"/>
      <point x="498" y="-271"/>
      <point x="568" y="-208"/>
      <point x="568" y="-83" type="curve" smooth="yes"/>
      <point x="568" y="287" type="line"/>
      <point x="480" y="197" type="line"/>
      <point x="480" y="-93" type="line" smooth="yes"/>
      <point x="480" y="-165"/>
      <point x="445" y="-206"/>
      <point x="368" y="-206" type="curve" smooth="yes"/>
      <point x="254" y="-206" type="line" smooth="yes"/>
      <point x="190" y="-206"/>
      <point x="145" y="-181"/>
      <point x="145" y="-135" type="curve" smooth="yes"/>
      <point x="145" y="-90"/>
      <point x="180" y="-71"/>
      <point x="212" y="-71" type="curve" smooth="yes"/>
      <point x="251" y="-71"/>
      <point x="273" y="-86"/>
      <point x="296" y="-106" type="curve"/>
      <point x="351" y="-59" type="line"/>
      <point x="310" y="-25"/>
      <point x="272" y="-4"/>
      <point x="207" y="-4" type="curve" smooth="yes"/>
      <point x="120" y="-4"/>
      <point x="55" y="-57"/>
      <point x="55" y="-135" type="curve" smooth="yes"/>
      <point x="55" y="-225"/>
      <point x="127" y="-271"/>
    </contour>
    <contour>
      <point x="326" y="140" type="curve" smooth="yes"/>
      <point x="444" y="140"/>
      <point x="494" y="184"/>
      <point x="568" y="287" type="curve"/>
      <point x="498" y="319" type="line"/>
      <point x="465" y="244"/>
      <point x="403" y="207"/>
      <point x="325" y="207" type="curve" smooth="yes"/>
      <point x="215" y="207"/>
      <point x="146" y="278"/>
      <point x="146" y="392" type="curve" smooth="yes"/>
      <point x="146" y="501"/>
      <point x="217" y="574"/>
      <point x="325" y="574" type="curve" smooth="yes"/>
      <point x="403" y="574"/>
      <point x="465" y="536"/>
      <point x="498" y="461" type="curve"/>
      <point x="568" y="494" type="line"/>
      <point x="532" y="584"/>
      <point x="439" y="640"/>
      <point x="326" y="640" type="curve" smooth="yes"/>
      <point x="161" y="640"/>
      <point x="55" y="537"/>
      <point x="55" y="391" type="curve" smooth="yes"/>
      <point x="55" y="249"/>
      <point x="161" y="140"/>
    </contour>
  </outline>
</glyph>
<glyph name="dda" format="2">
  <advance width="666"/>
  <unicode hex="100D"/>
  <note>
dda
</note>
  <outline>
    <contour>
      <point x="488" y="-271" type="line"/>
      <point x="701" y="-271" type="line"/>
      <point x="701" y="-210" type="line"/>
      <point x="576" y="-210" type="line"/>
      <point x="576" y="149" type="line"/>
      <point x="510" y="100"/>
      <point x="421" y="68"/>
      <point x="335" y="68" type="curve" smooth="yes"/>
      <point x="279" y="68"/>
      <point x="227" y="81"/>
      <point x="180" y="105" type="curve"/>
      <point x="180" y="197" type="line"/>
      <point x="92" y="287" type="line"/>
      <point x="92" y="74" type="line"/>
      <point x="158" y="31"/>
      <point x="246" y="1"/>
      <point x="335" y="1" type="curve" smooth="yes"/>
      <point x="389" y="1"/>
      <point x="440" y="10"/>
      <point x="488" y="27" type="curve"/>
    </contour>
    <contour>
      <point x="334" y="140" type="curve" smooth="yes"/>
      <point x="499" y="140"/>
      <point x="605" y="249"/>
      <point x="605" y="391" type="curve" smooth="yes"/>
      <point x="605" y="537"/>
      <point x="499" y="640"/>
      <point x="334" y="640" type="curve" smooth="yes"/>
      <point x="221" y="640"/>
      <point x="128" y="584"/>
      <point x="92" y="494" type="curve"/>
      <point x="162" y="461" type="line"/>
      <point x="195" y="536"/>
      <point x="257" y="574"/>
      <point x="335" y="574" type="curve" smooth="yes"/>
      <point x="443" y="574"/>
      <point x="514" y="501"/>
      <point x="514" y="392" type="curve" smooth="yes"/>
      <point x="514" y="278"/>
      <point x="445" y="207"/>
      <point x="335" y="207" type="curve" smooth="yes"/>
      <point x="257" y="207"/>
      <point x="195" y="244"/>
      <point x="162" y="319" type="curve"/>
      <point x="92" y="287" type="line"/>
      <point x="166" y="184"/>
      <point x="216" y="140"/>
    </contour>
  </outline>
</glyph>
<glyph name="ddha" format="2">
  <advance width="677"/>
  <unicode hex="100E"/>
  <note>
ddha
</note>
  <outline>
    <contour>
      <point x="324" y="140" type="curve" smooth="yes"/>
      <point x="511" y="140"/>
      <point x="622" y="252"/>
      <point x="622" y="399" type="curve" smooth="yes"/>
      <point x="622" y="494"/>
      <point x="571" y="589"/>
      <point x="485" y="640" type="curve"/>
      <point x="434" y="583" type="line"/>
      <point x="496" y="541"/>
      <point x="531" y="482"/>
      <point x="531" y="401" type="curve" smooth="yes"/>
      <point x="531" y="280"/>
      <point x="452" y="207"/>
      <point x="331" y="207" type="curve" smooth="yes"/>
      <point x="215" y="207"/>
      <point x="153" y="259"/>
      <point x="153" y="329" type="curve" smooth="yes"/>
      <point x="153" y="367"/>
      <point x="167" y="398"/>
      <point x="222" y="442" type="curve" smooth="yes"/>
      <point x="277" y="485"/>
      <point x="286" y="506"/>
      <point x="286" y="547" type="curve" smooth="yes"/>
      <point x="286" y="591"/>
      <point x="244" y="640"/>
      <point x="170" y="640" type="curve" smooth="yes"/>
      <point x="119" y="640"/>
      <point x="93" y="625"/>
      <point x="53" y="586" type="curve"/>
      <point x="103" y="541" type="line"/>
      <point x="126" y="565"/>
      <point x="143" y="574"/>
      <point x="163" y="574" type="curve" smooth="yes"/>
      <point x="186" y="574"/>
      <point x="200" y="559"/>
      <point x="200" y="542" type="curve" smooth="yes"/>
      <point x="200" y="518"/>
      <point x="182" y="502"/>
      <point x="150" y="480" type="curve" smooth="yes"/>
      <point x="94" y="442"/>
      <point x="63" y="392"/>
      <point x="63" y="329" type="curve" smooth="yes"/>
      <point x="63" y="217"/>
      <point x="166" y="140"/>
    </contour>
  </outline>
</glyph>
<glyph name="nna" format="2">
  <advance width="1255"/>
  <unicode hex="100F"/>
  <note>
nna
</note>
  <outline>
    <contour>
      <point x="627" y="140" type="curve" smooth="yes"/>
      <point x="720" y="140"/>
      <point x="784" y="179"/>
      <point x="784" y="258" type="curve" smooth="yes"/>
      <point x="784" y="307"/>
      <point x="764" y="332"/>
      <point x="764" y="386" type="curve" smooth="yes"/>
      <point x="764" y="503"/>
      <point x="833" y="575"/>
      <point x="938" y="575" type="curve" smooth="yes"/>
      <point x="1040" y="575"/>
      <point x="1108" y="501"/>
      <point x="1108" y="388" type="curve" smooth="yes"/>
      <point x="1108" y="275"/>
      <point x="1033" y="207"/>
      <point x="931" y="207" type="curve" smooth="yes"/>
      <point x="911" y="207"/>
      <point x="894" y="207"/>
      <point x="875" y="212" type="curve"/>
      <point x="855" y="149" type="line"/>
      <point x="882" y="142"/>
      <point x="906" y="140"/>
      <point x="945" y="140" type="curve" smooth="yes"/>
      <point x="1089" y="140"/>
      <point x="1200" y="247"/>
      <point x="1200" y="391" type="curve" smooth="yes"/>
      <point x="1200" y="532"/>
      <point x="1098" y="640"/>
      <point x="934" y="640" type="curve" smooth="yes"/>
      <point x="768" y="640"/>
      <point x="673" y="532"/>
      <point x="673" y="396" type="curve" smooth="yes"/>
      <point x="673" y="329"/>
      <point x="693" y="317"/>
      <point x="693" y="265" type="curve" smooth="yes"/>
      <point x="693" y="234"/>
      <point x="671" y="208"/>
      <point x="628" y="208" type="curve" smooth="yes"/>
      <point x="584" y="208"/>
      <point x="562" y="234"/>
      <point x="562" y="265" type="curve" smooth="yes"/>
      <point x="562" y="320"/>
      <point x="583" y="325"/>
      <point x="583" y="397" type="curve" smooth="yes"/>
      <point x="583" y="534"/>
      <point x="486" y="640"/>
      <point x="321" y="640" type="curve" smooth="yes"/>
      <point x="159" y="640"/>
      <point x="55" y="535"/>
      <point x="55" y="391" type="curve" smooth="yes"/>
      <point x="55" y="245"/>
      <point x="167" y="140"/>
      <point x="310" y="140" type="curve" smooth="yes"/>
      <point x="347" y="140"/>
      <point x="372" y="142"/>
      <point x="399" y="149" type="curve"/>
      <point x="378" y="212" type="line"/>
      <point x="361" y="207"/>
      <point x="343" y="207"/>
      <point x="323" y="207" type="curve" smooth="yes"/>
      <point x="221" y="207"/>
      <point x="146" y="278"/>
      <point x="146" y="388" type="curve" smooth="yes"/>
      <point x="146" y="502"/>
      <point x="217" y="575"/>
      <point x="320" y="575" type="curve" smooth="yes"/>
      <point x="422" y="575"/>
      <point x="491" y="503"/>
      <point x="491" y="386" type="curve" smooth="yes"/>
      <point x="491" y="332"/>
      <point x="471" y="307"/>
      <point x="471" y="258" type="curve" smooth="yes"/>
      <point x="471" y="184"/>
      <point x="529" y="140"/>
    </contour>
    <contour>
      <point x="531" y="523" type="line"/>
      <point x="557" y="547"/>
      <point x="578" y="575"/>
      <point x="629" y="575" type="curve" smooth="yes"/>
      <point x="670" y="575"/>
      <point x="695" y="551"/>
      <point x="727" y="520" type="curve"/>
      <point x="766" y="575" type="line"/>
      <point x="735" y="610"/>
      <point x="694" y="640"/>
      <point x="628" y="640" type="curve" smooth="yes"/>
      <point x="560" y="640"/>
      <point x="526" y="613"/>
      <point x="487" y="574" type="curve"/>
    </contour>
  </outline>
</glyph>
<glyph name="ta" format="2">
  <advance width="1124"/>
  <unicode hex="1010"/>
  <note>
ta
</note>
  <outline>
    <contour>
      <point x="324" y="140" type="curve" smooth="yes"/>
      <point x="495" y="140"/>
      <point x="607" y="242"/>
      <point x="607" y="387" type="curve" smooth="yes"/>
      <point x="607" y="529"/>
      <point x="502" y="640"/>
      <point x="327" y="640" type="curve" smooth="yes"/>
      <point x="165" y="640"/>
      <point x="55" y="532"/>
      <point x="55" y="390" type="curve" smooth="yes"/>
      <point x="55" y="247"/>
      <point x="164" y="140"/>
    </contour>
    <contour>
      <point x="327" y="207" type="curve" smooth="yes"/>
      <point x="226" y="207"/>
      <point x="146" y="278"/>
      <point x="146" y="388" type="curve" smooth="yes"/>
      <point x="146" y="501"/>
      <point x="221" y="574"/>
      <point x="328" y="574" type="curve" smooth="yes"/>
      <point x="448" y="574"/>
      <point x="515" y="497"/>
      <point x="515" y="385" type="curve" smooth="yes"/>
      <point x="515" y="279"/>
      <point x="445" y="207"/>
    </contour>
    <contour>
      <point x="810" y="140" type="curve" smooth="yes"/>
      <point x="961" y="140"/>
      <point x="1069" y="238"/>
      <point x="1069" y="390" type="curve" smooth="yes"/>
      <point x="1069" y="532"/>
      <point x="962" y="640"/>
      <point x="792" y="640" type="curve" smooth="yes"/>
      <point x="689" y="640"/>
      <point x="601" y="600"/>
      <point x="550" y="522" type="curve"/>
      <point x="587" y="440" type="line"/>
      <point x="634" y="525"/>
      <point x="712" y="574"/>
      <point x="794" y="574" type="curve" smooth="yes"/>
      <point x="907" y="574"/>
      <point x="978" y="500"/>
      <point x="978" y="388" type="curve" smooth="yes"/>
      <point x="978" y="277"/>
      <point x="905" y="207"/>
      <point x="796" y="207" type="curve" smooth="yes"/>
      <point x="758" y="207"/>
      <point x="727" y="212"/>
      <point x="701" y="223" type="curve"/>
      <point x="669" y="163" type="line"/>
      <point x="707" y="146"/>
      <point x="749" y="140"/>
    </contour>
  </outline>
</glyph>
<glyph name="tha" format="2">
  <advance width="1125"/>
  <unicode hex="1011"/>
  <note>
tha
</note>
  <outline>
    <contour>
      <point x="329" y="140" type="curve" smooth="yes"/>
      <point x="496" y="140"/>
      <point x="609" y="244"/>
      <point x="609" y="390" type="curve" smooth="yes"/>
      <point x="609" y="531"/>
      <point x="503" y="640"/>
      <point x="332" y="640" type="curve" smooth="yes"/>
      <point x="165" y="640"/>
      <point x="55" y="532"/>
      <point x="55" y="390" type="curve" smooth="yes"/>
      <point x="55" y="247"/>
      <point x="164" y="140"/>
    </contour>
    <contour>
      <point x="332" y="207" type="curve" smooth="yes"/>
      <point x="226" y="207"/>
      <point x="146" y="278"/>
      <point x="146" y="388" type="curve" smooth="yes"/>
      <point x="146" y="501"/>
      <point x="221" y="574"/>
      <point x="333" y="574" type="curve" smooth="yes"/>
      <point x="449" y="574"/>
      <point x="517" y="499"/>
      <point x="517" y="388" type="curve" smooth="yes"/>
      <point x="517" y="280"/>
      <point x="446" y="207"/>
    </contour>
    <contour>
      <point x="787" y="140" type="curve" smooth="yes"/>
      <point x="962" y="140"/>
      <point x="1070" y="244"/>
      <point x="1070" y="390" type="curve" smooth="yes"/>
      <point x="1070" y="532"/>
      <point x="962" y="640"/>
      <point x="792" y="640" type="curve" smooth="yes"/>
      <point x="677" y="640"/>
      <point x="606" y="604"/>
      <point x="543" y="533" type="curve"/>
      <point x="583" y="458" type="line"/>
      <point x="637" y="549"/>
      <point x="706" y="574"/>
      <point x="794" y="574" type="curve" smooth="yes"/>
      <point x="911" y="574"/>
      <point x="979" y="503"/>
      <point x="979" y="388" type="curve" smooth="yes"/>
      <point x="979" y="280"/>
      <point x="906" y="206"/>
      <point x="788" y="206" type="curve" smooth="yes"/>
      <point x="692" y="206"/>
      <point x="619" y="252"/>
      <point x="588" y="322" type="curve"/>
      <point x="547" y="249" type="line"/>
      <point x="597" y="180"/>
      <point x="676" y="140"/>
    </contour>
  </outline>
</glyph>
<glyph name="da" format="2">
  <advance width="640"/>
  <unicode hex="1012"/>
  <note>
da
</note>
  <outline>
    <contour>
      <point x="319" y="140" type="curve" smooth="yes"/>
      <point x="499" y="140"/>
      <point x="596" y="190"/>
      <point x="596" y="280" type="curve" smooth="yes"/>
      <point x="596" y="338"/>
      <point x="560" y="379"/>
      <point x="467" y="403" type="curve"/>
      <point x="467" y="407" type="line"/>
      <point x="532" y="424"/>
      <point x="575" y="454"/>
      <point x="575" y="513" type="curve" smooth="yes"/>
      <point x="575" y="595"/>
      <point x="492" y="640"/>
      <point x="327" y="640" type="curve" smooth="yes"/>
      <point x="176" y="640"/>
      <point x="81" y="589"/>
      <point x="81" y="515" type="curve" smooth="yes"/>
      <point x="81" y="487"/>
      <point x="94" y="468"/>
      <point x="108" y="450" type="curve"/>
      <point x="177" y="484" type="line"/>
      <point x="168" y="492"/>
      <point x="164" y="502"/>
      <point x="164" y="513" type="curve" smooth="yes"/>
      <point x="164" y="559"/>
      <point x="248" y="576"/>
      <point x="327" y="576" type="curve" smooth="yes"/>
      <point x="406" y="576"/>
      <point x="491" y="565"/>
      <point x="491" y="506" type="curve" smooth="yes"/>
      <point x="491" y="460"/>
      <point x="432" y="433"/>
      <point x="364" y="433" type="curve" smooth="yes"/>
      <point x="358" y="433" type="line"/>
      <point x="358" y="368" type="line"/>
      <point x="372" y="368" type="line" smooth="yes"/>
      <point x="464" y="368"/>
      <point x="508" y="332"/>
      <point x="508" y="290" type="curve" smooth="yes"/>
      <point x="508" y="222"/>
      <point x="418" y="205"/>
      <point x="320" y="205" type="curve" smooth="yes"/>
      <point x="229" y="205"/>
      <point x="153" y="235"/>
      <point x="119" y="307" type="curve"/>
      <point x="49" y="275" type="line"/>
      <point x="85" y="190"/>
      <point x="180" y="140"/>
    </contour>
  </outline>
</glyph>
<glyph name="dha" format="2">
  <advance width="674"/>
  <unicode hex="1013"/>
  <note>
dha
</note>
  <outline>
    <contour>
      <point x="172" y="270" type="line"/>
      <point x="218" y="315"/>
      <point x="275" y="337"/>
      <point x="337" y="337" type="curve" smooth="yes"/>
      <point x="402" y="337"/>
      <point x="460" y="315"/>
      <point x="501" y="271" type="curve"/>
      <point x="536" y="326" type="line"/>
      <point x="486" y="374"/>
      <point x="421" y="401"/>
      <point x="337" y="401" type="curve" smooth="yes"/>
      <point x="248" y="401"/>
      <point x="184" y="370"/>
      <point x="134" y="323" type="curve"/>
    </contour>
    <contour>
      <point x="334" y="140" type="curve" smooth="yes"/>
      <point x="502" y="140"/>
      <point x="619" y="244"/>
      <point x="619" y="390" type="curve" smooth="yes"/>
      <point x="619" y="531"/>
      <point x="509" y="640"/>
      <point x="337" y="640" type="curve" smooth="yes"/>
      <point x="165" y="640"/>
      <point x="55" y="532"/>
      <point x="55" y="390" type="curve" smooth="yes"/>
      <point x="55" y="247"/>
      <point x="164" y="140"/>
    </contour>
    <contour>
      <point x="337" y="207" type="curve" smooth="yes"/>
      <point x="226" y="207"/>
      <point x="146" y="278"/>
      <point x="146" y="388" type="curve" smooth="yes"/>
      <point x="146" y="501"/>
      <point x="221" y="574"/>
      <point x="338" y="574" type="curve" smooth="yes"/>
      <point x="455" y="574"/>
      <point x="527" y="499"/>
      <point x="527" y="388" type="curve" smooth="yes"/>
      <point x="527" y="280"/>
      <point x="452" y="207"/>
    </contour>
  </outline>
</glyph>
<glyph name="na" format="2">
  <advance width="570"/>
  <unicode hex="1014"/>
  <note>
na
</note>
  <outline>
    <contour>
      <point x="267" y="-271" type="line"/>
      <point x="356" y="-271" type="line"/>
      <point x="356" y="156" type="line" smooth="yes"/>
      <point x="356" y="314"/>
      <point x="309" y="390"/>
      <point x="185" y="390" type="curve" smooth="yes"/>
      <point x="102" y="390"/>
      <point x="34" y="342"/>
      <point x="34" y="268" type="curve" smooth="yes"/>
      <point x="34" y="194"/>
      <point x="93" y="140"/>
      <point x="233" y="140" type="curve" smooth="yes"/>
      <point x="314" y="140" type="line" smooth="yes"/>
      <point x="442" y="140"/>
      <point x="535" y="183"/>
      <point x="535" y="287" type="curve" smooth="yes"/>
      <point x="535" y="373"/>
      <point x="473" y="407"/>
      <point x="360" y="442" type="curve" smooth="yes"/>
      <point x="276" y="467"/>
      <point x="236" y="485"/>
      <point x="236" y="522" type="curve" smooth="yes"/>
      <point x="236" y="553"/>
      <point x="271" y="576"/>
      <point x="314" y="576" type="curve" smooth="yes"/>
      <point x="367" y="576"/>
      <point x="397" y="561"/>
      <point x="441" y="522" type="curve"/>
      <point x="493" y="572" type="line"/>
      <point x="438" y="618"/>
      <point x="401" y="640"/>
      <point x="310" y="640" type="curve" smooth="yes"/>
      <point x="225" y="640"/>
      <point x="152" y="588"/>
      <point x="152" y="518" type="curve" smooth="yes"/>
      <point x="152" y="457"/>
      <point x="192" y="421"/>
      <point x="292" y="389" type="curve" smooth="yes"/>
      <point x="393" y="358"/>
      <point x="450" y="331"/>
      <point x="450" y="285" type="curve" smooth="yes"/>
      <point x="450" y="225"/>
      <point x="403" y="206"/>
      <point x="324" y="206" type="curve" smooth="yes"/>
      <point x="231" y="206" type="line" smooth="yes"/>
      <point x="154" y="206"/>
      <point x="112" y="230"/>
      <point x="112" y="267" type="curve" smooth="yes"/>
      <point x="112" y="307"/>
      <point x="144" y="324"/>
      <point x="178" y="324" type="curve" smooth="yes"/>
      <point x="229" y="324"/>
      <point x="267" y="289"/>
      <point x="267" y="207" type="curve" smooth="yes"/>
    </contour>
  </outline>
</glyph>
<glyph name="pa" format="2">
  <advance width="676"/>
  <unicode hex="1015"/>
  <note>
pa
</note>
  <outline>
    <contour>
      <point x="338" y="140" type="curve" smooth="yes"/>
      <point x="500" y="140"/>
      <point x="621" y="246"/>
      <point x="621" y="399" type="curve" smooth="yes"/>
      <point x="621" y="496"/>
      <point x="567" y="591"/>
      <point x="483" y="640" type="curve"/>
      <point x="433" y="583" type="line"/>
      <point x="495" y="541"/>
      <point x="529" y="482"/>
      <point x="529" y="401" type="curve" smooth="yes"/>
      <point x="529" y="282"/>
      <point x="453" y="207"/>
      <point x="338" y="207" type="curve" smooth="yes"/>
      <point x="223" y="207"/>
      <point x="146" y="281"/>
      <point x="146" y="401" type="curve" smooth="yes"/>
      <point x="146" y="482"/>
      <point x="178" y="541"/>
      <point x="235" y="583" type="curve"/>
      <point x="184" y="640" type="line"/>
      <point x="105" y="590"/>
      <point x="55" y="498"/>
      <point x="55" y="399" type="curve" smooth="yes"/>
      <point x="55" y="247"/>
      <point x="174" y="140"/>
    </contour>
  </outline>
</glyph>
<glyph name="pha" format="2">
  <advance width="675"/>
  <unicode hex="1016"/>
  <note>
pha
</note>
  <outline>
    <contour>
      <point x="337" y="140" type="curve" smooth="yes"/>
      <point x="500" y="140"/>
      <point x="620" y="246"/>
      <point x="620" y="399" type="curve" smooth="yes"/>
      <point x="620" y="494"/>
      <point x="569" y="583"/>
      <point x="473" y="640" type="curve"/>
      <point x="379" y="586"/>
      <point x="332" y="511"/>
      <point x="332" y="407" type="curve" smooth="yes"/>
      <point x="332" y="322"/>
      <point x="371" y="255"/>
      <point x="419" y="210" type="curve"/>
      <point x="487" y="246" type="line"/>
      <point x="438" y="285"/>
      <point x="412" y="344"/>
      <point x="412" y="407" type="curve" smooth="yes"/>
      <point x="412" y="469"/>
      <point x="429" y="509"/>
      <point x="474" y="548" type="curve"/>
      <point x="512" y="509"/>
      <point x="539" y="461"/>
      <point x="539" y="401" type="curve" smooth="yes"/>
      <point x="539" y="285"/>
      <point x="451" y="207"/>
      <point x="337" y="207" type="curve" smooth="yes"/>
      <point x="224" y="207"/>
      <point x="146" y="281"/>
      <point x="146" y="401" type="curve" smooth="yes"/>
      <point x="146" y="482"/>
      <point x="178" y="541"/>
      <point x="235" y="583" type="curve"/>
      <point x="184" y="640" type="line"/>
      <point x="105" y="590"/>
      <point x="55" y="498"/>
      <point x="55" y="399" type="curve" smooth="yes"/>
      <point x="55" y="248"/>
      <point x="173" y="140"/>
    </contour>
  </outline>
</glyph>
<glyph name="ba" format="2">
  <advance width="676"/>
  <unicode hex="1017"/>
  <note>
ba
</note>
  <outline>
    <contour>
      <point x="338" y="140" type="curve" smooth="yes"/>
      <point x="500" y="140"/>
      <point x="621" y="246"/>
      <point x="621" y="399" type="curve" smooth="yes"/>
      <point x="621" y="496"/>
      <point x="568" y="593"/>
      <point x="486" y="642" type="curve"/>
      <point x="436" y="585" type="line"/>
      <point x="496" y="542"/>
      <point x="529" y="483"/>
      <point x="529" y="401" type="curve" smooth="yes"/>
      <point x="529" y="282"/>
      <point x="453" y="207"/>
      <point x="338" y="207" type="curve" smooth="yes"/>
      <point x="223" y="207"/>
      <point x="146" y="281"/>
      <point x="146" y="401" type="curve" smooth="yes"/>
      <point x="146" y="482"/>
      <point x="177" y="541"/>
      <point x="233" y="583" type="curve"/>
      <point x="182" y="640" type="line"/>
      <point x="104" y="590"/>
      <point x="55" y="498"/>
      <point x="55" y="399" type="curve" smooth="yes"/>
      <point x="55" y="247"/>
      <point x="174" y="140"/>
    </contour>
    <contour>
      <point x="335" y="406" type="curve" smooth="yes"/>
      <point x="431" y="406"/>
      <point x="509" y="478"/>
      <point x="509" y="564" type="curve" smooth="yes"/>
      <point x="509" y="593"/>
      <point x="501" y="619"/>
      <point x="486" y="642" type="curve"/>
      <point x="428" y="595" type="line"/>
      <point x="433" y="586"/>
      <point x="435" y="575"/>
      <point x="435" y="564" type="curve" smooth="yes"/>
      <point x="435" y="514"/>
      <point x="390" y="473"/>
      <point x="335" y="473" type="curve" smooth="yes"/>
      <point x="279" y="473"/>
      <point x="234" y="514"/>
      <point x="234" y="564" type="curve" smooth="yes"/>
      <point x="234" y="575"/>
      <point x="236" y="585"/>
      <point x="240" y="595" type="curve"/>
      <point x="182" y="640" type="line"/>
      <point x="168" y="618"/>
      <point x="160" y="592"/>
      <point x="160" y="564" type="curve" smooth="yes"/>
      <point x="160" y="478"/>
      <point x="238" y="406"/>
    </contour>
  </outline>
</glyph>
<glyph name="bha" format="2">
  <advance width="1124"/>
  <unicode hex="1018"/>
  <note>
bha
</note>
  <outline>
    <contour>
      <point x="304" y="140" type="curve" smooth="yes"/>
      <point x="482" y="140"/>
      <point x="588" y="246"/>
      <point x="588" y="391" type="curve" smooth="yes"/>
      <point x="588" y="533"/>
      <point x="477" y="640"/>
      <point x="304" y="640" type="curve" smooth="yes"/>
      <point x="185" y="640"/>
      <point x="85" y="581"/>
      <point x="50" y="494" type="curve"/>
      <point x="120" y="461" type="line"/>
      <point x="155" y="536"/>
      <point x="223" y="574"/>
      <point x="306" y="574" type="curve" smooth="yes"/>
      <point x="423" y="574"/>
      <point x="497" y="500"/>
      <point x="497" y="392" type="curve" smooth="yes"/>
      <point x="497" y="285"/>
      <point x="417" y="207"/>
      <point x="306" y="207" type="curve" smooth="yes"/>
      <point x="223" y="207"/>
      <point x="155" y="244"/>
      <point x="120" y="319" type="curve"/>
      <point x="50" y="287" type="line"/>
      <point x="85" y="199"/>
      <point x="185" y="140"/>
    </contour>
    <contour>
      <point x="803" y="141" type="curve" smooth="yes"/>
      <point x="960" y="141"/>
      <point x="1069" y="238"/>
      <point x="1069" y="390" type="curve" smooth="yes"/>
      <point x="1069" y="532"/>
      <point x="963" y="640"/>
      <point x="792" y="640" type="curve" smooth="yes"/>
      <point x="682" y="640"/>
      <point x="592" y="601"/>
      <point x="537" y="528" type="curve"/>
      <point x="573" y="447" type="line"/>
      <point x="617" y="531"/>
      <point x="687" y="573"/>
      <point x="793" y="573" type="curve" smooth="yes"/>
      <point x="906" y="573"/>
      <point x="978" y="499"/>
      <point x="978" y="388" type="curve" smooth="yes"/>
      <point x="978" y="278"/>
      <point x="906" y="207"/>
      <point x="796" y="207" type="curve" smooth="yes"/>
      <point x="753" y="207"/>
      <point x="716" y="212"/>
      <point x="686" y="223" type="curve"/>
      <point x="654" y="163" type="line"/>
      <point x="686" y="151"/>
      <point x="725" y="141"/>
    </contour>
  </outline>
</glyph>
<glyph name="ra" format="2">
  <advance width="689"/>
  <unicode hex="101B"/>
  <note>
ra
</note>
  <outline>
    <contour>
      <point x="509" y="-271" type="line"/>
      <point x="722" y="-271" type="line"/>
      <point x="722" y="-210" type="line"/>
      <point x="597" y="-210" type="line"/>
      <point x="597" y="390" type="line" smooth="yes"/>
      <point x="597" y="533"/>
      <point x="493" y="640"/>
      <point x="326" y="640" type="curve" smooth="yes"/>
      <point x="163" y="640"/>
      <point x="55" y="535"/>
      <point x="55" y="390" type="curve" smooth="yes"/>
      <point x="55" y="246"/>
      <point x="161" y="140"/>
      <point x="323" y="140" type="curve" smooth="yes"/>
      <point x="363" y="140"/>
      <point x="401" y="148"/>
      <point x="432" y="157" type="curve"/>
      <point x="432" y="339"/>
      <point x="320" y="444"/>
      <point x="136" y="452" type="curve"/>
      <point x="128" y="388" type="line"/>
      <point x="264" y="385"/>
      <point x="351" y="312"/>
      <point x="351" y="180" type="curve"/>
      <point x="379" y="210" type="line"/>
      <point x="363" y="208"/>
      <point x="343" y="207"/>
      <point x="326" y="207" type="curve" smooth="yes"/>
      <point x="212" y="207"/>
      <point x="146" y="281"/>
      <point x="146" y="388" type="curve" smooth="yes"/>
      <point x="146" y="502"/>
      <point x="217" y="574"/>
      <point x="327" y="574" type="curve" smooth="yes"/>
      <point x="438" y="574"/>
      <point x="509" y="497"/>
      <point x="509" y="388" type="curve" smooth="yes"/>
    </contour>
  </outline>
</glyph>
<glyph name="la" format="2">
  <advance width="1126"/>
  <unicode hex="101C"/>
  <note>
la
</note>
  <outline>
    <contour>
      <point x="309" y="140" type="curve" smooth="yes"/>
      <point x="369" y="140"/>
      <point x="410" y="146"/>
      <point x="447" y="163" type="curve"/>
      <point x="415" y="223" type="line"/>
      <point x="390" y="212"/>
      <point x="359" y="207"/>
      <point x="323" y="207" type="curve" smooth="yes"/>
      <point x="216" y="207"/>
      <point x="146" y="278"/>
      <point x="146" y="388" type="curve" smooth="yes"/>
      <point x="146" y="499"/>
      <point x="215" y="573"/>
      <point x="321" y="573" type="curve" smooth="yes"/>
      <point x="414" y="573"/>
      <point x="475" y="516"/>
      <point x="524" y="370" type="curve" smooth="yes"/>
      <point x="573" y="223"/>
      <point x="652" y="140"/>
      <point x="807" y="140" type="curve" smooth="yes"/>
      <point x="962" y="140"/>
      <point x="1071" y="247"/>
      <point x="1071" y="390" type="curve" smooth="yes"/>
      <point x="1071" y="543"/>
      <point x="964" y="640"/>
      <point x="817" y="640" type="curve" smooth="yes"/>
      <point x="757" y="640"/>
      <point x="716" y="634"/>
      <point x="679" y="617" type="curve"/>
      <point x="711" y="558" type="line"/>
      <point x="736" y="568"/>
      <point x="766" y="574"/>
      <point x="803" y="574" type="curve" smooth="yes"/>
      <point x="909" y="574"/>
      <point x="980" y="505"/>
      <point x="980" y="392" type="curve" smooth="yes"/>
      <point x="980" y="280"/>
      <point x="906" y="208"/>
      <point x="810" y="208" type="curve" smooth="yes"/>
      <point x="700" y="208"/>
      <point x="641" y="279"/>
      <point x="602" y="410" type="curve" smooth="yes"/>
      <point x="563" y="541"/>
      <point x="478" y="640"/>
      <point x="326" y="640" type="curve" smooth="yes"/>
      <point x="159" y="640"/>
      <point x="55" y="531"/>
      <point x="55" y="390" type="curve" smooth="yes"/>
      <point x="55" y="239"/>
      <point x="161" y="140"/>
    </contour>
  </outline>
</glyph>
<glyph name="wa" format="2">
  <advance width="674"/>
  <unicode hex="101D"/>
  <note>
wa
</note>
  <outline>
    <contour>
      <point x="334" y="140" type="curve" smooth="yes"/>
      <point x="502" y="140"/>
      <point x="619" y="244"/>
      <point x="619" y="390" type="curve" smooth="yes"/>
      <point x="619" y="531"/>
      <point x="509" y="640"/>
      <point x="337" y="640" type="curve" smooth="yes"/>
      <point x="165" y="640"/>
      <point x="55" y="532"/>
      <point x="55" y="390" type="curve" smooth="yes"/>
      <point x="55" y="247"/>
      <point x="164" y="140"/>
    </contour>
    <contour>
      <point x="337" y="207" type="curve" smooth="yes"/>
      <point x="226" y="207"/>
      <point x="146" y="278"/>
      <point x="146" y="388" type="curve" smooth="yes"/>
      <point x="146" y="501"/>
      <point x="221" y="574"/>
      <point x="338" y="574" type="curve" smooth="yes"/>
      <point x="455" y="574"/>
      <point x="527" y="499"/>
      <point x="527" y="388" type="curve" smooth="yes"/>
      <point x="527" y="280"/>
      <point x="452" y="207"/>
    </contour>
  </outline>
</glyph>
<glyph name="sa" format="2">
  <advance width="1127"/>
  <unicode hex="101E"/>
  <note>
sa
</note>
  <outline>
    <contour>
      <point x="305" y="140" type="curve" smooth="yes"/>
      <point x="490" y="140"/>
      <point x="589" y="262"/>
      <point x="589" y="395" type="curve" smooth="yes"/>
      <point x="589" y="534"/>
      <point x="479" y="640"/>
      <point x="304" y="640" type="curve" smooth="yes"/>
      <point x="186" y="640"/>
      <point x="87" y="583"/>
      <point x="50" y="494" type="curve"/>
      <point x="120" y="461" type="line"/>
      <point x="156" y="536"/>
      <point x="222" y="574"/>
      <point x="306" y="574" type="curve" smooth="yes"/>
      <point x="422" y="574"/>
      <point x="498" y="501"/>
      <point x="498" y="392" type="curve" smooth="yes"/>
      <point x="498" y="288"/>
      <point x="423" y="207"/>
      <point x="306" y="207" type="curve" smooth="yes"/>
      <point x="222" y="207"/>
      <point x="156" y="244"/>
      <point x="120" y="319" type="curve"/>
      <point x="50" y="287" type="line"/>
      <point x="87" y="199"/>
      <point x="186" y="140"/>
    </contour>
    <contour>
      <point x="783" y="140" type="curve" smooth="yes"/>
      <point x="953" y="140"/>
      <point x="1072" y="243"/>
      <point x="1072" y="390" type="curve" smooth="yes"/>
      <point x="1072" y="542"/>
      <point x="960" y="640"/>
      <point x="804" y="640" type="curve" smooth="yes"/>
      <point x="741" y="640"/>
      <point x="697" y="634"/>
      <point x="658" y="617" type="curve"/>
      <point x="690" y="558" type="line"/>
      <point x="717" y="568"/>
      <point x="750" y="574"/>
      <point x="790" y="574" type="curve" smooth="yes"/>
      <point x="906" y="574"/>
      <point x="981" y="502"/>
      <point x="981" y="392" type="curve" smooth="yes"/>
      <point x="981" y="283"/>
      <point x="906" y="208"/>
      <point x="786" y="208" type="curve" smooth="yes"/>
      <point x="682" y="208"/>
      <point x="620" y="265"/>
      <point x="571" y="338" type="curve"/>
      <point x="534" y="259" type="line"/>
      <point x="588" y="181"/>
      <point x="676" y="140"/>
    </contour>
  </outline>
</glyph>
<glyph name="ha" format="2">
  <advance width="1124"/>
  <unicode hex="101F"/>
  <note>
ha
</note>
  <outline>
    <contour>
      <point x="331" y="140" type="curve" smooth="yes"/>
      <point x="493" y="140"/>
      <point x="607" y="253"/>
      <point x="607" y="388" type="curve" smooth="yes"/>
      <point x="607" y="494"/>
      <point x="563" y="585"/>
      <point x="476" y="640" type="curve"/>
      <point x="425" y="583" type="line"/>
      <point x="483" y="541"/>
      <point x="516" y="482"/>
      <point x="516" y="401" type="curve" smooth="yes"/>
      <point x="516" y="280"/>
      <point x="441" y="207"/>
      <point x="331" y="207" type="curve" smooth="yes"/>
      <point x="222" y="207"/>
      <point x="146" y="280"/>
      <point x="146" y="401" type="curve" smooth="yes"/>
      <point x="146" y="482"/>
      <point x="178" y="541"/>
      <point x="235" y="583" type="curve"/>
      <point x="184" y="640" type="line"/>
      <point x="105" y="590"/>
      <point x="55" y="498"/>
      <point x="55" y="399" type="curve" smooth="yes"/>
      <point x="55" y="247"/>
      <point x="171" y="140"/>
    </contour>
    <contour>
      <point x="809" y="140" type="curve" smooth="yes"/>
      <point x="959" y="140"/>
      <point x="1068" y="239"/>
      <point x="1068" y="390" type="curve" smooth="yes"/>
      <point x="1068" y="532"/>
      <point x="960" y="640"/>
      <point x="791" y="640" type="curve" smooth="yes"/>
      <point x="695" y="640"/>
      <point x="609" y="601"/>
      <point x="559" y="532" type="curve"/>
      <point x="592" y="446" type="line"/>
      <point x="641" y="527"/>
      <point x="702" y="573"/>
      <point x="792" y="573" type="curve" smooth="yes"/>
      <point x="907" y="573"/>
      <point x="978" y="497"/>
      <point x="978" y="388" type="curve" smooth="yes"/>
      <point x="978" y="280"/>
      <point x="907" y="207"/>
      <point x="795" y="207" type="curve" smooth="yes"/>
      <point x="757" y="207"/>
      <point x="726" y="212"/>
      <point x="700" y="223" type="curve"/>
      <point x="668" y="163" type="line"/>
      <point x="707" y="146"/>
      <point x="748" y="140"/>
    </contour>
  </outline>
</glyph>
<glyph name="lla" format="2">
  <advance width="666"/>
  <unicode hex="1020"/>
  <note>
lla
</note>
  <outline>
    <contour>
      <point x="296" y="-271" type="curve" smooth="yes"/>
      <point x="370" y="-271" type="line" smooth="yes"/>
      <point x="506" y="-271"/>
      <point x="575" y="-214"/>
      <point x="575" y="-102" type="curve" smooth="yes"/>
      <point x="575" y="-100" type="line"/>
      <point x="486" y="-100" type="line"/>
      <point x="486" y="-112" type="line" smooth="yes"/>
      <point x="486" y="-171"/>
      <point x="451" y="-207"/>
      <point x="375" y="-207" type="curve" smooth="yes"/>
      <point x="292" y="-207" type="line" smooth="yes"/>
      <point x="214" y="-207"/>
      <point x="180" y="-171"/>
      <point x="180" y="-113" type="curve" smooth="yes"/>
      <point x="180" y="44" type="line"/>
      <point x="231" y="28"/>
      <point x="286" y="19"/>
      <point x="343" y="19" type="curve" smooth="yes"/>
      <point x="428" y="19"/>
      <point x="512" y="49"/>
      <point x="575" y="83" type="curve"/>
      <point x="575" y="287" type="line"/>
      <point x="487" y="197" type="line"/>
      <point x="487" y="117" type="line"/>
      <point x="440" y="99"/>
      <point x="389" y="86"/>
      <point x="333" y="86" type="curve" smooth="yes"/>
      <point x="247" y="86"/>
      <point x="163" y="112"/>
      <point x="91" y="149" type="curve"/>
      <point x="91" y="-100" type="line" smooth="yes"/>
      <point x="91" y="-214"/>
      <point x="159" y="-271"/>
    </contour>
    <contour>
      <point x="333" y="140" type="curve" smooth="yes"/>
      <point x="451" y="140"/>
      <point x="501" y="184"/>
      <point x="575" y="287" type="curve"/>
      <point x="505" y="319" type="line"/>
      <point x="472" y="244"/>
      <point x="410" y="207"/>
      <point x="332" y="207" type="curve" smooth="yes"/>
      <point x="222" y="207"/>
      <point x="153" y="278"/>
      <point x="153" y="392" type="curve" smooth="yes"/>
      <point x="153" y="501"/>
      <point x="224" y="574"/>
      <point x="332" y="574" type="curve" smooth="yes"/>
      <point x="410" y="574"/>
      <point x="472" y="536"/>
      <point x="505" y="461" type="curve"/>
      <point x="575" y="494" type="line"/>
      <point x="539" y="584"/>
      <point x="446" y="640"/>
      <point x="333" y="640" type="curve" smooth="yes"/>
      <point x="168" y="640"/>
      <point x="62" y="537"/>
      <point x="62" y="391" type="curve" smooth="yes"/>
      <point x="62" y="249"/>
      <point x="168" y="140"/>
    </contour>
  </outline>
</glyph>
<glyph name="a_m" format="2">
  <advance width="1068"/>
  <unicode hex="1021"/>
  <note>
a_m
</note>
  <outline>
    <contour>
      <point x="300" y="140" type="curve" smooth="yes"/>
      <point x="466" y="140"/>
      <point x="557" y="190"/>
      <point x="557" y="280" type="curve" smooth="yes"/>
      <point x="557" y="339"/>
      <point x="524" y="379"/>
      <point x="438" y="403" type="curve"/>
      <point x="438" y="407" type="line"/>
      <point x="506" y="427"/>
      <point x="538" y="457"/>
      <point x="538" y="515" type="curve" smooth="yes"/>
      <point x="538" y="593"/>
      <point x="461" y="640"/>
      <point x="308" y="640" type="curve" smooth="yes"/>
      <point x="169" y="640"/>
      <point x="81" y="589"/>
      <point x="81" y="515" type="curve" smooth="yes"/>
      <point x="81" y="487"/>
      <point x="93" y="469"/>
      <point x="108" y="450" type="curve"/>
      <point x="177" y="484" type="line"/>
      <point x="168" y="492"/>
      <point x="164" y="502"/>
      <point x="164" y="513" type="curve" smooth="yes"/>
      <point x="164" y="557"/>
      <point x="235" y="576"/>
      <point x="308" y="576" type="curve" smooth="yes"/>
      <point x="381" y="576"/>
      <point x="454" y="564"/>
      <point x="454" y="506" type="curve" smooth="yes"/>
      <point x="454" y="460"/>
      <point x="401" y="433"/>
      <point x="341" y="433" type="curve" smooth="yes"/>
      <point x="336" y="433" type="line"/>
      <point x="336" y="368" type="line"/>
      <point x="348" y="368" type="line" smooth="yes"/>
      <point x="431" y="368"/>
      <point x="469" y="331"/>
      <point x="469" y="290" type="curve" smooth="yes"/>
      <point x="469" y="237"/>
      <point x="419" y="205"/>
      <point x="300" y="205" type="curve" smooth="yes"/>
      <point x="218" y="205"/>
      <point x="150" y="235"/>
      <point x="119" y="307" type="curve"/>
      <point x="49" y="275" type="line"/>
      <point x="83" y="190"/>
      <point x="171" y="140"/>
    </contour>
    <contour>
      <point x="745" y="140" type="curve" smooth="yes"/>
      <point x="908" y="140"/>
      <point x="1013" y="248"/>
      <point x="1013" y="390" type="curve" smooth="yes"/>
      <point x="1013" y="534"/>
      <point x="893" y="640"/>
      <point x="722" y="640" type="curve" smooth="yes"/>
      <point x="620" y="640"/>
      <point x="548" y="613"/>
      <point x="504" y="573" type="curve"/>
      <point x="527" y="501" type="line"/>
      <point x="576" y="548"/>
      <point x="636" y="573"/>
      <point x="718" y="573" type="curve" smooth="yes"/>
      <point x="842" y="573"/>
      <point x="921" y="505"/>
      <point x="921" y="388" type="curve" smooth="yes"/>
      <point x="921" y="281"/>
      <point x="859" y="207"/>
      <point x="736" y="207" type="curve" smooth="yes"/>
      <point x="728" y="207"/>
      <point x="717" y="207"/>
      <point x="706" y="208" type="curve"/>
      <point x="718" y="189" type="line"/>
      <point x="718" y="313"/>
      <point x="804" y="383"/>
      <point x="940" y="388" type="curve"/>
      <point x="930" y="452" type="line"/>
      <point x="747" y="444"/>
      <point x="636" y="336"/>
      <point x="636" y="157" type="curve"/>
      <point x="667" y="148"/>
      <point x="705" y="140"/>
    </contour>
  </outline>
</glyph>
<glyph name="a_shn" format="2">
  <advance width="1123"/>
  <unicode hex="1022"/>
  <note>
a_shn
</note>
  <outline>
    <contour>
      <point x="170" y="140" type="curve" smooth="yes"/>
      <point x="244" y="140"/>
      <point x="286" y="190"/>
      <point x="286" y="234" type="curve" smooth="yes"/>
      <point x="286" y="274"/>
      <point x="277" y="296"/>
      <point x="222" y="339" type="curve" smooth="yes"/>
      <point x="167" y="382"/>
      <point x="153" y="414"/>
      <point x="153" y="451" type="curve" smooth="yes"/>
      <point x="153" y="522"/>
      <point x="215" y="574"/>
      <point x="331" y="574" type="curve" smooth="yes"/>
      <point x="436" y="574"/>
      <point x="515" y="500"/>
      <point x="515" y="379" type="curve" smooth="yes"/>
      <point x="515" y="298"/>
      <point x="483" y="240"/>
      <point x="426" y="198" type="curve"/>
      <point x="477" y="140" type="line"/>
      <point x="558" y="191"/>
      <point x="606" y="287"/>
      <point x="606" y="381" type="curve" smooth="yes"/>
      <point x="606" y="541"/>
      <point x="491" y="640"/>
      <point x="324" y="640" type="curve" smooth="yes"/>
      <point x="166" y="640"/>
      <point x="63" y="563"/>
      <point x="63" y="451" type="curve" smooth="yes"/>
      <point x="63" y="388"/>
      <point x="94" y="339"/>
      <point x="150" y="300" type="curve" smooth="yes"/>
      <point x="182" y="279"/>
      <point x="200" y="262"/>
      <point x="200" y="238" type="curve" smooth="yes"/>
      <point x="200" y="221"/>
      <point x="186" y="207"/>
      <point x="163" y="207" type="curve" smooth="yes"/>
      <point x="143" y="207"/>
      <point x="126" y="216"/>
      <point x="103" y="240" type="curve"/>
      <point x="53" y="194" type="line"/>
      <point x="93" y="155"/>
      <point x="119" y="140"/>
    </contour>
    <contour>
      <point x="809" y="140" type="curve" smooth="yes"/>
      <point x="960" y="140"/>
      <point x="1068" y="238"/>
      <point x="1068" y="390" type="curve" smooth="yes"/>
      <point x="1068" y="532"/>
      <point x="961" y="640"/>
      <point x="791" y="640" type="curve" smooth="yes"/>
      <point x="688" y="640"/>
      <point x="600" y="600"/>
      <point x="549" y="522" type="curve"/>
      <point x="586" y="440" type="line"/>
      <point x="633" y="525"/>
      <point x="711" y="574"/>
      <point x="793" y="574" type="curve" smooth="yes"/>
      <point x="906" y="574"/>
      <point x="977" y="500"/>
      <point x="977" y="388" type="curve" smooth="yes"/>
      <point x="977" y="277"/>
      <point x="904" y="207"/>
      <point x="795" y="207" type="curve" smooth="yes"/>
      <point x="757" y="207"/>
      <point x="726" y="212"/>
      <point x="700" y="223" type="curve"/>
      <point x="668" y="163" type="line"/>
      <point x="706" y="146"/>
      <point x="748" y="140"/>
    </contour>
  </outline>
</glyph>
<glyph name="i_m" format="2">
  <advance width="1100"/>
  <unicode hex="1023"/>
  <note>
i_m
</note>
  <outline>
    <contour>
      <point x="184" y="140" type="curve"/>
      <point x="235" y="198" type="line"/>
      <point x="178" y="240"/>
      <point x="146" y="299"/>
      <point x="146" y="379" type="curve" smooth="yes"/>
      <point x="146" y="501"/>
      <point x="221" y="574"/>
      <point x="326" y="574" type="curve" smooth="yes"/>
      <point x="447" y="574"/>
      <point x="506" y="489"/>
      <point x="506" y="354" type="curve" smooth="yes"/>
      <point x="506" y="256" type="line"/>
      <point x="594" y="256" type="line"/>
      <point x="594" y="360" type="line" smooth="yes"/>
      <point x="594" y="497"/>
      <point x="656" y="574"/>
      <point x="774" y="574" type="curve" smooth="yes"/>
      <point x="880" y="574"/>
      <point x="954" y="499"/>
      <point x="954" y="379" type="curve" smooth="yes"/>
      <point x="954" y="299"/>
      <point x="922" y="240"/>
      <point x="865" y="198" type="curve"/>
      <point x="916" y="140" type="line"/>
      <point x="992" y="186"/>
      <point x="1045" y="284"/>
      <point x="1045" y="381" type="curve" smooth="yes"/>
      <point x="1045" y="536"/>
      <point x="927" y="640"/>
      <point x="774" y="640" type="curve" smooth="yes"/>
      <point x="672" y="640"/>
      <point x="577" y="590"/>
      <point x="539" y="487" type="curve"/>
      <point x="560" y="488" type="line"/>
      <point x="528" y="585"/>
      <point x="429" y="640"/>
      <point x="326" y="640" type="curve" smooth="yes"/>
      <point x="172" y="640"/>
      <point x="55" y="535"/>
      <point x="55" y="381" type="curve" smooth="yes"/>
      <point x="55" y="278"/>
      <point x="111" y="183"/>
    </contour>
    <contour>
      <point x="828" y="-271" type="line"/>
      <point x="988" y="-271" type="line"/>
      <point x="988" y="-210" type="line"/>
      <point x="889" y="-210" type="line"/>
      <point x="911" y="-175"/>
      <point x="925" y="-133"/>
      <point x="925" y="-87" type="curve" smooth="yes"/>
      <point x="925" y="29"/>
      <point x="834" y="106"/>
      <point x="721" y="106" type="curve" smooth="yes"/>
      <point x="638" y="106"/>
      <point x="566" y="67"/>
      <point x="538" y="-11" type="curve"/>
      <point x="560" y="-13" type="line"/>
      <point x="534" y="72"/>
      <point x="457" y="106"/>
      <point x="380" y="106" type="curve" smooth="yes"/>
      <point x="263" y="106"/>
      <point x="175" y="29"/>
      <point x="175" y="-83" type="curve" smooth="yes"/>
      <point x="175" y="-165"/>
      <point x="217" y="-234"/>
      <point x="273" y="-271" type="curve"/>
      <point x="318" y="-222" type="line"/>
      <point x="278" y="-190"/>
      <point x="255" y="-146"/>
      <point x="255" y="-85" type="curve" smooth="yes"/>
      <point x="255" y="-1"/>
      <point x="307" y="45"/>
      <point x="380" y="45" type="curve" smooth="yes"/>
      <point x="463" y="45"/>
      <point x="510" y="-11"/>
      <point x="510" y="-106" type="curve" smooth="yes"/>
      <point x="510" y="-185" type="line"/>
      <point x="590" y="-185" type="line"/>
      <point x="590" y="-107" type="line" smooth="yes"/>
      <point x="590" y="-7"/>
      <point x="637" y="45"/>
      <point x="721" y="45" type="curve" smooth="yes"/>
      <point x="793" y="45"/>
      <point x="845" y="-2"/>
      <point x="845" y="-89" type="curve" smooth="yes"/>
      <point x="845" y="-147"/>
      <point x="822" y="-190"/>
      <point x="779" y="-222" type="curve"/>
    </contour>
  </outline>
</glyph>
<glyph name="ii" format="2">
  <advance width="1343"/>
  <unicode hex="1024"/>
  <note>
ii
</note>
  <outline>
    <contour>
      <point x="300" y="-271" type="curve" smooth="yes"/>
      <point x="842" y="-271" type="line" smooth="yes"/>
      <point x="977" y="-271"/>
      <point x="1047" y="-208"/>
      <point x="1047" y="-83" type="curve" smooth="yes"/>
      <point x="1047" y="372" type="line" smooth="yes"/>
      <point x="1047" y="530"/>
      <point x="954" y="640"/>
      <point x="776" y="640" type="curve" smooth="yes"/>
      <point x="676" y="640"/>
      <point x="594" y="599"/>
      <point x="542" y="522" type="curve"/>
      <point x="578" y="440" type="line"/>
      <point x="630" y="523"/>
      <point x="687" y="573"/>
      <point x="777" y="573" type="curve" smooth="yes"/>
      <point x="893" y="573"/>
      <point x="959" y="498"/>
      <point x="959" y="369" type="curve" smooth="yes"/>
      <point x="959" y="-96" type="line" smooth="yes"/>
      <point x="959" y="-166"/>
      <point x="923" y="-206"/>
      <point x="847" y="-206" type="curve" smooth="yes"/>
      <point x="312" y="-206" type="line" smooth="yes"/>
      <point x="226" y="-206"/>
      <point x="145" y="-193"/>
      <point x="145" y="-135" type="curve" smooth="yes"/>
      <point x="145" y="-74"/>
      <point x="222" y="-45"/>
      <point x="375" y="-45" type="curve" smooth="yes"/>
      <point x="512" y="-45"/>
      <point x="626" y="-69"/>
      <point x="706" y="-104" type="curve"/>
      <point x="745" y="-44" type="line"/>
      <point x="653" y="-5"/>
      <point x="525" y="23"/>
      <point x="375" y="23" type="curve" smooth="yes"/>
      <point x="172" y="23"/>
      <point x="55" y="-32"/>
      <point x="55" y="-138" type="curve" smooth="yes"/>
      <point x="55" y="-234"/>
      <point x="134" y="-271"/>
    </contour>
    <contour>
      <point x="184" y="140" type="curve"/>
      <point x="235" y="198" type="line"/>
      <point x="178" y="240"/>
      <point x="146" y="299"/>
      <point x="146" y="379" type="curve" smooth="yes"/>
      <point x="146" y="500"/>
      <point x="219" y="573"/>
      <point x="326" y="573" type="curve" smooth="yes"/>
      <point x="434" y="573"/>
      <point x="506" y="499"/>
      <point x="506" y="379" type="curve" smooth="yes"/>
      <point x="506" y="299"/>
      <point x="474" y="240"/>
      <point x="417" y="198" type="curve"/>
      <point x="468" y="140" type="line"/>
      <point x="542" y="187"/>
      <point x="597" y="271"/>
      <point x="597" y="381" type="curve" smooth="yes"/>
      <point x="597" y="532"/>
      <point x="487" y="640"/>
      <point x="326" y="640" type="curve" smooth="yes"/>
      <point x="172" y="640"/>
      <point x="55" y="535"/>
      <point x="55" y="381" type="curve" smooth="yes"/>
      <point x="55" y="278"/>
      <point x="111" y="183"/>
    </contour>
    <contour>
      <point x="1164" y="-271" type="line"/>
      <point x="1252" y="-271" type="line"/>
      <point x="1252" y="345" type="line" smooth="yes"/>
      <point x="1252" y="531"/>
      <point x="1199" y="648"/>
      <point x="1030" y="761" type="curve" smooth="yes"/>
      <point x="963" y="806"/>
      <point x="943" y="836"/>
      <point x="943" y="883" type="curve" smooth="yes"/>
      <point x="943" y="943"/>
      <point x="988" y="992"/>
      <point x="1060" y="992" type="curve" smooth="yes"/>
      <point x="1115" y="992"/>
      <point x="1157" y="965"/>
      <point x="1180" y="912" type="curve"/>
      <point x="1248" y="945" type="line"/>
      <point x="1217" y="1013"/>
      <point x="1151" y="1053"/>
      <point x="1055" y="1053" type="curve" smooth="yes"/>
      <point x="941" y="1053"/>
      <point x="858" y="974"/>
      <point x="858" y="883" type="curve" smooth="yes"/>
      <point x="858" y="807"/>
      <point x="889" y="761"/>
      <point x="983" y="698" type="curve" smooth="yes"/>
      <point x="1117" y="609"/>
      <point x="1164" y="513"/>
      <point x="1164" y="351" type="curve" smooth="yes"/>
    </contour>
  </outline>
</glyph>
<glyph name="u_m" format="2">
  <advance width="661"/>
  <unicode hex="1025"/>
  <note>
u_m
</note>
  <outline>
    <contour>
      <point x="296" y="-271" type="curve" smooth="yes"/>
      <point x="403" y="-271" type="line" smooth="yes"/>
      <point x="532" y="-271"/>
      <point x="604" y="-225"/>
      <point x="604" y="-135" type="curve" smooth="yes"/>
      <point x="604" y="-57"/>
      <point x="539" y="-4"/>
      <point x="452" y="-4" type="curve" smooth="yes"/>
      <point x="387" y="-4"/>
      <point x="349" y="-25"/>
      <point x="308" y="-59" type="curve"/>
      <point x="363" y="-106" type="line"/>
      <point x="386" y="-86"/>
      <point x="408" y="-71"/>
      <point x="447" y="-71" type="curve" smooth="yes"/>
      <point x="479" y="-71"/>
      <point x="514" y="-90"/>
      <point x="514" y="-135" type="curve" smooth="yes"/>
      <point x="514" y="-181"/>
      <point x="469" y="-206"/>
      <point x="405" y="-206" type="curve" smooth="yes"/>
      <point x="291" y="-206" type="line" smooth="yes"/>
      <point x="214" y="-206"/>
      <point x="179" y="-165"/>
      <point x="179" y="-93" type="curve" smooth="yes"/>
      <point x="179" y="197" type="line"/>
      <point x="91" y="287" type="line"/>
      <point x="91" y="-83" type="line" smooth="yes"/>
      <point x="91" y="-208"/>
      <point x="161" y="-271"/>
    </contour>
    <contour>
      <point x="333" y="140" type="curve" smooth="yes"/>
      <point x="498" y="140"/>
      <point x="604" y="249"/>
      <point x="604" y="391" type="curve" smooth="yes"/>
      <point x="604" y="537"/>
      <point x="498" y="640"/>
      <point x="333" y="640" type="curve" smooth="yes"/>
      <point x="220" y="640"/>
      <point x="127" y="584"/>
      <point x="91" y="494" type="curve"/>
      <point x="161" y="461" type="line"/>
      <point x="194" y="536"/>
      <point x="256" y="574"/>
      <point x="334" y="574" type="curve" smooth="yes"/>
      <point x="442" y="574"/>
      <point x="513" y="501"/>
      <point x="513" y="392" type="curve" smooth="yes"/>
      <point x="513" y="278"/>
      <point x="444" y="207"/>
      <point x="334" y="207" type="curve" smooth="yes"/>
      <point x="256" y="207"/>
      <point x="194" y="244"/>
      <point x="161" y="319" type="curve"/>
      <point x="91" y="287" type="line"/>
      <point x="165" y="184"/>
      <point x="215" y="140"/>
    </contour>
  </outline>
</glyph>
<glyph name="e_m" format="2">
  <advance width="631"/>
  <unicode hex="1027"/>
  <note>
e_m
</note>
  <outline>
    <contour>
      <point x="326" y="140" type="curve" smooth="yes"/>
      <point x="450" y="140"/>
      <point x="537" y="199"/>
      <point x="576" y="288" type="curve"/>
      <point x="510" y="327"/>
      <point x="429" y="360"/>
      <point x="341" y="360" type="curve" smooth="yes"/>
      <point x="261" y="360"/>
      <point x="203" y="338"/>
      <point x="160" y="310" type="curve"/>
      <point x="152" y="330"/>
      <point x="146" y="361"/>
      <point x="146" y="388" type="curve" smooth="yes"/>
      <point x="146" y="420"/>
      <point x="150" y="450"/>
      <point x="160" y="470" type="curve"/>
      <point x="203" y="442"/>
      <point x="261" y="421"/>
      <point x="341" y="421" type="curve" smooth="yes"/>
      <point x="429" y="421"/>
      <point x="510" y="453"/>
      <point x="576" y="493" type="curve"/>
      <point x="537" y="582"/>
      <point x="450" y="640"/>
      <point x="326" y="640" type="curve" smooth="yes"/>
      <point x="161" y="640"/>
      <point x="55" y="536"/>
      <point x="55" y="389" type="curve" smooth="yes"/>
      <point x="55" y="246"/>
      <point x="160" y="140"/>
    </contour>
    <contour>
      <point x="325" y="207" type="curve" smooth="yes"/>
      <point x="257" y="207"/>
      <point x="218" y="226"/>
      <point x="194" y="254" type="curve"/>
      <point x="229" y="280"/>
      <point x="270" y="297"/>
      <point x="344" y="297" type="curve" smooth="yes"/>
      <point x="384" y="297"/>
      <point x="434" y="287"/>
      <point x="477" y="262" type="curve"/>
      <point x="443" y="225"/>
      <point x="392" y="207"/>
    </contour>
    <contour>
      <point x="344" y="484" type="curve" smooth="yes"/>
      <point x="270" y="484"/>
      <point x="229" y="502"/>
      <point x="194" y="526" type="curve"/>
      <point x="218" y="554"/>
      <point x="257" y="574"/>
      <point x="325" y="574" type="curve" smooth="yes"/>
      <point x="392" y="574"/>
      <point x="443" y="556"/>
      <point x="477" y="518" type="curve"/>
      <point x="434" y="494"/>
      <point x="384" y="484"/>
    </contour>
  </outline>
</glyph>
<glyph name="e_mon" format="2">
  <advance width="687"/>
  <unicode hex="1028"/>
  <note>
e_mon
</note>
  <outline>
    <contour>
      <point x="356" y="-271" type="curve" smooth="yes"/>
      <point x="526" y="-271"/>
      <point x="632" y="-160"/>
      <point x="632" y="-35" type="curve" smooth="yes"/>
      <point x="632" y="-31" type="line"/>
      <point x="547" y="-31" type="line"/>
      <point x="547" y="-35" type="line" smooth="yes"/>
      <point x="547" y="-129"/>
      <point x="474" y="-211"/>
      <point x="361" y="-211" type="curve" smooth="yes"/>
      <point x="247" y="-211"/>
      <point x="176" y="-135"/>
      <point x="176" y="-10" type="curve" smooth="yes"/>
      <point x="176" y="379" type="line" smooth="yes"/>
      <point x="176" y="503"/>
      <point x="246" y="580"/>
      <point x="362" y="580" type="curve" smooth="yes"/>
      <point x="475" y="580"/>
      <point x="547" y="505"/>
      <point x="547" y="393" type="curve" smooth="yes"/>
      <point x="547" y="312"/>
      <point x="498" y="203"/>
      <point x="422" y="203" type="curve" smooth="yes"/>
      <point x="406" y="203"/>
      <point x="400" y="213"/>
      <point x="400" y="225" type="curve" smooth="yes"/>
      <point x="400" y="237"/>
      <point x="407" y="252"/>
      <point x="422" y="268" type="curve" smooth="yes"/>
      <point x="452" y="299"/>
      <point x="471" y="331"/>
      <point x="471" y="364" type="curve" smooth="yes"/>
      <point x="471" y="421"/>
      <point x="426" y="458"/>
      <point x="364" y="458" type="curve" smooth="yes"/>
      <point x="304" y="458"/>
      <point x="275" y="426"/>
      <point x="248" y="376" type="curve"/>
      <point x="305" y="350" type="line"/>
      <point x="319" y="379"/>
      <point x="334" y="395"/>
      <point x="358" y="395" type="curve" smooth="yes"/>
      <point x="381" y="395"/>
      <point x="391" y="379"/>
      <point x="391" y="361" type="curve" smooth="yes"/>
      <point x="391" y="345"/>
      <point x="383" y="330"/>
      <point x="367" y="315" type="curve" smooth="yes"/>
      <point x="335" y="284"/>
      <point x="320" y="259"/>
      <point x="320" y="223" type="curve" smooth="yes"/>
      <point x="320" y="170"/>
      <point x="366" y="140"/>
      <point x="418" y="140" type="curve" smooth="yes"/>
      <point x="545" y="140"/>
      <point x="632" y="272"/>
      <point x="632" y="390" type="curve" smooth="yes"/>
      <point x="632" y="536"/>
      <point x="525" y="640"/>
      <point x="356" y="640" type="curve" smooth="yes"/>
      <point x="192" y="640"/>
      <point x="91" y="529"/>
      <point x="91" y="378" type="curve" smooth="yes"/>
      <point x="91" y="-9" type="line" smooth="yes"/>
      <point x="91" y="-166"/>
      <point x="194" y="-271"/>
    </contour>
  </outline>
</glyph>
<glyph name="o_m" format="2">
  <advance width="1369"/>
  <unicode hex="1029"/>
  <note>
o_m
</note>
  <outline>
    <contour>
      <point x="296" y="-271" type="curve" smooth="yes"/>
      <point x="1068" y="-271" type="line" smooth="yes"/>
      <point x="1205" y="-271"/>
      <point x="1273" y="-207"/>
      <point x="1273" y="-79" type="curve" smooth="yes"/>
      <point x="1273" y="299" type="line"/>
      <point x="1184" y="198" type="line"/>
      <point x="1184" y="-93" type="line" smooth="yes"/>
      <point x="1184" y="-165"/>
      <point x="1149" y="-206"/>
      <point x="1072" y="-206" type="curve" smooth="yes"/>
      <point x="292" y="-206" type="line" smooth="yes"/>
      <point x="214" y="-206"/>
      <point x="180" y="-165"/>
      <point x="180" y="-93" type="curve" smooth="yes"/>
      <point x="180" y="874" type="line" smooth="yes"/>
      <point x="180" y="946"/>
      <point x="214" y="986"/>
      <point x="292" y="986" type="curve" smooth="yes"/>
      <point x="1072" y="986" type="line" smooth="yes"/>
      <point x="1149" y="986"/>
      <point x="1184" y="946"/>
      <point x="1184" y="874" type="curve" smooth="yes"/>
      <point x="1184" y="833" type="line"/>
      <point x="1273" y="833" type="line"/>
      <point x="1273" y="859" type="line" smooth="yes"/>
      <point x="1273" y="988"/>
      <point x="1205" y="1052"/>
      <point x="1068" y="1052" type="curve" smooth="yes"/>
      <point x="296" y="1052" type="line" smooth="yes"/>
      <point x="159" y="1052"/>
      <point x="91" y="988"/>
      <point x="91" y="859" type="curve" smooth="yes"/>
      <point x="91" y="-79" type="line" smooth="yes"/>
      <point x="91" y="-207"/>
      <point x="159" y="-271"/>
    </contour>
    <contour>
      <point x="559" y="140" type="curve" smooth="yes"/>
      <point x="734" y="140"/>
      <point x="833" y="262"/>
      <point x="833" y="395" type="curve" smooth="yes"/>
      <point x="833" y="534"/>
      <point x="723" y="640"/>
      <point x="558" y="640" type="curve" smooth="yes"/>
      <point x="439" y="640"/>
      <point x="348" y="583"/>
      <point x="314" y="494" type="curve"/>
      <point x="384" y="461" type="line"/>
      <point x="416" y="536"/>
      <point x="475" y="574"/>
      <point x="560" y="574" type="curve" smooth="yes"/>
      <point x="666" y="574"/>
      <point x="742" y="501"/>
      <point x="742" y="392" type="curve" smooth="yes"/>
      <point x="742" y="288"/>
      <point x="667" y="207"/>
      <point x="560" y="207" type="curve" smooth="yes"/>
      <point x="475" y="207"/>
      <point x="416" y="244"/>
      <point x="384" y="319" type="curve"/>
      <point x="314" y="287" type="line"/>
      <point x="348" y="199"/>
      <point x="439" y="140"/>
    </contour>
    <contour>
      <point x="1007" y="140" type="curve" smooth="yes"/>
      <point x="1177" y="140"/>
      <point x="1296" y="243"/>
      <point x="1296" y="390" type="curve" smooth="yes"/>
      <point x="1296" y="542"/>
      <point x="1184" y="640"/>
      <point x="1028" y="640" type="curve" smooth="yes"/>
      <point x="969" y="640"/>
      <point x="928" y="634"/>
      <point x="892" y="617" type="curve"/>
      <point x="924" y="558" type="line"/>
      <point x="948" y="568"/>
      <point x="978" y="574"/>
      <point x="1014" y="574" type="curve" smooth="yes"/>
      <point x="1130" y="574"/>
      <point x="1205" y="502"/>
      <point x="1205" y="392" type="curve" smooth="yes"/>
      <point x="1205" y="283"/>
      <point x="1130" y="208"/>
      <point x="1010" y="208" type="curve" smooth="yes"/>
      <point x="916" y="208"/>
      <point x="859" y="265"/>
      <point x="815" y="338" type="curve"/>
      <point x="778" y="259" type="line"/>
      <point x="832" y="181"/>
      <point x="909" y="140"/>
    </contour>
  </outline>
</glyph>
<glyph name="_tall_aa" format="2">
  <advance width="267"/>
  <unicode hex="102B"/>
  <note>
_tall_aa
</note>
  <outline>
    <contour>
      <point x="91" y="149" type="line"/>
      <point x="176" y="149" type="line"/>
      <point x="176" y="838" type="line" smooth="yes"/>
      <point x="176" y="972"/>
      <point x="101" y="1052"/>
      <point x="-29" y="1052" type="curve" smooth="yes"/>
      <point x="-152" y="1052"/>
      <point x="-234" y="975"/>
      <point x="-234" y="856" type="curve" smooth="yes"/>
      <point x="-234" y="843" type="line"/>
      <point x="-149" y="843" type="line"/>
      <point x="-149" y="857" type="line" smooth="yes"/>
      <point x="-149" y="947"/>
      <point x="-101" y="991"/>
      <point x="-29" y="991" type="curve" smooth="yes"/>
      <point x="53" y="991"/>
      <point x="91" y="937"/>
      <point x="91" y="851" type="curve" smooth="yes"/>
    </contour>
  </outline>
</glyph>
<glyph name="_aa" format="2">
  <advance width="460"/>
  <unicode hex="102C"/>
  <note>
_aa
</note>
  <outline>
    <contour>
      <point x="151" y="140" type="curve" smooth="yes"/>
      <point x="295" y="140"/>
      <point x="406" y="245"/>
      <point x="406" y="392" type="curve" smooth="yes"/>
      <point x="406" y="533"/>
      <point x="284" y="640"/>
      <point x="116" y="640" type="curve" smooth="yes"/>
      <point x="-4" y="640"/>
      <point x="-88" y="592"/>
      <point x="-160" y="516" type="curve"/>
      <point x="-108" y="467" type="line"/>
      <point x="-36" y="542"/>
      <point x="40" y="575"/>
      <point x="117" y="575" type="curve" smooth="yes"/>
      <point x="237" y="575"/>
      <point x="314" y="498"/>
      <point x="314" y="393" type="curve" smooth="yes"/>
      <point x="314" y="280"/>
      <point x="247" y="207"/>
      <point x="137" y="207" type="curve" smooth="yes"/>
      <point x="100" y="207"/>
      <point x="70" y="212"/>
      <point x="45" y="223" type="curve"/>
      <point x="13" y="163" type="line"/>
      <point x="50" y="146"/>
      <point x="91" y="140"/>
    </contour>
  </outline>
</glyph>
<glyph name="_i" format="2">
  <unicode hex="102D"/>
  <note>
_i
</note>
  <outline>
    <contour>
      <point x="-306" y="712" type="curve" smooth="yes"/>
      <point x="-193" y="712"/>
      <point x="-120" y="784"/>
      <point x="-120" y="878" type="curve" smooth="yes"/>
      <point x="-120" y="973"/>
      <point x="-189" y="1051"/>
      <point x="-304" y="1051" type="curve" smooth="yes"/>
      <point x="-416" y="1051"/>
      <point x="-487" y="975"/>
      <point x="-487" y="882" type="curve" smooth="yes"/>
      <point x="-487" y="786"/>
      <point x="-415" y="712"/>
    </contour>
    <contour>
      <point x="-303" y="773" type="curve" smooth="yes"/>
      <point x="-367" y="773"/>
      <point x="-407" y="819"/>
      <point x="-407" y="880" type="curve" smooth="yes"/>
      <point x="-407" y="944"/>
      <point x="-368" y="991"/>
      <point x="-303" y="991" type="curve" smooth="yes"/>
      <point x="-239" y="991"/>
      <point x="-200" y="941"/>
      <point x="-200" y="876" type="curve" smooth="yes"/>
      <point x="-200" y="817"/>
      <point x="-243" y="773"/>
    </contour>
  </outline>
</glyph>
<glyph name="_ii" format="2">
  <unicode hex="102E"/>
  <note>
_ii
</note>
  <outline>
    <contour>
      <point x="-306" y="712" type="curve" smooth="yes"/>
      <point x="-193" y="712"/>
      <point x="-120" y="784"/>
      <point x="-120" y="878" type="curve" smooth="yes"/>
      <point x="-120" y="973"/>
      <point x="-189" y="1051"/>
      <point x="-304" y="1051" type="curve" smooth="yes"/>
      <point x="-416" y="1051"/>
      <point x="-487" y="975"/>
      <point x="-487" y="882" type="curve" smooth="yes"/>
      <point x="-487" y="786"/>
      <point x="-415" y="712"/>
    </contour>
    <contour>
      <point x="-303" y="773" type="curve" smooth="yes"/>
      <point x="-365" y="773"/>
      <point x="-407" y="817"/>
      <point x="-407" y="880" type="curve" smooth="yes"/>
      <point x="-407" y="944"/>
      <point x="-368" y="991"/>
      <point x="-303" y="991" type="curve" smooth="yes"/>
      <point x="-239" y="991"/>
      <point x="-200" y="941"/>
      <point x="-200" y="876" type="curve" smooth="yes"/>
      <point x="-200" y="821"/>
      <point x="-239" y="773"/>
    </contour>
    <contour>
      <point x="-402" y="804" type="line"/>
      <point x="-370" y="829"/>
      <point x="-339" y="845"/>
      <point x="-303" y="845" type="curve" smooth="yes"/>
      <point x="-266" y="845"/>
      <point x="-234" y="829"/>
      <point x="-206" y="805" type="curve"/>
      <point x="-189" y="859" type="line"/>
      <point x="-219" y="887"/>
      <point x="-254" y="903"/>
      <point x="-303" y="903" type="curve" smooth="yes"/>
      <point x="-352" y="903"/>
      <point x="-389" y="884"/>
      <point x="-416" y="859" type="curve"/>
    </contour>
  </outline>
</glyph>
<glyph name="_u" format="2">
  <unicode hex="102F"/>
  <note>
_u
</note>
  <outline>
    <contour>
      <point x="-368" y="-271" type="line"/>
      <point x="-154" y="-271" type="line"/>
      <point x="-154" y="-210" type="line"/>
      <point x="-279" y="-210" type="line"/>
      <point x="-279" y="105" type="line"/>
      <point x="-368" y="105" type="line"/>
    </contour>
  </outline>
</glyph>
<glyph name="_uu" format="2">
  <unicode hex="1030"/>
  <note>
_uu
</note>
  <outline>
    <contour>
      <point x="-287" y="-271" type="line"/>
      <point x="-74" y="-271" type="line"/>
      <point x="-74" y="-210" type="line"/>
      <point x="-199" y="-210" type="line"/>
      <point x="-199" y="105" type="line"/>
      <point x="-287" y="105" type="line"/>
    </contour>
    <contour>
      <point x="-448" y="-271" type="line"/>
      <point x="-360" y="-271" type="line"/>
      <point x="-360" y="105" type="line"/>
      <point x="-448" y="105" type="line"/>
    </contour>
  </outline>
</glyph>
<glyph name="_e" format="2">
  <advance width="618"/>
  <unicode hex="1031"/>
  <note>
_e
</note>
  <outline>
    <contour>
      <point x="326" y="140" type="curve" smooth="yes"/>
      <point x="459" y="140"/>
      <point x="550" y="207"/>
      <point x="576" y="313" type="curve"/>
      <point x="500" y="368"/>
      <point x="436" y="391"/>
      <point x="342" y="391" type="curve" smooth="yes"/>
      <point x="271" y="391"/>
      <point x="195" y="363"/>
      <point x="141" y="322" type="curve"/>
      <point x="170" y="261" type="line"/>
      <point x="216" y="298"/>
      <point x="278" y="325"/>
      <point x="345" y="325" type="curve" smooth="yes"/>
      <point x="410" y="325"/>
      <point x="449" y="308"/>
      <point x="481" y="288" type="curve"/>
      <point x="451" y="234"/>
      <point x="403" y="207"/>
      <point x="323" y="207" type="curve" smooth="yes"/>
      <point x="198" y="207"/>
      <point x="143" y="301"/>
      <point x="143" y="392" type="curve" smooth="yes"/>
      <point x="143" y="502"/>
      <point x="224" y="574"/>
      <point x="324" y="574" type="curve" smooth="yes"/>
      <point x="414" y="574"/>
      <point x="469" y="536"/>
      <point x="498" y="461" type="curve"/>
      <point x="568" y="494" type="line"/>
      <point x="537" y="581"/>
      <point x="453" y="640"/>
      <point x="326" y="640" type="curve" smooth="yes"/>
      <point x="167" y="640"/>
      <point x="52" y="532"/>
      <point x="52" y="391" type="curve" smooth="yes"/>
      <point x="52" y="251"/>
      <point x="165" y="140"/>
    </contour>
  </outline>
</glyph>
<glyph name="_ai" format="2">
  <unicode hex="1032"/>
  <note>
_ai
</note>
  <outline>
    <contour>
      <point x="-196" y="695" type="line"/>
      <point x="-147" y="747" type="line"/>
      <point x="-345" y="921" type="line"/>
      <point x="-396" y="872" type="line"/>
    </contour>
  </outline>
</glyph>
<glyph name="_ii_mon" format="2">
  <unicode hex="1033"/>
  <note>
_ii_mon
</note>
  <outline>
    <contour>
      <point x="-320" y="712" type="curve" smooth="yes"/>
      <point x="-206" y="712"/>
      <point x="-120" y="782"/>
      <point x="-120" y="882" type="curve" smooth="yes"/>
      <point x="-120" y="978"/>
      <point x="-207" y="1051"/>
      <point x="-320" y="1051" type="curve" smooth="yes"/>
      <point x="-435" y="1051"/>
      <point x="-520" y="976"/>
      <point x="-520" y="882" type="curve" smooth="yes"/>
      <point x="-520" y="784"/>
      <point x="-437" y="712"/>
    </contour>
    <contour>
      <point x="-320" y="763" type="curve" smooth="yes"/>
      <point x="-398" y="763"/>
      <point x="-453" y="811"/>
      <point x="-453" y="882" type="curve" smooth="yes"/>
      <point x="-453" y="952"/>
      <point x="-394" y="1001"/>
      <point x="-320" y="1001" type="curve" smooth="yes"/>
      <point x="-246" y="1001"/>
      <point x="-187" y="950"/>
      <point x="-187" y="882" type="curve" smooth="yes"/>
      <point x="-187" y="810"/>
      <point x="-243" y="763"/>
    </contour>
    <contour>
      <point x="-320" y="802" type="curve" smooth="yes"/>
      <point x="-270" y="802"/>
      <point x="-231" y="835"/>
      <point x="-231" y="882" type="curve" smooth="yes"/>
      <point x="-231" y="928"/>
      <point x="-270" y="962"/>
      <point x="-320" y="962" type="curve" smooth="yes"/>
      <point x="-371" y="962"/>
      <point x="-409" y="928"/>
      <point x="-409" y="882" type="curve" smooth="yes"/>
      <point x="-409" y="836"/>
      <point x="-371" y="802"/>
    </contour>
    <contour>
      <point x="-321" y="843" type="curve" smooth="yes"/>
      <point x="-346" y="843"/>
      <point x="-363" y="859"/>
      <point x="-363" y="882" type="curve" smooth="yes"/>
      <point x="-363" y="906"/>
      <point x="-344" y="921"/>
      <point x="-321" y="921" type="curve" smooth="yes"/>
      <point x="-295" y="921"/>
      <point x="-277" y="906"/>
      <point x="-277" y="882" type="curve" smooth="yes"/>
      <point x="-277" y="859"/>
      <point x="-294" y="843"/>
    </contour>
  </outline>
</glyph>
<glyph name="_o_mon" format="2">
  <unicode hex="1034"/>
  <note>
_o_mon
</note>
  <outline>
    <contour>
      <point x="-410" y="695" type="line"/>
      <point x="-213" y="872" type="line"/>
      <point x="-263" y="921" type="line"/>
      <point x="-459" y="747" type="line"/>
    </contour>
  </outline>
</glyph>
<glyph name="_e_above" format="2">
  <unicode hex="1035"/>
  <note>
_e_above
</note>
  <outline>
    <contour>
      <point x="-300" y="712" type="curve" smooth="yes"/>
      <point x="-216" y="712"/>
      <point x="-148" y="758"/>
      <point x="-125" y="832" type="curve"/>
      <point x="-163" y="870"/>
      <point x="-219" y="902"/>
      <point x="-295" y="902" type="curve" smooth="yes"/>
      <point x="-348" y="902"/>
      <point x="-386" y="886"/>
      <point x="-419" y="860" type="curve"/>
      <point x="-400" y="802" type="line"/>
      <point x="-370" y="832"/>
      <point x="-334" y="843"/>
      <point x="-298" y="843" type="curve" smooth="yes"/>
      <point x="-265" y="843"/>
      <point x="-237" y="833"/>
      <point x="-214" y="818" type="curve"/>
      <point x="-234" y="790"/>
      <point x="-264" y="773"/>
      <point x="-303" y="773" type="curve" smooth="yes"/>
      <point x="-369" y="773"/>
      <point x="-407" y="819"/>
      <point x="-407" y="882" type="curve" smooth="yes"/>
      <point x="-407" y="943"/>
      <point x="-367" y="991"/>
      <point x="-295" y="991" type="curve" smooth="yes"/>
      <point x="-250" y="991"/>
      <point x="-209" y="966"/>
      <point x="-194" y="930" type="curve"/>
      <point x="-130" y="960" type="line"/>
      <point x="-155" y="1018"/>
      <point x="-224" y="1051"/>
      <point x="-291" y="1051" type="curve" smooth="yes"/>
      <point x="-412" y="1051"/>
      <point x="-487" y="979"/>
      <point x="-487" y="882" type="curve" smooth="yes"/>
      <point x="-487" y="785"/>
      <point x="-419" y="712"/>
    </contour>
  </outline>
</glyph>
<glyph name="anusvara" format="2">
  <unicode hex="1036"/>
  <note>
anusvara
</note>
  <outline>
    <contour>
      <point x="-324" y="714" type="curve" smooth="yes"/>
      <point x="-260" y="714"/>
      <point x="-213" y="749"/>
      <point x="-213" y="811" type="curve" smooth="yes"/>
      <point x="-213" y="870"/>
      <point x="-260" y="905"/>
      <point x="-324" y="905" type="curve" smooth="yes"/>
      <point x="-389" y="905"/>
      <point x="-433" y="870"/>
      <point x="-433" y="810" type="curve" smooth="yes"/>
      <point x="-433" y="748"/>
      <point x="-389" y="714"/>
    </contour>
    <contour>
      <point x="-323" y="762" type="curve" smooth="yes"/>
      <point x="-358" y="762"/>
      <point x="-376" y="780"/>
      <point x="-376" y="810" type="curve" smooth="yes"/>
      <point x="-376" y="839"/>
      <point x="-354" y="857"/>
      <point x="-323" y="857" type="curve" smooth="yes"/>
      <point x="-292" y="857"/>
      <point x="-270" y="839"/>
      <point x="-270" y="810" type="curve" smooth="yes"/>
      <point x="-270" y="780"/>
      <point x="-292" y="762"/>
    </contour>
  </outline>
</glyph>
<glyph name="dot_below" format="2">
  <unicode hex="1037"/>
  <note>
dot_below
</note>
  <outline>
    <contour>
      <point x="-324" y="-141" type="curve" smooth="yes"/>
      <point x="-260" y="-141"/>
      <point x="-213" y="-106"/>
      <point x="-213" y="-45" type="curve" smooth="yes"/>
      <point x="-213" y="14"/>
      <point x="-260" y="50"/>
      <point x="-324" y="50" type="curve" smooth="yes"/>
      <point x="-389" y="50"/>
      <point x="-433" y="15"/>
      <point x="-433" y="-45" type="curve" smooth="yes"/>
      <point x="-433" y="-107"/>
      <point x="-389" y="-141"/>
    </contour>
    <contour>
      <point x="-323" y="-93" type="curve" smooth="yes"/>
      <point x="-358" y="-93"/>
      <point x="-376" y="-76"/>
      <point x="-376" y="-45" type="curve" smooth="yes"/>
      <point x="-376" y="-16"/>
      <point x="-354" y="2"/>
      <point x="-323" y="2" type="curve" smooth="yes"/>
      <point x="-292" y="2"/>
      <point x="-270" y="-16"/>
      <point x="-270" y="-45" type="curve" smooth="yes"/>
      <point x="-270" y="-76"/>
      <point x="-292" y="-93"/>
    </contour>
  </outline>
</glyph>
<glyph name="visarga" format="2">
  <advance width="346"/>
  <unicode hex="1038"/>
  <note>
visarga
</note>
  <outline>
    <contour>
      <point x="172" y="441" type="curve" smooth="yes"/>
      <point x="236" y="441"/>
      <point x="283" y="476"/>
      <point x="283" y="537" type="curve" smooth="yes"/>
      <point x="283" y="595"/>
      <point x="236" y="631"/>
      <point x="172" y="631" type="curve" smooth="yes"/>
      <point x="107" y="631"/>
      <point x="63" y="596"/>
      <point x="63" y="536" type="curve" smooth="yes"/>
      <point x="63" y="475"/>
      <point x="107" y="441"/>
    </contour>
    <contour>
      <point x="172" y="139" type="curve" smooth="yes"/>
      <point x="236" y="139"/>
      <point x="283" y="174"/>
      <point x="283" y="235" type="curve" smooth="yes"/>
      <point x="283" y="294"/>
      <point x="236" y="330"/>
      <point x="172" y="330" type="curve" smooth="yes"/>
      <point x="107" y="330"/>
      <point x="63" y="295"/>
      <point x="63" y="235" type="curve" smooth="yes"/>
      <point x="63" y="173"/>
      <point x="107" y="139"/>
    </contour>
    <contour>
      <point x="173" y="187" type="curve" smooth="yes"/>
      <point x="138" y="187"/>
      <point x="120" y="205"/>
      <point x="120" y="235" type="curve" smooth="yes"/>
      <point x="120" y="264"/>
      <point x="142" y="282"/>
      <point x="173" y="282" type="curve" smooth="yes"/>
      <point x="204" y="282"/>
      <point x="226" y="264"/>
      <point x="226" y="235" type="curve" smooth="yes"/>
      <point x="226" y="205"/>
      <point x="204" y="187"/>
    </contour>
    <contour>
      <point x="173" y="488" type="curve" smooth="yes"/>
      <point x="138" y="488"/>
      <point x="120" y="505"/>
      <point x="120" y="536" type="curve" smooth="yes"/>
      <point x="120" y="566"/>
      <point x="142" y="584"/>
      <point x="173" y="584" type="curve" smooth="yes"/>
      <point x="204" y="584"/>
      <point x="226" y="566"/>
      <point x="226" y="536" type="curve" smooth="yes"/>
      <point x="226" y="505"/>
      <point x="204" y="488"/>
    </contour>
  </outline>
</glyph>
<glyph name="virama" format="2">
  <unicode hex="1039"/>
  <note>
virama
</note>
  <outline>
    <contour>
      <point x="-353" y="-225" type="line"/>
      <point x="-279" y="-225" type="line"/>
      <point x="-279" y="-113" type="line"/>
      <point x="-154" y="-113" type="line"/>
      <point x="-154" y="-52" type="line"/>
      <point x="-279" y="-52" type="line"/>
      <point x="-279" y="61" type="line"/>
      <point x="-353" y="61" type="line"/>
      <point x="-353" y="-52" type="line"/>
      <point x="-478" y="-52" type="line"/>
      <point x="-478" y="-113" type="line"/>
      <point x="-353" y="-113" type="line"/>
    </contour>
  </outline>
</glyph>
<glyph name="asat" format="2">
  <unicode hex="103A"/>
  <note>
asat
</note>
  <outline>
    <contour>
      <point x="-371" y="712" type="curve"/>
      <point x="-327" y="759" type="line"/>
      <point x="-367" y="784"/>
      <point x="-406" y="823"/>
      <point x="-406" y="886" type="curve" smooth="yes"/>
      <point x="-406" y="944"/>
      <point x="-368" y="991"/>
      <point x="-303" y="991" type="curve" smooth="yes"/>
      <point x="-262" y="991"/>
      <point x="-228" y="971"/>
      <point x="-206" y="938" type="curve"/>
      <point x="-149" y="978" type="line"/>
      <point x="-180" y="1025"/>
      <point x="-236" y="1051"/>
      <point x="-304" y="1051" type="curve" smooth="yes"/>
      <point x="-408" y="1051"/>
      <point x="-486" y="988"/>
      <point x="-486" y="886" type="curve" smooth="yes"/>
      <point x="-486" y="807"/>
      <point x="-439" y="746"/>
    </contour>
  </outline>
</glyph>
<glyph name="medial_ya" format="2">
  <advance width="257"/>
  <unicode hex="103B"/>
  <note>
medial_ya
</note>
  <outline>
    <contour>
      <point x="176" y="-271" type="line"/>
      <point x="176" y="631" type="line"/>
      <point x="91" y="631" type="line"/>
      <point x="91" y="-180" type="line"/>
      <point x="-80" y="-124" type="line"/>
      <point x="-80" y="287" type="line"/>
      <point x="-165" y="287" type="line"/>
      <point x="-165" y="-162" type="line"/>
    </contour>
  </outline>
</glyph>
<glyph name="medial_ra" format="2">
  <advance width="229"/>
  <unicode hex="103C"/>
  <note>
medial_ra
</note>
  <outline>
    <contour>
      <point x="296" y="-270" type="curve" smooth="yes"/>
      <point x="618" y="-270" type="line" smooth="yes"/>
      <point x="755" y="-270"/>
      <point x="824" y="-207"/>
      <point x="824" y="-78" type="curve" smooth="yes"/>
      <point x="824" y="287" type="line"/>
      <point x="735" y="287" type="line"/>
      <point x="735" y="-92" type="line" smooth="yes"/>
      <point x="735" y="-164"/>
      <point x="699" y="-206"/>
      <point x="623" y="-206" type="curve" smooth="yes"/>
      <point x="292" y="-206" type="line" smooth="yes"/>
      <point x="214" y="-206"/>
      <point x="181" y="-164"/>
      <point x="181" y="-92" type="curve" smooth="yes"/>
      <point x="181" y="874" type="line" smooth="yes"/>
      <point x="181" y="946"/>
      <point x="214" y="987"/>
      <point x="292" y="987" type="curve" smooth="yes"/>
      <point x="623" y="987" type="line" smooth="yes"/>
      <point x="699" y="987"/>
      <point x="735" y="946"/>
      <point x="735" y="874" type="curve" smooth="yes"/>
      <point x="735" y="833" type="line"/>
      <point x="824" y="833" type="line"/>
      <point x="824" y="859" type="line" smooth="yes"/>
      <point x="824" y="988"/>
      <point x="755" y="1052"/>
      <point x="618" y="1052" type="curve" smooth="yes"/>
      <point x="296" y="1052" type="line" smooth="yes"/>
      <point x="159" y="1052"/>
      <point x="91" y="988"/>
      <point x="91" y="859" type="curve" smooth="yes"/>
      <point x="91" y="-78" type="line" smooth="yes"/>
      <point x="91" y="-207"/>
      <point x="159" y="-270"/>
    </contour>
  </outline>
</glyph>
<glyph name="medial_wa" format="2">
  <unicode hex="103D"/>
  <note>
medial_wa
</note>
  <outline>
    <contour>
      <point x="-328" y="-234" type="curve" smooth="yes"/>
      <point x="-212" y="-234"/>
      <point x="-142" y="-157"/>
      <point x="-142" y="-68" type="curve" smooth="yes"/>
      <point x="-142" y="27"/>
      <point x="-210" y="105"/>
      <point x="-326" y="105" type="curve" smooth="yes"/>
      <point x="-438" y="105"/>
      <point x="-509" y="32"/>
      <point x="-509" y="-64" type="curve" smooth="yes"/>
      <point x="-509" y="-161"/>
      <point x="-438" y="-234"/>
    </contour>
    <contour>
      <point x="-325" y="-172" type="curve" smooth="yes"/>
      <point x="-389" y="-172"/>
      <point x="-430" y="-127"/>
      <point x="-430" y="-67" type="curve" smooth="yes"/>
      <point x="-430" y="-2"/>
      <point x="-390" y="44"/>
      <point x="-325" y="44" type="curve" smooth="yes"/>
      <point x="-261" y="44"/>
      <point x="-222" y="-4"/>
      <point x="-222" y="-69" type="curve" smooth="yes"/>
      <point x="-222" y="-129"/>
      <point x="-265" y="-172"/>
    </contour>
  </outline>
</glyph>
<glyph name="great_sa" format="2">
  <advance width="1584"/>
  <unicode hex="103F"/>
  <note>
great_sa
</note>
  <outline>
    <contour>
      <point x="305" y="140" type="curve" smooth="yes"/>
      <point x="490" y="140"/>
      <point x="589" y="262"/>
      <point x="589" y="395" type="curve" smooth="yes"/>
      <point x="589" y="534"/>
      <point x="479" y="640"/>
      <point x="304" y="640" type="curve" smooth="yes"/>
      <point x="186" y="640"/>
      <point x="87" y="583"/>
      <point x="50" y="494" type="curve"/>
      <point x="120" y="461" type="line"/>
      <point x="156" y="536"/>
      <point x="222" y="574"/>
      <point x="306" y="574" type="curve" smooth="yes"/>
      <point x="422" y="574"/>
      <point x="498" y="501"/>
      <point x="498" y="392" type="curve" smooth="yes"/>
      <point x="498" y="288"/>
      <point x="423" y="207"/>
      <point x="306" y="207" type="curve" smooth="yes"/>
      <point x="222" y="207"/>
      <point x="156" y="244"/>
      <point x="120" y="319" type="curve"/>
      <point x="50" y="287" type="line"/>
      <point x="87" y="199"/>
      <point x="186" y="140"/>
    </contour>
    <contour>
      <point x="769" y="140" type="curve" smooth="yes"/>
      <point x="939" y="140"/>
      <point x="1058" y="243"/>
      <point x="1058" y="390" type="curve" smooth="yes"/>
      <point x="1058" y="542"/>
      <point x="946" y="640"/>
      <point x="790" y="640" type="curve" smooth="yes"/>
      <point x="727" y="640"/>
      <point x="683" y="634"/>
      <point x="644" y="617" type="curve"/>
      <point x="676" y="558" type="line"/>
      <point x="703" y="568"/>
      <point x="736" y="574"/>
      <point x="776" y="574" type="curve" smooth="yes"/>
      <point x="892" y="574"/>
      <point x="967" y="502"/>
      <point x="967" y="392" type="curve" smooth="yes"/>
      <point x="967" y="283"/>
      <point x="892" y="208"/>
      <point x="772" y="208" type="curve" smooth="yes"/>
      <point x="668" y="208"/>
      <point x="606" y="265"/>
      <point x="557" y="338" type="curve"/>
      <point x="520" y="259" type="line"/>
      <point x="574" y="181"/>
      <point x="662" y="140"/>
    </contour>
    <contour>
      <point x="1240" y="140" type="curve" smooth="yes"/>
      <point x="1410" y="140"/>
      <point x="1529" y="243"/>
      <point x="1529" y="390" type="curve" smooth="yes"/>
      <point x="1529" y="542"/>
      <point x="1417" y="640"/>
      <point x="1261" y="640" type="curve" smooth="yes"/>
      <point x="1198" y="640"/>
      <point x="1154" y="634"/>
      <point x="1115" y="617" type="curve"/>
      <point x="1147" y="558" type="line"/>
      <point x="1174" y="568"/>
      <point x="1207" y="574"/>
      <point x="1247" y="574" type="curve" smooth="yes"/>
      <point x="1363" y="574"/>
      <point x="1438" y="502"/>
      <point x="1438" y="392" type="curve" smooth="yes"/>
      <point x="1438" y="283"/>
      <point x="1363" y="208"/>
      <point x="1243" y="208" type="curve" smooth="yes"/>
      <point x="1139" y="208"/>
      <point x="1077" y="265"/>
      <point x="1028" y="338" type="curve"/>
      <point x="991" y="259" type="line"/>
      <point x="1045" y="181"/>
      <point x="1133" y="140"/>
    </contour>
  </outline>
</glyph>
<glyph name="zero_m" format="2">
  <advance width="652"/>
  <unicode hex="1040"/>
  <note>
zero_m
</note>
  <outline>
    <contour>
      <point x="323" y="140" type="curve" smooth="yes"/>
      <point x="493" y="140"/>
      <point x="597" y="252"/>
      <point x="597" y="390" type="curve" smooth="yes"/>
      <point x="597" y="531"/>
      <point x="493" y="640"/>
      <point x="326" y="640" type="curve" smooth="yes"/>
      <point x="159" y="640"/>
      <point x="55" y="531"/>
      <point x="55" y="390" type="curve" smooth="yes"/>
      <point x="55" y="246"/>
      <point x="161" y="140"/>
    </contour>
    <contour>
      <point x="326" y="207" type="curve" smooth="yes"/>
      <point x="221" y="207"/>
      <point x="146" y="278"/>
      <point x="146" y="388" type="curve" smooth="yes"/>
      <point x="146" y="500"/>
      <point x="216" y="574"/>
      <point x="327" y="574" type="curve" smooth="yes"/>
      <point x="437" y="574"/>
      <point x="506" y="499"/>
      <point x="506" y="388" type="curve" smooth="yes"/>
      <point x="506" y="280"/>
      <point x="434" y="207"/>
    </contour>
  </outline>
</glyph>
<glyph name="one_m" format="2">
  <advance width="623"/>
  <unicode hex="1041"/>
  <note>
one_m
</note>
  <outline>
    <contour>
      <point x="297" y="140" type="curve" smooth="yes"/>
      <point x="460" y="140"/>
      <point x="568" y="246"/>
      <point x="568" y="391" type="curve" smooth="yes"/>
      <point x="568" y="534"/>
      <point x="463" y="640"/>
      <point x="297" y="640" type="curve" smooth="yes"/>
      <point x="183" y="640"/>
      <point x="90" y="583"/>
      <point x="55" y="494" type="curve"/>
      <point x="125" y="461" type="line"/>
      <point x="158" y="536"/>
      <point x="221" y="574"/>
      <point x="298" y="574" type="curve" smooth="yes"/>
      <point x="407" y="574"/>
      <point x="477" y="501"/>
      <point x="477" y="392" type="curve" smooth="yes"/>
      <point x="477" y="279"/>
      <point x="409" y="207"/>
      <point x="298" y="207" type="curve" smooth="yes"/>
      <point x="221" y="207"/>
      <point x="158" y="244"/>
      <point x="125" y="319" type="curve"/>
      <point x="55" y="287" type="line"/>
      <point x="90" y="199"/>
      <point x="183" y="140"/>
    </contour>
  </outline>
</glyph>
<glyph name="two_m" format="2">
  <advance width="675"/>
  <unicode hex="1042"/>
  <note>
two_m
</note>
  <outline>
    <contour>
      <point x="314" y="-271" type="curve" smooth="yes"/>
      <point x="478" y="-271"/>
      <point x="584" y="-169"/>
      <point x="584" y="0" type="curve" smooth="yes"/>
      <point x="584" y="631" type="line"/>
      <point x="499" y="631" type="line"/>
      <point x="499" y="-2" type="line" smooth="yes"/>
      <point x="499" y="-136"/>
      <point x="428" y="-208"/>
      <point x="315" y="-208" type="curve" smooth="yes"/>
      <point x="207" y="-208"/>
      <point x="128" y="-133"/>
      <point x="128" y="-31" type="curve" smooth="yes"/>
      <point x="128" y="-27" type="line"/>
      <point x="43" y="-27" type="line"/>
      <point x="43" y="-29" type="line" smooth="yes"/>
      <point x="43" y="-169"/>
      <point x="153" y="-271"/>
    </contour>
  </outline>
</glyph>
<glyph name="three_m" format="2">
  <advance width="618"/>
  <unicode hex="1043"/>
  <note>
three_m
</note>
  <outline>
    <contour>
      <point x="380" y="-271" type="line"/>
      <point x="477" y="-271" type="line"/>
      <point x="308" y="11" type="line" smooth="yes"/>
      <point x="280" y="58"/>
      <point x="237" y="121"/>
      <point x="206" y="164" type="curve"/>
      <point x="192" y="163" type="line"/>
      <point x="224" y="148"/>
      <point x="257" y="140"/>
      <point x="292" y="140" type="curve" smooth="yes"/>
      <point x="456" y="140"/>
      <point x="563" y="245"/>
      <point x="563" y="391" type="curve" smooth="yes"/>
      <point x="563" y="533"/>
      <point x="457" y="640"/>
      <point x="292" y="640" type="curve" smooth="yes"/>
      <point x="179" y="640"/>
      <point x="86" y="584"/>
      <point x="50" y="494" type="curve"/>
      <point x="120" y="461" type="line"/>
      <point x="153" y="536"/>
      <point x="215" y="574"/>
      <point x="293" y="574" type="curve" smooth="yes"/>
      <point x="401" y="574"/>
      <point x="472" y="501"/>
      <point x="472" y="392" type="curve" smooth="yes"/>
      <point x="472" y="278"/>
      <point x="403" y="207"/>
      <point x="293" y="207" type="curve" smooth="yes"/>
      <point x="215" y="207"/>
      <point x="153" y="244"/>
      <point x="120" y="319" type="curve"/>
      <point x="50" y="287" type="line"/>
    </contour>
  </outline>
</glyph>
<glyph name="four_m" format="2">
  <advance width="618"/>
  <unicode hex="1044"/>
  <note>
four_m
</note>
  <outline>
    <contour>
      <point x="141" y="-271" type="line"/>
      <point x="238" y="-271" type="line"/>
      <point x="568" y="287" type="line"/>
      <point x="498" y="319" type="line"/>
      <point x="465" y="244"/>
      <point x="402" y="207"/>
      <point x="325" y="207" type="curve" smooth="yes"/>
      <point x="214" y="207"/>
      <point x="146" y="279"/>
      <point x="146" y="392" type="curve" smooth="yes"/>
      <point x="146" y="501"/>
      <point x="216" y="574"/>
      <point x="325" y="574" type="curve" smooth="yes"/>
      <point x="402" y="574"/>
      <point x="465" y="536"/>
      <point x="498" y="461" type="curve"/>
      <point x="568" y="494" type="line"/>
      <point x="533" y="581"/>
      <point x="440" y="640"/>
      <point x="326" y="640" type="curve" smooth="yes"/>
      <point x="162" y="640"/>
      <point x="55" y="536"/>
      <point x="55" y="391" type="curve" smooth="yes"/>
      <point x="55" y="249"/>
      <point x="161" y="140"/>
      <point x="326" y="140" type="curve" smooth="yes"/>
      <point x="357" y="140"/>
      <point x="387" y="146"/>
      <point x="415" y="157" type="curve"/>
      <point x="413" y="164" type="line"/>
      <point x="384" y="127"/>
      <point x="336" y="54"/>
      <point x="310" y="11" type="curve" smooth="yes"/>
    </contour>
  </outline>
</glyph>
<glyph name="five_m" format="2">
  <advance width="675"/>
  <unicode hex="1045"/>
  <note>
five_m
</note>
  <outline>
    <contour>
      <point x="314" y="-271" type="curve" smooth="yes"/>
      <point x="478" y="-271"/>
      <point x="584" y="-169"/>
      <point x="584" y="0" type="curve" smooth="yes"/>
      <point x="584" y="390" type="line" smooth="yes"/>
      <point x="584" y="536"/>
      <point x="487" y="640"/>
      <point x="324" y="640" type="curve" smooth="yes"/>
      <point x="170" y="640"/>
      <point x="55" y="546"/>
      <point x="55" y="403" type="curve" smooth="yes"/>
      <point x="55" y="316"/>
      <point x="116" y="257"/>
      <point x="208" y="257" type="curve" smooth="yes"/>
      <point x="293" y="257"/>
      <point x="358" y="314"/>
      <point x="358" y="386" type="curve" smooth="yes"/>
      <point x="358" y="458"/>
      <point x="295" y="508"/>
      <point x="221" y="508" type="curve" smooth="yes"/>
      <point x="197" y="508"/>
      <point x="171" y="505"/>
      <point x="159" y="496" type="curve"/>
      <point x="190" y="548"/>
      <point x="249" y="577"/>
      <point x="323" y="577" type="curve" smooth="yes"/>
      <point x="436" y="577"/>
      <point x="499" y="504"/>
      <point x="499" y="391" type="curve" smooth="yes"/>
      <point x="499" y="-2" type="line" smooth="yes"/>
      <point x="499" y="-136"/>
      <point x="428" y="-208"/>
      <point x="315" y="-208" type="curve" smooth="yes"/>
      <point x="204" y="-208"/>
      <point x="128" y="-133"/>
      <point x="128" y="-31" type="curve" smooth="yes"/>
      <point x="128" y="-27" type="line"/>
      <point x="43" y="-27" type="line"/>
      <point x="43" y="-29" type="line" smooth="yes"/>
      <point x="43" y="-168"/>
      <point x="149" y="-271"/>
    </contour>
    <contour>
      <point x="208" y="318" type="curve" smooth="yes"/>
      <point x="169" y="318"/>
      <point x="137" y="347"/>
      <point x="137" y="382" type="curve" smooth="yes"/>
      <point x="137" y="418"/>
      <point x="169" y="447"/>
      <point x="208" y="447" type="curve" smooth="yes"/>
      <point x="248" y="447"/>
      <point x="280" y="418"/>
      <point x="280" y="382" type="curve" smooth="yes"/>
      <point x="280" y="347"/>
      <point x="248" y="318"/>
    </contour>
  </outline>
</glyph>
<glyph name="six_m" format="2">
  <advance width="720"/>
  <unicode hex="1046"/>
  <note>
six_m
</note>
  <outline>
    <contour>
      <point x="377" y="140" type="curve" smooth="yes"/>
      <point x="561" y="140"/>
      <point x="668" y="243"/>
      <point x="668" y="379" type="curve" smooth="yes"/>
      <point x="668" y="435"/>
      <point x="630" y="477"/>
      <point x="562" y="477" type="curve" smooth="yes"/>
      <point x="499" y="477"/>
      <point x="459" y="446"/>
      <point x="409" y="446" type="curve" smooth="yes"/>
      <point x="372" y="446"/>
      <point x="342" y="474"/>
      <point x="342" y="516" type="curve" smooth="yes"/>
      <point x="342" y="550"/>
      <point x="366" y="581"/>
      <point x="409" y="581" type="curve" smooth="yes"/>
      <point x="426" y="581"/>
      <point x="449" y="575"/>
      <point x="459" y="561" type="curve"/>
      <point x="520" y="590" type="line"/>
      <point x="491" y="629"/>
      <point x="452" y="641"/>
      <point x="404" y="641" type="curve" smooth="yes"/>
      <point x="310" y="641"/>
      <point x="257" y="584"/>
      <point x="257" y="516" type="curve" smooth="yes"/>
      <point x="257" y="440"/>
      <point x="313" y="386"/>
      <point x="403" y="386" type="curve" smooth="yes"/>
      <point x="462" y="386"/>
      <point x="501" y="412"/>
      <point x="552" y="412" type="curve" smooth="yes"/>
      <point x="575" y="412"/>
      <point x="583" y="394"/>
      <point x="583" y="377" type="curve" smooth="yes"/>
      <point x="583" y="275"/>
      <point x="502" y="203"/>
      <point x="383" y="203" type="curve" smooth="yes"/>
      <point x="250" y="203"/>
      <point x="176" y="274"/>
      <point x="176" y="406" type="curve" smooth="yes"/>
      <point x="176" y="780" type="line" smooth="yes"/>
      <point x="176" y="924"/>
      <point x="255" y="989"/>
      <point x="380" y="989" type="curve" smooth="yes"/>
      <point x="506" y="989"/>
      <point x="583" y="912"/>
      <point x="583" y="812" type="curve" smooth="yes"/>
      <point x="583" y="808" type="line"/>
      <point x="668" y="808" type="line"/>
      <point x="668" y="811" type="line" smooth="yes"/>
      <point x="668" y="957"/>
      <point x="554" y="1052"/>
      <point x="377" y="1052" type="curve" smooth="yes"/>
      <point x="198" y="1052"/>
      <point x="91" y="954"/>
      <point x="91" y="780" type="curve" smooth="yes"/>
      <point x="91" y="403" type="line" smooth="yes"/>
      <point x="91" y="246"/>
      <point x="193" y="140"/>
    </contour>
  </outline>
</glyph>
<glyph name="seven_m" format="2">
  <advance width="646"/>
  <unicode hex="1047"/>
  <note>
seven_m
</note>
  <outline>
    <contour>
      <point x="357" y="-271" type="curve" smooth="yes"/>
      <point x="425" y="-271"/>
      <point x="468" y="-252"/>
      <point x="505" y="-196" type="curve"/>
      <point x="442" y="-155" type="line"/>
      <point x="425" y="-192"/>
      <point x="398" y="-211"/>
      <point x="362" y="-211" type="curve" smooth="yes"/>
      <point x="313" y="-211"/>
      <point x="284" y="-184"/>
      <point x="284" y="-128" type="curve" smooth="yes"/>
      <point x="284" y="-53"/>
      <point x="351" y="27"/>
      <point x="439" y="130" type="curve" smooth="yes"/>
      <point x="556" y="267"/>
      <point x="591" y="339"/>
      <point x="591" y="411" type="curve" smooth="yes"/>
      <point x="591" y="549"/>
      <point x="477" y="640"/>
      <point x="321" y="640" type="curve" smooth="yes"/>
      <point x="153" y="640"/>
      <point x="50" y="538"/>
      <point x="50" y="375" type="curve" smooth="yes"/>
      <point x="50" y="270"/>
      <point x="118" y="185"/>
      <point x="175" y="165" type="curve"/>
      <point x="217" y="213" type="line"/>
      <point x="178" y="235"/>
      <point x="135" y="293"/>
      <point x="135" y="376" type="curve" smooth="yes"/>
      <point x="135" y="504"/>
      <point x="214" y="577"/>
      <point x="322" y="577" type="curve" smooth="yes"/>
      <point x="432" y="577"/>
      <point x="506" y="506"/>
      <point x="506" y="415" type="curve" smooth="yes"/>
      <point x="506" y="317"/>
      <point x="453" y="261"/>
      <point x="367" y="160" type="curve" smooth="yes"/>
      <point x="233" y="2"/>
      <point x="198" y="-48"/>
      <point x="198" y="-130" type="curve" smooth="yes"/>
      <point x="198" y="-212"/>
      <point x="254" y="-271"/>
    </contour>
  </outline>
</glyph>
<glyph name="eight_m" format="2">
  <advance width="652"/>
  <unicode hex="1048"/>
  <note>
eight_m
</note>
  <outline>
    <contour>
      <point x="200" y="139" type="curve"/>
      <point x="286" y="217"/>
      <point x="331" y="298"/>
      <point x="331" y="380" type="curve" smooth="yes"/>
      <point x="331" y="466"/>
      <point x="293" y="525"/>
      <point x="239" y="568" type="curve"/>
      <point x="178" y="532" type="line"/>
      <point x="230" y="496"/>
      <point x="250" y="435"/>
      <point x="250" y="379" type="curve" smooth="yes"/>
      <point x="250" y="323"/>
      <point x="222" y="278"/>
      <point x="190" y="238" type="curve"/>
      <point x="157" y="275"/>
      <point x="136" y="322"/>
      <point x="136" y="379" type="curve" smooth="yes"/>
      <point x="136" y="493"/>
      <point x="209" y="574"/>
      <point x="326" y="574" type="curve" smooth="yes"/>
      <point x="432" y="574"/>
      <point x="506" y="501"/>
      <point x="506" y="379" type="curve" smooth="yes"/>
      <point x="506" y="299"/>
      <point x="474" y="240"/>
      <point x="417" y="198" type="curve"/>
      <point x="468" y="140" type="line"/>
      <point x="542" y="184"/>
      <point x="597" y="282"/>
      <point x="597" y="381" type="curve" smooth="yes"/>
      <point x="597" y="536"/>
      <point x="479" y="640"/>
      <point x="326" y="640" type="curve" smooth="yes"/>
      <point x="172" y="640"/>
      <point x="55" y="535"/>
      <point x="55" y="381" type="curve" smooth="yes"/>
      <point x="55" y="282"/>
      <point x="108" y="188"/>
    </contour>
  </outline>
</glyph>
<glyph name="nine_m" format="2">
  <advance width="720"/>
  <unicode hex="1049"/>
  <note>
nine_m
</note>
  <outline>
    <contour>
      <point x="377" y="-271" type="curve" smooth="yes"/>
      <point x="551" y="-271"/>
      <point x="668" y="-180"/>
      <point x="668" y="-30" type="curve" smooth="yes"/>
      <point x="668" y="-27" type="line"/>
      <point x="585" y="-27" type="line"/>
      <point x="585" y="-32" type="line" smooth="yes"/>
      <point x="585" y="-132"/>
      <point x="507" y="-207"/>
      <point x="380" y="-207" type="curve" smooth="yes"/>
      <point x="254" y="-207"/>
      <point x="174" y="-143"/>
      <point x="174" y="0" type="curve" smooth="yes"/>
      <point x="174" y="374" type="line" smooth="yes"/>
      <point x="174" y="504"/>
      <point x="248" y="577"/>
      <point x="383" y="577" type="curve" smooth="yes"/>
      <point x="501" y="577"/>
      <point x="585" y="506"/>
      <point x="585" y="404" type="curve" smooth="yes"/>
      <point x="585" y="387"/>
      <point x="576" y="369"/>
      <point x="552" y="369" type="curve" smooth="yes"/>
      <point x="503" y="369"/>
      <point x="464" y="395"/>
      <point x="403" y="395" type="curve" smooth="yes"/>
      <point x="313" y="395"/>
      <point x="257" y="340"/>
      <point x="257" y="264" type="curve" smooth="yes"/>
      <point x="257" y="198"/>
      <point x="308" y="139"/>
      <point x="404" y="139" type="curve" smooth="yes"/>
      <point x="452" y="139"/>
      <point x="491" y="152"/>
      <point x="520" y="190" type="curve"/>
      <point x="459" y="219" type="line"/>
      <point x="449" y="206"/>
      <point x="426" y="199"/>
      <point x="409" y="199" type="curve" smooth="yes"/>
      <point x="365" y="199"/>
      <point x="340" y="231"/>
      <point x="340" y="264" type="curve" smooth="yes"/>
      <point x="340" y="305"/>
      <point x="371" y="331"/>
      <point x="409" y="331" type="curve" smooth="yes"/>
      <point x="461" y="331"/>
      <point x="496" y="304"/>
      <point x="562" y="304" type="curve" smooth="yes"/>
      <point x="630" y="304"/>
      <point x="668" y="347"/>
      <point x="668" y="402" type="curve" smooth="yes"/>
      <point x="668" y="537"/>
      <point x="560" y="640"/>
      <point x="377" y="640" type="curve" smooth="yes"/>
      <point x="192" y="640"/>
      <point x="91" y="533"/>
      <point x="91" y="378" type="curve" smooth="yes"/>
      <point x="91" y="0" type="line" smooth="yes"/>
      <point x="91" y="-172"/>
      <point x="196" y="-271"/>
    </contour>
  </outline>
</glyph>
<glyph name="little_section" format="2">
  <advance width="270"/>
  <unicode hex="104A"/>
  <note>
little_section
</note>
  <outline>
    <contour>
      <point x="91" y="149" type="line"/>
      <point x="179" y="149" type="line"/>
      <point x="179" y="631" type="line"/>
      <point x="91" y="631" type="line"/>
    </contour>
  </outline>
</glyph>
<glyph name="locative" format="2">
  <advance width="666"/>
  <unicode hex="104C"/>
  <note>
locative
</note>
  <outline>
    <contour>
      <point x="252" y="-271" type="curve" smooth="yes"/>
      <point x="371" y="-271" type="line" smooth="yes"/>
      <point x="508" y="-271"/>
      <point x="576" y="-207"/>
      <point x="576" y="-79" type="curve" smooth="yes"/>
      <point x="576" y="149" type="line"/>
      <point x="510" y="100"/>
      <point x="421" y="68"/>
      <point x="335" y="68" type="curve" smooth="yes"/>
      <point x="279" y="68"/>
      <point x="227" y="81"/>
      <point x="180" y="105" type="curve"/>
      <point x="180" y="197" type="line"/>
      <point x="92" y="287" type="line"/>
      <point x="92" y="74" type="line"/>
      <point x="158" y="31"/>
      <point x="246" y="1"/>
      <point x="335" y="1" type="curve" smooth="yes"/>
      <point x="389" y="1"/>
      <point x="440" y="10"/>
      <point x="488" y="27" type="curve"/>
      <point x="488" y="-93" type="line" smooth="yes"/>
      <point x="488" y="-165"/>
      <point x="454" y="-206"/>
      <point x="376" y="-206" type="curve" smooth="yes"/>
      <point x="280" y="-206" type="line" smooth="yes"/>
      <point x="203" y="-206"/>
      <point x="177" y="-189"/>
      <point x="177" y="-153" type="curve" smooth="yes"/>
      <point x="177" y="-129"/>
      <point x="199" y="-111"/>
      <point x="230" y="-111" type="curve" smooth="yes"/>
      <point x="253" y="-111"/>
      <point x="275" y="-123"/>
      <point x="298" y="-145" type="curve"/>
      <point x="348" y="-99" type="line"/>
      <point x="308" y="-61"/>
      <point x="275" y="-45"/>
      <point x="219" y="-45" type="curve" smooth="yes"/>
      <point x="143" y="-45"/>
      <point x="92" y="-93"/>
      <point x="92" y="-156" type="curve" smooth="yes"/>
      <point x="92" y="-223"/>
      <point x="152" y="-271"/>
    </contour>
    <contour>
      <point x="334" y="140" type="curve" smooth="yes"/>
      <point x="499" y="140"/>
      <point x="605" y="249"/>
      <point x="605" y="391" type="curve" smooth="yes"/>
      <point x="605" y="537"/>
      <point x="499" y="640"/>
      <point x="334" y="640" type="curve" smooth="yes"/>
      <point x="221" y="640"/>
      <point x="128" y="584"/>
      <point x="92" y="494" type="curve"/>
      <point x="162" y="461" type="line"/>
      <point x="195" y="536"/>
      <point x="257" y="574"/>
      <point x="335" y="574" type="curve" smooth="yes"/>
      <point x="443" y="574"/>
      <point x="514" y="501"/>
      <point x="514" y="392" type="curve" smooth="yes"/>
      <point x="514" y="278"/>
      <point x="445" y="207"/>
      <point x="335" y="207" type="curve" smooth="yes"/>
      <point x="257" y="207"/>
      <point x="195" y="244"/>
      <point x="162" y="319" type="curve"/>
      <point x="92" y="287" type="line"/>
      <point x="166" y="184"/>
      <point x="216" y="140"/>
    </contour>
    <component base="asat" xOffset="734"/>
  </outline>
</glyph>
<glyph name="completed" format="2">
  <advance width="892"/>
  <unicode hex="104D"/>
  <note>
completed
</note>
  <outline>
    <contour>
      <point x="256" y="-271" type="curve" smooth="yes"/>
      <point x="597" y="-271" type="line" smooth="yes"/>
      <point x="733" y="-271"/>
      <point x="801" y="-207"/>
      <point x="801" y="-79" type="curve" smooth="yes"/>
      <point x="801" y="345" type="line" smooth="yes"/>
      <point x="801" y="536"/>
      <point x="741" y="658"/>
      <point x="563" y="772" type="curve" smooth="yes"/>
      <point x="515" y="802"/>
      <point x="492" y="840"/>
      <point x="492" y="883" type="curve" smooth="yes"/>
      <point x="492" y="945"/>
      <point x="539" y="992"/>
      <point x="609" y="992" type="curve" smooth="yes"/>
      <point x="664" y="992"/>
      <point x="706" y="965"/>
      <point x="729" y="912" type="curve"/>
      <point x="797" y="945" type="line"/>
      <point x="766" y="1013"/>
      <point x="700" y="1053"/>
      <point x="604" y="1053" type="curve" smooth="yes"/>
      <point x="491" y="1053"/>
      <point x="407" y="975"/>
      <point x="407" y="883" type="curve" smooth="yes"/>
      <point x="407" y="807"/>
      <point x="439" y="760"/>
      <point x="532" y="698" type="curve" smooth="yes"/>
      <point x="666" y="609"/>
      <point x="713" y="512"/>
      <point x="713" y="351" type="curve" smooth="yes"/>
      <point x="713" y="-93" type="line" smooth="yes"/>
      <point x="713" y="-165"/>
      <point x="679" y="-206"/>
      <point x="601" y="-206" type="curve" smooth="yes"/>
      <point x="254" y="-206" type="line" smooth="yes"/>
      <point x="189" y="-206"/>
      <point x="145" y="-181"/>
      <point x="145" y="-135" type="curve" smooth="yes"/>
      <point x="145" y="-90"/>
      <point x="180" y="-71"/>
      <point x="212" y="-71" type="curve" smooth="yes"/>
      <point x="251" y="-71"/>
      <point x="272" y="-86"/>
      <point x="296" y="-106" type="curve"/>
      <point x="351" y="-59" type="line"/>
      <point x="310" y="-25"/>
      <point x="271" y="-4"/>
      <point x="207" y="-4" type="curve" smooth="yes"/>
      <point x="121" y="-4"/>
      <point x="55" y="-57"/>
      <point x="55" y="-135" type="curve" smooth="yes"/>
      <point x="55" y="-225"/>
      <point x="128" y="-271"/>
    </contour>
    <contour>
      <point x="509" y="-91" type="line"/>
      <point x="597" y="-91" type="line"/>
      <point x="597" y="390" type="line" smooth="yes"/>
      <point x="597" y="533"/>
      <point x="493" y="640"/>
      <point x="326" y="640" type="curve" smooth="yes"/>
      <point x="163" y="640"/>
      <point x="55" y="535"/>
      <point x="55" y="390" type="curve" smooth="yes"/>
      <point x="55" y="246"/>
      <point x="161" y="140"/>
      <point x="323" y="140" type="curve" smooth="yes"/>
      <point x="363" y="140"/>
      <point x="401" y="148"/>
      <point x="432" y="157" type="curve"/>
      <point x="432" y="339"/>
      <point x="320" y="444"/>
      <point x="136" y="452" type="curve"/>
      <point x="128" y="388" type="line"/>
      <point x="256" y="385"/>
      <point x="350" y="312"/>
      <point x="350" y="192" type="curve"/>
      <point x="379" y="210" type="line"/>
      <point x="363" y="208"/>
      <point x="343" y="207"/>
      <point x="326" y="207" type="curve" smooth="yes"/>
      <point x="212" y="207"/>
      <point x="146" y="281"/>
      <point x="146" y="388" type="curve" smooth="yes"/>
      <point x="146" y="502"/>
      <point x="217" y="574"/>
      <point x="327" y="574" type="curve" smooth="yes"/>
      <point x="438" y="574"/>
      <point x="509" y="497"/>
      <point x="509" y="388" type="curve" smooth="yes"/>
    </contour>
  </outline>
</glyph>
<glyph name="aforementioned" format="2">
  <advance width="659"/>
  <unicode hex="104E"/>
  <note>
aforementioned
</note>
  <outline>
    <contour>
      <point x="326" y="140" type="curve" smooth="yes"/>
      <point x="442" y="140"/>
      <point x="529" y="197"/>
      <point x="568" y="287" type="curve"/>
      <point x="498" y="319" type="line"/>
      <point x="465" y="244"/>
      <point x="402" y="207"/>
      <point x="325" y="207" type="curve" smooth="yes"/>
      <point x="214" y="207"/>
      <point x="146" y="279"/>
      <point x="146" y="392" type="curve" smooth="yes"/>
      <point x="146" y="501"/>
      <point x="216" y="574"/>
      <point x="325" y="574" type="curve" smooth="yes"/>
      <point x="402" y="574"/>
      <point x="465" y="536"/>
      <point x="498" y="461" type="curve"/>
      <point x="568" y="494" type="line"/>
      <point x="533" y="581"/>
      <point x="440" y="640"/>
      <point x="326" y="640" type="curve" smooth="yes"/>
      <point x="162" y="640"/>
      <point x="55" y="536"/>
      <point x="55" y="391" type="curve" smooth="yes"/>
      <point x="55" y="249"/>
      <point x="161" y="140"/>
    </contour>
    <contour>
      <point x="480" y="-271" type="line"/>
      <point x="568" y="-271" type="line"/>
      <point x="568" y="287" type="line"/>
      <point x="480" y="197" type="line"/>
    </contour>
  </outline>
</glyph>
<glyph name="genitive" format="2">
  <advance width="1137"/>
  <unicode hex="104F"/>
  <note>
genitive
</note>
  <outline>
    <contour>
      <point x="958" y="149" type="line"/>
      <point x="1046" y="149" type="line"/>
      <point x="1046" y="422" type="line" smooth="yes"/>
      <point x="1046" y="589"/>
      <point x="1008" y="704"/>
      <point x="848" y="775" type="curve" smooth="yes"/>
      <point x="767" y="811"/>
      <point x="737" y="842"/>
      <point x="737" y="898" type="curve" smooth="yes"/>
      <point x="737" y="946"/>
      <point x="786" y="992"/>
      <point x="851" y="992" type="curve" smooth="yes"/>
      <point x="910" y="992"/>
      <point x="951" y="965"/>
      <point x="974" y="912" type="curve"/>
      <point x="1039" y="943" type="line"/>
      <point x="1008" y="1011"/>
      <point x="943" y="1052"/>
      <point x="843" y="1052" type="curve" smooth="yes"/>
      <point x="737" y="1052"/>
      <point x="652" y="983"/>
      <point x="652" y="896" type="curve" smooth="yes"/>
      <point x="652" y="813"/>
      <point x="700" y="759"/>
      <point x="806" y="713" type="curve" smooth="yes"/>
      <point x="912" y="667"/>
      <point x="958" y="600"/>
      <point x="958" y="445" type="curve" smooth="yes"/>
    </contour>
    <contour>
      <point x="754" y="149" type="line"/>
      <point x="842" y="149" type="line"/>
      <point x="842" y="475" type="line" smooth="yes"/>
      <point x="842" y="573"/>
      <point x="777" y="640"/>
      <point x="666" y="640" type="curve" smooth="yes"/>
      <point x="594" y="640"/>
      <point x="542" y="607"/>
      <point x="517" y="553" type="curve"/>
      <point x="576" y="493" type="line"/>
      <point x="583" y="547"/>
      <point x="621" y="574"/>
      <point x="664" y="574" type="curve" smooth="yes"/>
      <point x="724" y="574"/>
      <point x="754" y="535"/>
      <point x="754" y="476" type="curve" smooth="yes"/>
    </contour>
    <component base="e_m"/>
  </outline>
</glyph>
<glyph name="sha_skt" format="2">
  <advance width="668"/>
  <unicode hex="1050"/>
  <note>
sha_skt
</note>
  <outline>
    <contour>
      <point x="336" y="323" type="curve" smooth="yes"/>
      <point x="372" y="323"/>
      <point x="399" y="342"/>
      <point x="399" y="384" type="curve" smooth="yes"/>
      <point x="399" y="427"/>
      <point x="373" y="444"/>
      <point x="336" y="444" type="curve" smooth="yes"/>
      <point x="301" y="444"/>
      <point x="275" y="427"/>
      <point x="275" y="384" type="curve" smooth="yes"/>
      <point x="275" y="341"/>
      <point x="302" y="323"/>
    </contour>
    <component base="ga"/>
  </outline>
</glyph>
<glyph name="ssa_skt" format="2">
  <advance width="676"/>
  <unicode hex="1051"/>
  <note>
ssa_skt
</note>
  <outline>
    <contour>
      <point x="338" y="140" type="curve" smooth="yes"/>
      <point x="500" y="140"/>
      <point x="621" y="246"/>
      <point x="621" y="399" type="curve" smooth="yes"/>
      <point x="621" y="496"/>
      <point x="567" y="591"/>
      <point x="483" y="640" type="curve"/>
      <point x="433" y="583" type="line"/>
      <point x="495" y="541"/>
      <point x="529" y="482"/>
      <point x="529" y="401" type="curve" smooth="yes"/>
      <point x="529" y="282"/>
      <point x="453" y="207"/>
      <point x="338" y="207" type="curve" smooth="yes"/>
      <point x="223" y="207"/>
      <point x="146" y="281"/>
      <point x="146" y="401" type="curve" smooth="yes"/>
      <point x="146" y="482"/>
      <point x="178" y="541"/>
      <point x="235" y="583" type="curve"/>
      <point x="184" y="640" type="line"/>
      <point x="105" y="590"/>
      <point x="55" y="498"/>
      <point x="55" y="399" type="curve" smooth="yes"/>
      <point x="55" y="247"/>
      <point x="174" y="140"/>
    </contour>
    <contour>
      <point x="336" y="336" type="curve" smooth="yes"/>
      <point x="372" y="336"/>
      <point x="399" y="355"/>
      <point x="399" y="397" type="curve" smooth="yes"/>
      <point x="399" y="441"/>
      <point x="373" y="458"/>
      <point x="336" y="458" type="curve" smooth="yes"/>
      <point x="301" y="458"/>
      <point x="275" y="441"/>
      <point x="275" y="397" type="curve" smooth="yes"/>
      <point x="275" y="354"/>
      <point x="302" y="336"/>
    </contour>
  </outline>
</glyph>
<glyph name="vocR_skt" format="2">
  <advance width="661"/>
  <unicode hex="1052"/>
  <note>
vocR_skt
</note>
  <outline>
    <contour>
      <point x="336" y="140" type="curve" smooth="yes"/>
      <point x="497" y="140"/>
      <point x="603" y="216"/>
      <point x="603" y="329" type="curve" smooth="yes"/>
      <point x="603" y="398"/>
      <point x="581" y="428"/>
      <point x="502" y="488" type="curve" smooth="yes"/>
      <point x="476" y="508"/>
      <point x="460" y="522"/>
      <point x="460" y="542" type="curve" smooth="yes"/>
      <point x="460" y="559"/>
      <point x="476" y="574"/>
      <point x="500" y="574" type="curve" smooth="yes"/>
      <point x="521" y="574"/>
      <point x="540" y="565"/>
      <point x="563" y="541" type="curve"/>
      <point x="613" y="586" type="line"/>
      <point x="572" y="625"/>
      <point x="545" y="640"/>
      <point x="493" y="640" type="curve" smooth="yes"/>
      <point x="418" y="640"/>
      <point x="375" y="595"/>
      <point x="375" y="547" type="curve" smooth="yes"/>
      <point x="375" y="505"/>
      <point x="392" y="478"/>
      <point x="466" y="420" type="curve" smooth="yes"/>
      <point x="495" y="397"/>
      <point x="513" y="366"/>
      <point x="513" y="329" type="curve" smooth="yes"/>
      <point x="513" y="259"/>
      <point x="451" y="207"/>
      <point x="340" y="207" type="curve" smooth="yes"/>
      <point x="224" y="207"/>
      <point x="146" y="276"/>
      <point x="146" y="401" type="curve" smooth="yes"/>
      <point x="146" y="482"/>
      <point x="178" y="541"/>
      <point x="235" y="583" type="curve"/>
      <point x="184" y="640" type="line"/>
      <point x="105" y="590"/>
      <point x="55" y="498"/>
      <point x="55" y="399" type="curve" smooth="yes"/>
      <point x="55" y="241"/>
      <point x="163" y="140"/>
    </contour>
  </outline>
</glyph>
<glyph name="vocRR_skt" format="2">
  <advance width="661"/>
  <unicode hex="1053"/>
  <note>
vocRR_skt
</note>
  <outline>
    <contour>
      <point x="330" y="140" type="curve" smooth="yes"/>
      <point x="494" y="140"/>
      <point x="603" y="218"/>
      <point x="603" y="329" type="curve" smooth="yes"/>
      <point x="603" y="403"/>
      <point x="562" y="447"/>
      <point x="493" y="496" type="curve" smooth="yes"/>
      <point x="471" y="512"/>
      <point x="460" y="527"/>
      <point x="460" y="542" type="curve" smooth="yes"/>
      <point x="460" y="559"/>
      <point x="476" y="574"/>
      <point x="500" y="574" type="curve" smooth="yes"/>
      <point x="521" y="574"/>
      <point x="540" y="565"/>
      <point x="563" y="541" type="curve"/>
      <point x="613" y="586" type="line"/>
      <point x="572" y="625"/>
      <point x="545" y="640"/>
      <point x="493" y="640" type="curve" smooth="yes"/>
      <point x="418" y="640"/>
      <point x="375" y="595"/>
      <point x="375" y="547" type="curve" smooth="yes"/>
      <point x="375" y="505"/>
      <point x="388" y="481"/>
      <point x="465" y="421" type="curve" smooth="yes"/>
      <point x="496" y="397"/>
      <point x="513" y="366"/>
      <point x="513" y="329" type="curve" smooth="yes"/>
      <point x="513" y="259"/>
      <point x="451" y="207"/>
      <point x="333" y="207" type="curve" smooth="yes"/>
      <point x="215" y="207"/>
      <point x="153" y="259"/>
      <point x="153" y="329" type="curve" smooth="yes"/>
      <point x="153" y="368"/>
      <point x="167" y="397"/>
      <point x="225" y="442" type="curve" smooth="yes"/>
      <point x="283" y="486"/>
      <point x="292" y="506"/>
      <point x="292" y="547" type="curve" smooth="yes"/>
      <point x="292" y="590"/>
      <point x="250" y="640"/>
      <point x="173" y="640" type="curve" smooth="yes"/>
      <point x="121" y="640"/>
      <point x="94" y="625"/>
      <point x="53" y="586" type="curve"/>
      <point x="103" y="541" type="line"/>
      <point x="127" y="565"/>
      <point x="146" y="574"/>
      <point x="167" y="574" type="curve" smooth="yes"/>
      <point x="191" y="574"/>
      <point x="206" y="559"/>
      <point x="206" y="542" type="curve" smooth="yes"/>
      <point x="206" y="522"/>
      <point x="191" y="508"/>
      <point x="164" y="487" type="curve" smooth="yes"/>
      <point x="88" y="430"/>
      <point x="63" y="399"/>
      <point x="63" y="329" type="curve" smooth="yes"/>
      <point x="63" y="215"/>
      <point x="165" y="140"/>
    </contour>
  </outline>
</glyph>
<glyph name="vocL_skt" format="2">
  <advance width="660"/>
  <unicode hex="1054"/>
  <note>
vocL_skt
</note>
  <outline>
    <contour>
      <point x="341" y="140" type="curve" smooth="yes"/>
      <point x="467" y="140"/>
      <point x="562" y="199"/>
      <point x="596" y="287" type="curve"/>
      <point x="526" y="319" type="line"/>
      <point x="493" y="244"/>
      <point x="428" y="207"/>
      <point x="339" y="207" type="curve" smooth="yes"/>
      <point x="227" y="207"/>
      <point x="146" y="279"/>
      <point x="146" y="388" type="curve" smooth="yes"/>
      <point x="146" y="479"/>
      <point x="201" y="574"/>
      <point x="338" y="574" type="curve" smooth="yes"/>
      <point x="416" y="574"/>
      <point x="473" y="547"/>
      <point x="509" y="493" type="curve"/>
      <point x="470" y="472"/>
      <point x="422" y="455"/>
      <point x="360" y="455" type="curve" smooth="yes"/>
      <point x="281" y="455"/>
      <point x="219" y="482"/>
      <point x="173" y="520" type="curve"/>
      <point x="144" y="459" type="line"/>
      <point x="198" y="417"/>
      <point x="274" y="389"/>
      <point x="357" y="389" type="curve" smooth="yes"/>
      <point x="447" y="389"/>
      <point x="512" y="413"/>
      <point x="604" y="468" type="curve"/>
      <point x="575" y="574"/>
      <point x="474" y="640"/>
      <point x="341" y="640" type="curve" smooth="yes"/>
      <point x="168" y="640"/>
      <point x="55" y="530"/>
      <point x="55" y="389" type="curve" smooth="yes"/>
      <point x="55" y="249"/>
      <point x="170" y="140"/>
    </contour>
  </outline>
</glyph>
<glyph name="vocLL_skt" format="2">
  <advance width="651"/>
  <unicode hex="1055"/>
  <note>
vocLL_skt
</note>
  <outline>
    <contour>
      <point x="242" y="140" type="curve" smooth="yes"/>
      <point x="297" y="140"/>
      <point x="336" y="163"/>
      <point x="362" y="208" type="curve"/>
      <point x="329" y="208" type="line"/>
      <point x="361" y="160"/>
      <point x="392" y="140"/>
      <point x="459" y="140" type="curve" smooth="yes"/>
      <point x="545" y="140"/>
      <point x="596" y="192"/>
      <point x="596" y="263" type="curve"/>
      <point x="507" y="277" type="line"/>
      <point x="504" y="233"/>
      <point x="483" y="207"/>
      <point x="447" y="207" type="curve" smooth="yes"/>
      <point x="412" y="207"/>
      <point x="390" y="229"/>
      <point x="390" y="268" type="curve" smooth="yes"/>
      <point x="390" y="277" type="line"/>
      <point x="305" y="277" type="line"/>
      <point x="305" y="268" type="line" smooth="yes"/>
      <point x="305" y="233"/>
      <point x="282" y="207"/>
      <point x="244" y="207" type="curve" smooth="yes"/>
      <point x="169" y="207"/>
      <point x="146" y="295"/>
      <point x="146" y="388" type="curve" smooth="yes"/>
      <point x="146" y="490"/>
      <point x="199" y="574"/>
      <point x="340" y="574" type="curve" smooth="yes"/>
      <point x="412" y="574"/>
      <point x="472" y="545"/>
      <point x="509" y="493" type="curve"/>
      <point x="467" y="472"/>
      <point x="417" y="455"/>
      <point x="362" y="455" type="curve" smooth="yes"/>
      <point x="275" y="455"/>
      <point x="215" y="483"/>
      <point x="170" y="522" type="curve"/>
      <point x="141" y="460" type="line"/>
      <point x="194" y="418"/>
      <point x="268" y="389"/>
      <point x="359" y="389" type="curve" smooth="yes"/>
      <point x="442" y="389"/>
      <point x="516" y="413"/>
      <point x="604" y="468" type="curve"/>
      <point x="574" y="574"/>
      <point x="470" y="640"/>
      <point x="343" y="640" type="curve" smooth="yes"/>
      <point x="165" y="640"/>
      <point x="55" y="530"/>
      <point x="55" y="389" type="curve" smooth="yes"/>
      <point x="55" y="235"/>
      <point x="126" y="140"/>
    </contour>
  </outline>
</glyph>
<glyph name="_vocR_skt" format="2">
  <advance width="369"/>
  <unicode hex="1056"/>
  <note>
_vocR_skt
</note>
  <outline>
    <contour>
      <point x="95" y="140" type="curve" smooth="yes"/>
      <point x="231" y="140"/>
      <point x="319" y="205"/>
      <point x="319" y="298" type="curve" smooth="yes"/>
      <point x="319" y="384"/>
      <point x="260" y="415"/>
      <point x="184" y="453" type="curve" smooth="yes"/>
      <point x="142" y="474"/>
      <point x="113" y="491"/>
      <point x="113" y="532" type="curve" smooth="yes"/>
      <point x="113" y="553"/>
      <point x="135" y="577"/>
      <point x="167" y="577" type="curve" smooth="yes"/>
      <point x="195" y="577"/>
      <point x="219" y="568"/>
      <point x="246" y="539" type="curve"/>
      <point x="299" y="585" type="line"/>
      <point x="258" y="629"/>
      <point x="221" y="640"/>
      <point x="163" y="640" type="curve" smooth="yes"/>
      <point x="81" y="640"/>
      <point x="31" y="586"/>
      <point x="31" y="529" type="curve" smooth="yes"/>
      <point x="31" y="466"/>
      <point x="75" y="424"/>
      <point x="136" y="396" type="curve" smooth="yes"/>
      <point x="198" y="367"/>
      <point x="237" y="339"/>
      <point x="237" y="302" type="curve" smooth="yes"/>
      <point x="237" y="246"/>
      <point x="184" y="207"/>
      <point x="97" y="207" type="curve" smooth="yes"/>
      <point x="21" y="207"/>
      <point x="-39" y="241"/>
      <point x="-76" y="303" type="curve"/>
      <point x="-140" y="265" type="line"/>
      <point x="-94" y="184"/>
      <point x="-11" y="140"/>
    </contour>
  </outline>
</glyph>
<glyph name="_vocRR_skt" format="2">
  <advance width="373"/>
  <unicode hex="1057"/>
  <note>
_vocRR_skt
</note>
  <outline>
    <contour>
      <point x="-29" y="140" type="curve" smooth="yes"/>
      <point x="25" y="140"/>
      <point x="64" y="160"/>
      <point x="93" y="208" type="curve"/>
      <point x="62" y="207" type="line"/>
      <point x="86" y="163"/>
      <point x="121" y="140"/>
      <point x="184" y="140" type="curve" smooth="yes"/>
      <point x="264" y="140"/>
      <point x="323" y="196"/>
      <point x="323" y="281" type="curve" smooth="yes"/>
      <point x="323" y="370"/>
      <point x="262" y="415"/>
      <point x="193" y="450" type="curve" smooth="yes"/>
      <point x="142" y="476"/>
      <point x="117" y="496"/>
      <point x="117" y="532" type="curve" smooth="yes"/>
      <point x="117" y="553"/>
      <point x="139" y="577"/>
      <point x="171" y="577" type="curve" smooth="yes"/>
      <point x="199" y="577"/>
      <point x="223" y="568"/>
      <point x="250" y="539" type="curve"/>
      <point x="303" y="585" type="line"/>
      <point x="262" y="629"/>
      <point x="225" y="640"/>
      <point x="167" y="640" type="curve" smooth="yes"/>
      <point x="85" y="640"/>
      <point x="35" y="587"/>
      <point x="35" y="529" type="curve" smooth="yes"/>
      <point x="35" y="468"/>
      <point x="76" y="426"/>
      <point x="153" y="388" type="curve" smooth="yes"/>
      <point x="203" y="364"/>
      <point x="241" y="328"/>
      <point x="241" y="277" type="curve" smooth="yes"/>
      <point x="241" y="239"/>
      <point x="216" y="207"/>
      <point x="173" y="207" type="curve" smooth="yes"/>
      <point x="138" y="207"/>
      <point x="117" y="233"/>
      <point x="117" y="268" type="curve" smooth="yes"/>
      <point x="117" y="277" type="line"/>
      <point x="32" y="277" type="line"/>
      <point x="32" y="268" type="line" smooth="yes"/>
      <point x="32" y="229"/>
      <point x="10" y="207"/>
      <point x="-25" y="207" type="curve" smooth="yes"/>
      <point x="-61" y="207"/>
      <point x="-82" y="233"/>
      <point x="-84" y="277" type="curve"/>
      <point x="-160" y="264" type="line"/>
      <point x="-160" y="192"/>
      <point x="-113" y="140"/>
    </contour>
  </outline>
</glyph>
<glyph name="_vocL_skt" format="2">
  <unicode hex="1058"/>
  <note>
_vocL_skt
</note>
  <outline>
    <contour>
      <point x="-326" y="-271" type="curve" smooth="yes"/>
      <point x="-227" y="-271"/>
      <point x="-169" y="-229"/>
      <point x="-142" y="-163" type="curve"/>
      <point x="-202" y="-136" type="line"/>
      <point x="-229" y="-189"/>
      <point x="-268" y="-212"/>
      <point x="-324" y="-212" type="curve" smooth="yes"/>
      <point x="-399" y="-212"/>
      <point x="-449" y="-160"/>
      <point x="-449" y="-86" type="curve" smooth="yes"/>
      <point x="-449" y="-11"/>
      <point x="-410" y="49"/>
      <point x="-325" y="49" type="curve" smooth="yes"/>
      <point x="-276" y="49"/>
      <point x="-240" y="29"/>
      <point x="-215" y="-11" type="curve"/>
      <point x="-244" y="-24"/>
      <point x="-277" y="-35"/>
      <point x="-314" y="-35" type="curve" smooth="yes"/>
      <point x="-368" y="-35"/>
      <point x="-407" y="-18"/>
      <point x="-439" y="9" type="curve"/>
      <point x="-459" y="-44" type="line"/>
      <point x="-417" y="-79"/>
      <point x="-366" y="-92"/>
      <point x="-312" y="-92" type="curve" smooth="yes"/>
      <point x="-266" y="-92"/>
      <point x="-229" y="-90"/>
      <point x="-135" y="-35" type="curve"/>
      <point x="-158" y="55"/>
      <point x="-227" y="105"/>
      <point x="-326" y="105" type="curve" smooth="yes"/>
      <point x="-450" y="105"/>
      <point x="-530" y="22"/>
      <point x="-530" y="-83" type="curve" smooth="yes"/>
      <point x="-530" y="-188"/>
      <point x="-454" y="-271"/>
    </contour>
  </outline>
</glyph>
<glyph name="_vocLL_skt" format="2">
  <unicode hex="1059"/>
  <note>
_vocLL_skt
</note>
  <outline>
    <contour>
      <point x="-395" y="-271" type="curve" smooth="yes"/>
      <point x="-353" y="-271"/>
      <point x="-323" y="-252"/>
      <point x="-307" y="-213" type="curve"/>
      <point x="-337" y="-212" type="line"/>
      <point x="-316" y="-255"/>
      <point x="-285" y="-271"/>
      <point x="-242" y="-271" type="curve" smooth="yes"/>
      <point x="-178" y="-271"/>
      <point x="-144" y="-234"/>
      <point x="-144" y="-169" type="curve"/>
      <point x="-206" y="-160" type="line"/>
      <point x="-208" y="-194"/>
      <point x="-221" y="-212"/>
      <point x="-245" y="-212" type="curve" smooth="yes"/>
      <point x="-269" y="-212"/>
      <point x="-284" y="-195"/>
      <point x="-284" y="-166" type="curve" smooth="yes"/>
      <point x="-284" y="-160" type="line"/>
      <point x="-355" y="-160" type="line"/>
      <point x="-355" y="-166" type="line" smooth="yes"/>
      <point x="-355" y="-194"/>
      <point x="-370" y="-212"/>
      <point x="-390" y="-212" type="curve" smooth="yes"/>
      <point x="-435" y="-212"/>
      <point x="-449" y="-152"/>
      <point x="-449" y="-92" type="curve" smooth="yes"/>
      <point x="-449" y="-8"/>
      <point x="-411" y="49"/>
      <point x="-325" y="49" type="curve" smooth="yes"/>
      <point x="-276" y="49"/>
      <point x="-240" y="29"/>
      <point x="-215" y="-11" type="curve"/>
      <point x="-244" y="-24"/>
      <point x="-277" y="-35"/>
      <point x="-314" y="-35" type="curve" smooth="yes"/>
      <point x="-368" y="-35"/>
      <point x="-407" y="-18"/>
      <point x="-439" y="9" type="curve"/>
      <point x="-459" y="-44" type="line"/>
      <point x="-417" y="-79"/>
      <point x="-366" y="-92"/>
      <point x="-312" y="-92" type="curve" smooth="yes"/>
      <point x="-266" y="-92"/>
      <point x="-229" y="-90"/>
      <point x="-135" y="-35" type="curve"/>
      <point x="-156" y="54"/>
      <point x="-231" y="105"/>
      <point x="-326" y="105" type="curve" smooth="yes"/>
      <point x="-451" y="105"/>
      <point x="-530" y="22"/>
      <point x="-530" y="-87" type="curve" smooth="yes"/>
      <point x="-530" y="-210"/>
      <point x="-473" y="-271"/>
    </contour>
  </outline>
</glyph>
<glyph name="nga_mon" format="2">
  <advance width="618"/>
  <unicode hex="105A"/>
  <note>
nga_mon
</note>
  <outline>
    <contour>
      <point x="326" y="140" type="curve" smooth="yes"/>
      <point x="440" y="140"/>
      <point x="533" y="199"/>
      <point x="568" y="287" type="curve"/>
      <point x="498" y="319" type="line"/>
      <point x="465" y="244"/>
      <point x="402" y="207"/>
      <point x="325" y="207" type="curve" smooth="yes"/>
      <point x="214" y="207"/>
      <point x="146" y="279"/>
      <point x="146" y="392" type="curve" smooth="yes"/>
      <point x="146" y="501"/>
      <point x="216" y="574"/>
      <point x="325" y="574" type="curve" smooth="yes"/>
      <point x="402" y="574"/>
      <point x="465" y="536"/>
      <point x="498" y="461" type="curve"/>
      <point x="568" y="494" type="line"/>
      <point x="533" y="581"/>
      <point x="440" y="640"/>
      <point x="326" y="640" type="curve" smooth="yes"/>
      <point x="162" y="640"/>
      <point x="55" y="536"/>
      <point x="55" y="391" type="curve" smooth="yes"/>
      <point x="55" y="249"/>
      <point x="161" y="140"/>
    </contour>
    <contour>
      <point x="397" y="-271" type="curve" smooth="yes"/>
      <point x="422" y="-271"/>
      <point x="453" y="-268"/>
      <point x="473" y="-256" type="curve"/>
      <point x="441" y="-205" type="line"/>
      <point x="431" y="-210"/>
      <point x="420" y="-213"/>
      <point x="408" y="-213" type="curve" smooth="yes"/>
      <point x="389" y="-213"/>
      <point x="368" y="-206"/>
      <point x="368" y="-184" type="curve" smooth="yes"/>
      <point x="368" y="-168"/>
      <point x="381" y="-149"/>
      <point x="406" y="-126" type="curve" smooth="yes"/>
      <point x="457" y="-83"/>
      <point x="477" y="-54"/>
      <point x="477" y="-14" type="curve" smooth="yes"/>
      <point x="477" y="54"/>
      <point x="415" y="106"/>
      <point x="327" y="106" type="curve" smooth="yes"/>
      <point x="235" y="106"/>
      <point x="175" y="54"/>
      <point x="173" y="-17" type="curve"/>
      <point x="253" y="-17" type="line"/>
      <point x="259" y="19"/>
      <point x="286" y="45"/>
      <point x="329" y="45" type="curve" smooth="yes"/>
      <point x="366" y="45"/>
      <point x="397" y="22"/>
      <point x="397" y="-11" type="curve" smooth="yes"/>
      <point x="397" y="-34"/>
      <point x="385" y="-55"/>
      <point x="360" y="-76" type="curve" smooth="yes"/>
      <point x="311" y="-117"/>
      <point x="288" y="-148"/>
      <point x="288" y="-187" type="curve" smooth="yes"/>
      <point x="288" y="-233"/>
      <point x="327" y="-271"/>
    </contour>
  </outline>
</glyph>
<glyph name="jha_mon" format="2">
  <advance width="869"/>
  <unicode hex="105B"/>
  <note>
jha_mon
</note>
  <outline>
    <contour>
      <point x="326" y="140" type="curve" smooth="yes"/>
      <point x="385" y="140"/>
      <point x="456" y="159"/>
      <point x="501" y="197" type="curve"/>
      <point x="448" y="251" type="line"/>
      <point x="414" y="221"/>
      <point x="373" y="207"/>
      <point x="325" y="207" type="curve" smooth="yes"/>
      <point x="214" y="207"/>
      <point x="146" y="279"/>
      <point x="146" y="392" type="curve" smooth="yes"/>
      <point x="146" y="502"/>
      <point x="221" y="574"/>
      <point x="335" y="574" type="curve" smooth="yes"/>
      <point x="358" y="574"/>
      <point x="383" y="571"/>
      <point x="406" y="567" type="curve"/>
      <point x="401" y="582" type="line"/>
      <point x="362" y="568"/>
      <point x="334" y="535"/>
      <point x="334" y="489" type="curve" smooth="yes"/>
      <point x="334" y="427"/>
      <point x="389" y="382"/>
      <point x="461" y="382" type="curve" smooth="yes"/>
      <point x="494" y="382"/>
      <point x="523" y="389"/>
      <point x="539" y="407" type="curve"/>
      <point x="521" y="399" type="line"/>
      <point x="521" y="333"/>
      <point x="564" y="298"/>
      <point x="645" y="298" type="curve" smooth="yes"/>
      <point x="704" y="298" type="line"/>
      <point x="704" y="363" type="line"/>
      <point x="663" y="363" type="line" smooth="yes"/>
      <point x="610" y="363"/>
      <point x="589" y="372"/>
      <point x="589" y="411" type="curve" smooth="yes"/>
      <point x="589" y="433"/>
      <point x="593" y="452"/>
      <point x="593" y="481" type="curve" smooth="yes"/>
      <point x="593" y="588"/>
      <point x="483" y="640"/>
      <point x="336" y="640" type="curve" smooth="yes"/>
      <point x="169" y="640"/>
      <point x="55" y="538"/>
      <point x="55" y="391" type="curve" smooth="yes"/>
      <point x="55" y="249"/>
      <point x="161" y="140"/>
    </contour>
    <contour>
      <point x="574" y="-271" type="curve" smooth="yes"/>
      <point x="709" y="-271"/>
      <point x="777" y="-194"/>
      <point x="777" y="-39" type="curve" smooth="yes"/>
      <point x="777" y="631" type="line"/>
      <point x="688" y="631" type="line"/>
      <point x="688" y="-46" type="line" smooth="yes"/>
      <point x="688" y="-148"/>
      <point x="652" y="-206"/>
      <point x="575" y="-206" type="curve" smooth="yes"/>
      <point x="497" y="-206"/>
      <point x="461" y="-148"/>
      <point x="461" y="-46" type="curve" smooth="yes"/>
      <point x="461" y="185" type="line"/>
      <point x="372" y="158" type="line"/>
      <point x="372" y="-38" type="line" smooth="yes"/>
      <point x="372" y="-193"/>
      <point x="439" y="-271"/>
    </contour>
    <contour>
      <point x="460" y="441" type="curve" smooth="yes"/>
      <point x="429" y="441"/>
      <point x="405" y="462"/>
      <point x="405" y="490" type="curve" smooth="yes"/>
      <point x="405" y="518"/>
      <point x="429" y="540"/>
      <point x="460" y="540" type="curve" smooth="yes"/>
      <point x="491" y="540"/>
      <point x="515" y="518"/>
      <point x="515" y="490" type="curve" smooth="yes"/>
      <point x="515" y="462"/>
      <point x="491" y="441"/>
    </contour>
  </outline>
</glyph>
<glyph name="bba_mon" format="2">
  <advance width="669"/>
  <unicode hex="105C"/>
  <note>
bba_mon
</note>
  <outline>
    <contour>
      <point x="334" y="140" type="curve" smooth="yes"/>
      <point x="502" y="140"/>
      <point x="619" y="244"/>
      <point x="619" y="390" type="curve" smooth="yes"/>
      <point x="619" y="535"/>
      <point x="507" y="640"/>
      <point x="337" y="640" type="curve" smooth="yes"/>
      <point x="165" y="640"/>
      <point x="55" y="532"/>
      <point x="55" y="390" type="curve" smooth="yes"/>
      <point x="55" y="247"/>
      <point x="164" y="140"/>
    </contour>
    <contour>
      <point x="337" y="207" type="curve" smooth="yes"/>
      <point x="226" y="207"/>
      <point x="146" y="278"/>
      <point x="146" y="388" type="curve" smooth="yes"/>
      <point x="146" y="501"/>
      <point x="221" y="574"/>
      <point x="338" y="574" type="curve" smooth="yes"/>
      <point x="454" y="574"/>
      <point x="528" y="500"/>
      <point x="528" y="388" type="curve" smooth="yes"/>
      <point x="528" y="280"/>
      <point x="452" y="207"/>
    </contour>
    <contour>
      <point x="336" y="299" type="curve" smooth="yes"/>
      <point x="400" y="299"/>
      <point x="447" y="334"/>
      <point x="447" y="396" type="curve" smooth="yes"/>
      <point x="447" y="455"/>
      <point x="400" y="490"/>
      <point x="336" y="490" type="curve" smooth="yes"/>
      <point x="271" y="490"/>
      <point x="227" y="455"/>
      <point x="227" y="395" type="curve" smooth="yes"/>
      <point x="227" y="334"/>
      <point x="271" y="299"/>
    </contour>
    <contour>
      <point x="337" y="347" type="curve" smooth="yes"/>
      <point x="302" y="347"/>
      <point x="284" y="365"/>
      <point x="284" y="395" type="curve" smooth="yes"/>
      <point x="284" y="424"/>
      <point x="307" y="442"/>
      <point x="337" y="442" type="curve" smooth="yes"/>
      <point x="368" y="442"/>
      <point x="390" y="424"/>
      <point x="390" y="395" type="curve" smooth="yes"/>
      <point x="390" y="365"/>
      <point x="368" y="347"/>
    </contour>
  </outline>
</glyph>
<glyph name="bbe_mon" format="2">
  <advance width="659"/>
  <unicode hex="105D"/>
  <note>
bbe_mon
</note>
  <outline>
    <contour>
      <point x="266" y="-271" type="curve" smooth="yes"/>
      <point x="363" y="-271" type="line" smooth="yes"/>
      <point x="498" y="-271"/>
      <point x="568" y="-208"/>
      <point x="568" y="-83" type="curve" smooth="yes"/>
      <point x="568" y="289" type="line"/>
      <point x="480" y="196" type="line"/>
      <point x="480" y="-96" type="line" smooth="yes"/>
      <point x="480" y="-166"/>
      <point x="444" y="-206"/>
      <point x="368" y="-206" type="curve" smooth="yes"/>
      <point x="264" y="-206" type="line" smooth="yes"/>
      <point x="200" y="-206"/>
      <point x="155" y="-181"/>
      <point x="155" y="-135" type="curve" smooth="yes"/>
      <point x="155" y="-90"/>
      <point x="190" y="-71"/>
      <point x="222" y="-71" type="curve" smooth="yes"/>
      <point x="261" y="-71"/>
      <point x="283" y="-86"/>
      <point x="306" y="-106" type="curve"/>
      <point x="361" y="-59" type="line"/>
      <point x="320" y="-25"/>
      <point x="282" y="-4"/>
      <point x="217" y="-4" type="curve" smooth="yes"/>
      <point x="130" y="-4"/>
      <point x="65" y="-57"/>
      <point x="65" y="-135" type="curve" smooth="yes"/>
      <point x="65" y="-225"/>
      <point x="137" y="-271"/>
    </contour>
    <contour>
      <point x="172" y="270" type="line"/>
      <point x="212" y="308"/>
      <point x="262" y="337"/>
      <point x="325" y="337" type="curve" smooth="yes"/>
      <point x="388" y="337"/>
      <point x="444" y="312"/>
      <point x="480" y="272" type="curve"/>
      <point x="515" y="328" type="line"/>
      <point x="465" y="376"/>
      <point x="397" y="401"/>
      <point x="325" y="401" type="curve" smooth="yes"/>
      <point x="243" y="401"/>
      <point x="172" y="363"/>
      <point x="134" y="323" type="curve"/>
    </contour>
    <contour>
      <point x="326" y="140" type="curve" smooth="yes"/>
      <point x="486" y="140"/>
      <point x="597" y="246"/>
      <point x="597" y="399" type="curve" smooth="yes"/>
      <point x="597" y="496"/>
      <point x="546" y="591"/>
      <point x="467" y="640" type="curve"/>
      <point x="417" y="583" type="line"/>
      <point x="474" y="541"/>
      <point x="505" y="482"/>
      <point x="505" y="401" type="curve" smooth="yes"/>
      <point x="505" y="282"/>
      <point x="439" y="207"/>
      <point x="326" y="207" type="curve" smooth="yes"/>
      <point x="223" y="207"/>
      <point x="146" y="281"/>
      <point x="146" y="401" type="curve" smooth="yes"/>
      <point x="146" y="482"/>
      <point x="178" y="541"/>
      <point x="235" y="583" type="curve"/>
      <point x="184" y="640" type="line"/>
      <point x="105" y="590"/>
      <point x="55" y="498"/>
      <point x="55" y="399" type="curve" smooth="yes"/>
      <point x="55" y="247"/>
      <point x="174" y="140"/>
    </contour>
  </outline>
</glyph>
<glyph name="_medialNa_mon" format="2">
  <unicode hex="105E"/>
  <note>
_medialNa_mon
</note>
  <outline>
    <contour>
      <point x="-416" y="-271" type="curve" smooth="yes"/>
      <point x="-320" y="-271"/>
      <point x="-264" y="-222"/>
      <point x="-264" y="-129" type="curve" smooth="yes"/>
      <point x="-264" y="113" type="line"/>
      <point x="-352" y="113" type="line"/>
      <point x="-352" y="-138" type="line" smooth="yes"/>
      <point x="-352" y="-186"/>
      <point x="-374" y="-210"/>
      <point x="-416" y="-210" type="curve" smooth="yes"/>
      <point x="-447" y="-210"/>
      <point x="-480" y="-191"/>
      <point x="-480" y="-151" type="curve" smooth="yes"/>
      <point x="-480" y="-96"/>
      <point x="-430" y="-65"/>
      <point x="-338" y="-65" type="curve" smooth="yes"/>
      <point x="-271" y="-65"/>
      <point x="-206" y="-86"/>
      <point x="-144" y="-122" type="curve"/>
      <point x="-102" y="-68" type="line"/>
      <point x="-161" y="-33"/>
      <point x="-254" y="-4"/>
      <point x="-339" y="-4" type="curve" smooth="yes"/>
      <point x="-482" y="-4"/>
      <point x="-567" y="-58"/>
      <point x="-567" y="-147" type="curve" smooth="yes"/>
      <point x="-567" y="-220"/>
      <point x="-506" y="-271"/>
    </contour>
  </outline>
</glyph>
<glyph name="_medialMa_mon" format="2">
  <unicode hex="105F"/>
  <note>
_medialMa_mon
</note>
  <outline>
    <contour>
      <point x="-329" y="-271" type="curve" smooth="yes"/>
      <point x="-239" y="-271"/>
      <point x="-152" y="-246"/>
      <point x="-82" y="-207" type="curve"/>
      <point x="-124" y="-153" type="line"/>
      <point x="-190" y="-193"/>
      <point x="-255" y="-210"/>
      <point x="-321" y="-210" type="curve" smooth="yes"/>
      <point x="-414" y="-210"/>
      <point x="-460" y="-187"/>
      <point x="-460" y="-139" type="curve" smooth="yes"/>
      <point x="-460" y="-91"/>
      <point x="-421" y="-67"/>
      <point x="-341" y="-67" type="curve" smooth="yes"/>
      <point x="-314" y="-67"/>
      <point x="-286" y="-69"/>
      <point x="-264" y="-72" type="curve"/>
      <point x="-264" y="113" type="line"/>
      <point x="-352" y="113" type="line"/>
      <point x="-352" y="-4" type="line"/>
      <point x="-472" y="-4"/>
      <point x="-547" y="-54"/>
      <point x="-547" y="-135" type="curve" smooth="yes"/>
      <point x="-547" y="-221"/>
      <point x="-469" y="-271"/>
    </contour>
  </outline>
</glyph>
<glyph name="_medialLa_mon" format="2">
  <unicode hex="1060"/>
  <note>
_medialLa_mon
</note>
  <outline>
    <contour>
      <point x="-528" y="-271" type="line"/>
      <point x="-128" y="-271" type="line"/>
      <point x="-128" y="-210" type="line"/>
      <point x="-404" y="-210" type="line"/>
      <point x="-208" y="105" type="line"/>
      <point x="-294" y="105" type="line"/>
    </contour>
  </outline>
</glyph>
<glyph name="sha_skn" format="2">
  <advance width="689"/>
  <unicode hex="1061"/>
  <note>
sha_skn
</note>
  <outline>
    <contour>
      <point x="509" y="-271" type="line"/>
      <point x="598" y="-271" type="line"/>
      <point x="598" y="391" type="line" smooth="yes"/>
      <point x="598" y="532"/>
      <point x="492" y="640"/>
      <point x="327" y="640" type="curve" smooth="yes"/>
      <point x="163" y="640"/>
      <point x="55" y="536"/>
      <point x="55" y="391" type="curve" smooth="yes"/>
      <point x="55" y="246"/>
      <point x="160" y="140"/>
      <point x="323" y="140" type="curve" smooth="yes"/>
      <point x="366" y="140"/>
      <point x="403" y="151"/>
      <point x="438" y="159" type="curve"/>
      <point x="438" y="329"/>
      <point x="328" y="444"/>
      <point x="136" y="452" type="curve"/>
      <point x="128" y="388" type="line"/>
      <point x="258" y="384"/>
      <point x="349" y="316"/>
      <point x="349" y="200" type="curve"/>
      <point x="378" y="216" type="line"/>
      <point x="357" y="207"/>
      <point x="347" y="207"/>
      <point x="327" y="207" type="curve" smooth="yes"/>
      <point x="212" y="207"/>
      <point x="147" y="279"/>
      <point x="147" y="388" type="curve" smooth="yes"/>
      <point x="147" y="508"/>
      <point x="220" y="575"/>
      <point x="328" y="575" type="curve" smooth="yes"/>
      <point x="436" y="575"/>
      <point x="509" y="498"/>
      <point x="509" y="388" type="curve" smooth="yes"/>
    </contour>
    <contour>
      <point x="225" y="-271" type="line"/>
      <point x="438" y="-271" type="line"/>
      <point x="438" y="162" type="line"/>
      <point x="350" y="155" type="line"/>
      <point x="350" y="-210" type="line"/>
      <point x="225" y="-210" type="line"/>
    </contour>
  </outline>
</glyph>
<glyph name="eu_skn" format="2">
  <advance width="336"/>
  <unicode hex="1062"/>
  <note>
eu_skn
</note>
  <outline>
    <contour>
      <point x="157" y="149" type="line"/>
      <point x="245" y="149" type="line"/>
      <point x="245" y="631" type="line"/>
      <point x="31" y="631" type="line"/>
      <point x="31" y="570" type="line"/>
      <point x="157" y="570" type="line"/>
    </contour>
  </outline>
</glyph>
<glyph name="hathi_skn" format="2">
  <advance width="661"/>
  <unicode hex="1063"/>
  <note>
hathi_skn
</note>
  <outline>
    <contour>
      <point x="92" y="-271" type="line"/>
      <point x="180" y="-271" type="line"/>
      <point x="180" y="197" type="line"/>
      <point x="92" y="287" type="line"/>
    </contour>
    <contour>
      <point x="334" y="140" type="curve" smooth="yes"/>
      <point x="499" y="140"/>
      <point x="605" y="249"/>
      <point x="605" y="391" type="curve" smooth="yes"/>
      <point x="605" y="537"/>
      <point x="499" y="640"/>
      <point x="334" y="640" type="curve" smooth="yes"/>
      <point x="221" y="640"/>
      <point x="128" y="584"/>
      <point x="92" y="494" type="curve"/>
      <point x="162" y="461" type="line"/>
      <point x="195" y="536"/>
      <point x="257" y="574"/>
      <point x="335" y="574" type="curve" smooth="yes"/>
      <point x="443" y="574"/>
      <point x="514" y="501"/>
      <point x="514" y="392" type="curve" smooth="yes"/>
      <point x="514" y="278"/>
      <point x="445" y="207"/>
      <point x="335" y="207" type="curve" smooth="yes"/>
      <point x="257" y="207"/>
      <point x="195" y="244"/>
      <point x="162" y="319" type="curve"/>
      <point x="92" y="287" type="line"/>
      <point x="166" y="184"/>
      <point x="216" y="140"/>
    </contour>
  </outline>
</glyph>
<glyph name="kepho_skn" format="2">
  <advance width="401"/>
  <unicode hex="1064"/>
  <note>
kepho_skn
</note>
  <outline>
    <contour>
      <point x="157" y="149" type="line"/>
      <point x="370" y="149" type="line"/>
      <point x="370" y="210" type="line"/>
      <point x="245" y="210" type="line"/>
      <point x="245" y="631" type="line"/>
      <point x="31" y="631" type="line"/>
      <point x="31" y="570" type="line"/>
      <point x="157" y="570" type="line"/>
    </contour>
  </outline>
</glyph>
<glyph name="tha_wpk" format="2">
  <advance width="667"/>
  <unicode hex="1065"/>
  <note>
tha_wpk
</note>
  <outline>
    <contour>
      <point x="331" y="140" type="curve" smooth="yes"/>
      <point x="504" y="140"/>
      <point x="617" y="239"/>
      <point x="617" y="391" type="curve" smooth="yes"/>
      <point x="617" y="536"/>
      <point x="502" y="640"/>
      <point x="331" y="640" type="curve" smooth="yes"/>
      <point x="211" y="640"/>
      <point x="112" y="581"/>
      <point x="77" y="494" type="curve"/>
      <point x="146" y="461" type="line"/>
      <point x="182" y="536"/>
      <point x="250" y="574"/>
      <point x="333" y="574" type="curve" smooth="yes"/>
      <point x="451" y="574"/>
      <point x="526" y="500"/>
      <point x="526" y="392" type="curve" smooth="yes"/>
      <point x="526" y="286"/>
      <point x="446" y="207"/>
      <point x="333" y="207" type="curve" smooth="yes"/>
      <point x="250" y="207"/>
      <point x="182" y="244"/>
      <point x="146" y="319" type="curve"/>
      <point x="77" y="287" type="line"/>
      <point x="112" y="199"/>
      <point x="211" y="140"/>
    </contour>
  </outline>
</glyph>
<glyph name="pwa_wpk" format="2">
  <advance width="653"/>
  <unicode hex="1066"/>
  <note>
pwa_wpk
</note>
  <outline>
    <contour>
      <point x="328" y="140" type="curve" smooth="yes"/>
      <point x="483" y="140"/>
      <point x="598" y="246"/>
      <point x="598" y="399" type="curve" smooth="yes"/>
      <point x="598" y="496"/>
      <point x="547" y="591"/>
      <point x="468" y="640" type="curve"/>
      <point x="418" y="583" type="line"/>
      <point x="475" y="541"/>
      <point x="506" y="482"/>
      <point x="506" y="401" type="curve" smooth="yes"/>
      <point x="506" y="282"/>
      <point x="435" y="207"/>
      <point x="328" y="207" type="curve" smooth="yes"/>
      <point x="219" y="207"/>
      <point x="146" y="281"/>
      <point x="146" y="401" type="curve" smooth="yes"/>
      <point x="146" y="482"/>
      <point x="178" y="541"/>
      <point x="235" y="583" type="curve"/>
      <point x="184" y="640" type="line"/>
      <point x="105" y="590"/>
      <point x="55" y="498"/>
      <point x="55" y="399" type="curve" smooth="yes"/>
      <point x="55" y="247"/>
      <point x="170" y="140"/>
    </contour>
    <contour>
      <point x="159" y="-271" type="line"/>
      <point x="373" y="-271" type="line"/>
      <point x="373" y="158" type="line"/>
      <point x="285" y="158" type="line"/>
      <point x="285" y="-210" type="line"/>
      <point x="159" y="-210" type="line"/>
    </contour>
  </outline>
</glyph>
<glyph name="eu_wpk" format="2">
  <advance width="434"/>
  <unicode hex="1067"/>
  <note>
eu_wpk
</note>
  <outline>
    <contour>
      <point x="194" y="139" type="curve" smooth="yes"/>
      <point x="285" y="139"/>
      <point x="343" y="186"/>
      <point x="343" y="267" type="curve"/>
      <point x="317" y="334"/>
      <point x="283" y="395"/>
      <point x="194" y="395" type="curve" smooth="yes"/>
      <point x="107" y="395"/>
      <point x="47" y="348"/>
      <point x="47" y="267" type="curve" smooth="yes"/>
      <point x="47" y="186"/>
      <point x="105" y="139"/>
    </contour>
    <contour>
      <point x="194" y="203" type="curve" smooth="yes"/>
      <point x="150" y="203"/>
      <point x="124" y="227"/>
      <point x="124" y="267" type="curve" smooth="yes"/>
      <point x="124" y="307"/>
      <point x="154" y="331"/>
      <point x="194" y="331" type="curve" smooth="yes"/>
      <point x="236" y="331"/>
      <point x="266" y="307"/>
      <point x="266" y="267" type="curve" smooth="yes"/>
      <point x="266" y="227"/>
      <point x="240" y="203"/>
    </contour>
    <contour>
      <point x="343" y="267" type="line"/>
      <point x="343" y="631" type="line"/>
      <point x="266" y="631" type="line"/>
      <point x="266" y="376" type="line"/>
    </contour>
  </outline>
</glyph>
<glyph name="ue_wpk" format="2">
  <advance width="336"/>
  <unicode hex="1068"/>
  <note>
ue_wpk
</note>
  <outline>
    <contour>
      <point x="31" y="149" type="line"/>
      <point x="245" y="149" type="line"/>
      <point x="245" y="631" type="line"/>
      <point x="157" y="631" type="line"/>
      <point x="157" y="210" type="line"/>
      <point x="31" y="210" type="line"/>
    </contour>
    <contour>
      <point x="190" y="735" type="curve" smooth="yes"/>
      <point x="255" y="735"/>
      <point x="302" y="770"/>
      <point x="302" y="831" type="curve" smooth="yes"/>
      <point x="302" y="891"/>
      <point x="254" y="926"/>
      <point x="190" y="926" type="curve" smooth="yes"/>
      <point x="125" y="926"/>
      <point x="81" y="891"/>
      <point x="81" y="831" type="curve" smooth="yes"/>
      <point x="81" y="770"/>
      <point x="125" y="735"/>
    </contour>
    <contour>
      <point x="191" y="783" type="curve" smooth="yes"/>
      <point x="158" y="783"/>
      <point x="138" y="802"/>
      <point x="138" y="831" type="curve" smooth="yes"/>
      <point x="138" y="861"/>
      <point x="160" y="878"/>
      <point x="191" y="878" type="curve" smooth="yes"/>
      <point x="222" y="878"/>
      <point x="245" y="861"/>
      <point x="245" y="831" type="curve" smooth="yes"/>
      <point x="245" y="802"/>
      <point x="223" y="783"/>
    </contour>
  </outline>
</glyph>
<glyph name="tone1_wpk" format="2">
  <advance width="423"/>
  <unicode hex="1069"/>
  <note>
tone1_wpk
</note>
  <outline>
    <contour>
      <point x="206" y="137" type="curve" smooth="yes"/>
      <point x="272" y="137"/>
      <point x="316" y="152"/>
      <point x="362" y="200" type="curve"/>
      <point x="310" y="246" type="line"/>
      <point x="275" y="211"/>
      <point x="245" y="201"/>
      <point x="209" y="201" type="curve" smooth="yes"/>
      <point x="169" y="201"/>
      <point x="135" y="226"/>
      <point x="135" y="262" type="curve" smooth="yes"/>
      <point x="135" y="300"/>
      <point x="168" y="325"/>
      <point x="226" y="355" type="curve" smooth="yes"/>
      <point x="333" y="410"/>
      <point x="370" y="440"/>
      <point x="370" y="517" type="curve" smooth="yes"/>
      <point x="370" y="584"/>
      <point x="311" y="640"/>
      <point x="217" y="640" type="curve" smooth="yes"/>
      <point x="156" y="640"/>
      <point x="107" y="628"/>
      <point x="61" y="578" type="curve"/>
      <point x="113" y="532" type="line"/>
      <point x="146" y="568"/>
      <point x="180" y="578"/>
      <point x="213" y="578" type="curve" smooth="yes"/>
      <point x="254" y="578"/>
      <point x="288" y="551"/>
      <point x="288" y="520" type="curve" smooth="yes"/>
      <point x="288" y="490"/>
      <point x="274" y="461"/>
      <point x="198" y="424" type="curve" smooth="yes"/>
      <point x="84" y="369"/>
      <point x="53" y="334"/>
      <point x="53" y="263" type="curve" smooth="yes"/>
      <point x="53" y="189"/>
      <point x="118" y="137"/>
    </contour>
  </outline>
</glyph>
<glyph name="tone2_wpk" format="2">
  <advance width="434"/>
  <unicode hex="106A"/>
  <note>
tone2_wpk
</note>
  <outline>
    <contour>
      <point x="193" y="139" type="curve" smooth="yes"/>
      <point x="287" y="139"/>
      <point x="343" y="188"/>
      <point x="343" y="280" type="curve" smooth="yes"/>
      <point x="343" y="631" type="line"/>
      <point x="266" y="631" type="line"/>
      <point x="266" y="284" type="line" smooth="yes"/>
      <point x="266" y="226"/>
      <point x="238" y="203"/>
      <point x="195" y="203" type="curve" smooth="yes"/>
      <point x="150" y="203"/>
      <point x="124" y="227"/>
      <point x="124" y="267" type="curve"/>
      <point x="47" y="267" type="line"/>
      <point x="47" y="186"/>
      <point x="105" y="139"/>
    </contour>
  </outline>
</glyph>
<glyph name="tone3_wpk" format="2">
  <advance width="434"/>
  <unicode hex="106B"/>
  <note>
tone3_wpk
</note>
  <outline>
    <contour>
      <point x="266" y="149" type="line"/>
      <point x="343" y="149" type="line"/>
      <point x="343" y="501" type="line" smooth="yes"/>
      <point x="343" y="592"/>
      <point x="287" y="640"/>
      <point x="193" y="640" type="curve" smooth="yes"/>
      <point x="105" y="640"/>
      <point x="47" y="595"/>
      <point x="47" y="513" type="curve"/>
      <point x="124" y="513" type="line"/>
      <point x="124" y="551"/>
      <point x="150" y="577"/>
      <point x="195" y="577" type="curve" smooth="yes"/>
      <point x="238" y="577"/>
      <point x="266" y="553"/>
      <point x="266" y="496" type="curve" smooth="yes"/>
    </contour>
  </outline>
</glyph>
<glyph name="tone4_wpk" format="2">
  <advance width="434"/>
  <unicode hex="106C"/>
  <note>
tone4_wpk
</note>
  <outline>
    <contour>
      <point x="241" y="139" type="curve" smooth="yes"/>
      <point x="329" y="139"/>
      <point x="387" y="186"/>
      <point x="387" y="267" type="curve"/>
      <point x="311" y="267" type="line"/>
      <point x="311" y="227"/>
      <point x="286" y="203"/>
      <point x="239" y="203" type="curve" smooth="yes"/>
      <point x="196" y="203"/>
      <point x="168" y="226"/>
      <point x="168" y="284" type="curve" smooth="yes"/>
      <point x="168" y="631" type="line"/>
      <point x="91" y="631" type="line"/>
      <point x="91" y="280" type="line" smooth="yes"/>
      <point x="91" y="189"/>
      <point x="146" y="139"/>
    </contour>
  </outline>
</glyph>
<glyph name="tone5_wpk" format="2">
  <advance width="423"/>
  <unicode hex="106D"/>
  <note>
tone5_wpk
</note>
  <outline>
    <contour>
      <point x="217" y="137" type="curve" smooth="yes"/>
      <point x="305" y="137"/>
      <point x="370" y="189"/>
      <point x="370" y="263" type="curve" smooth="yes"/>
      <point x="370" y="334"/>
      <point x="339" y="369"/>
      <point x="225" y="424" type="curve" smooth="yes"/>
      <point x="149" y="461"/>
      <point x="135" y="490"/>
      <point x="135" y="520" type="curve" smooth="yes"/>
      <point x="135" y="551"/>
      <point x="169" y="578"/>
      <point x="210" y="578" type="curve" smooth="yes"/>
      <point x="243" y="578"/>
      <point x="277" y="568"/>
      <point x="310" y="532" type="curve"/>
      <point x="362" y="578" type="line"/>
      <point x="316" y="628"/>
      <point x="267" y="640"/>
      <point x="206" y="640" type="curve" smooth="yes"/>
      <point x="112" y="640"/>
      <point x="53" y="584"/>
      <point x="53" y="517" type="curve" smooth="yes"/>
      <point x="53" y="440"/>
      <point x="90" y="410"/>
      <point x="197" y="355" type="curve" smooth="yes"/>
      <point x="255" y="325"/>
      <point x="288" y="300"/>
      <point x="288" y="262" type="curve" smooth="yes"/>
      <point x="288" y="226"/>
      <point x="254" y="201"/>
      <point x="214" y="201" type="curve" smooth="yes"/>
      <point x="178" y="201"/>
      <point x="148" y="211"/>
      <point x="113" y="246" type="curve"/>
      <point x="61" y="200" type="line"/>
      <point x="107" y="152"/>
      <point x="151" y="137"/>
    </contour>
  </outline>
</glyph>
<glyph name="nna_epk" format="2">
  <advance width="1253"/>
  <unicode hex="106E"/>
  <note>
nna_epk
</note>
  <outline>
    <contour>
      <point x="184" y="140" type="curve"/>
      <point x="235" y="198" type="line"/>
      <point x="178" y="240"/>
      <point x="146" y="299"/>
      <point x="146" y="379" type="curve" smooth="yes"/>
      <point x="146" y="503"/>
      <point x="210" y="575"/>
      <point x="301" y="575" type="curve" smooth="yes"/>
      <point x="391" y="575"/>
      <point x="454" y="505"/>
      <point x="454" y="379" type="curve" smooth="yes"/>
      <point x="454" y="299"/>
      <point x="423" y="240"/>
      <point x="365" y="198" type="curve"/>
      <point x="417" y="140" type="line"/>
      <point x="493" y="187"/>
      <point x="546" y="283"/>
      <point x="546" y="381" type="curve" smooth="yes"/>
      <point x="546" y="525"/>
      <point x="448" y="640"/>
      <point x="301" y="640" type="curve" smooth="yes"/>
      <point x="163" y="640"/>
      <point x="55" y="537"/>
      <point x="55" y="381" type="curve" smooth="yes"/>
      <point x="55" y="278"/>
      <point x="111" y="183"/>
    </contour>
    <contour>
      <point x="675" y="140" type="line"/>
      <point x="744" y="187"/>
      <point x="796" y="266"/>
      <point x="796" y="381" type="curve" smooth="yes"/>
      <point x="796" y="516"/>
      <point x="698" y="640"/>
      <point x="547" y="640" type="curve" smooth="yes"/>
      <point x="495" y="640"/>
      <point x="449" y="628"/>
      <point x="410" y="602" type="curve"/>
      <point x="467" y="555" type="line"/>
      <point x="492" y="567"/>
      <point x="518" y="574"/>
      <point x="545" y="574" type="curve" smooth="yes"/>
      <point x="639" y="574"/>
      <point x="704" y="505"/>
      <point x="704" y="379" type="curve" smooth="yes"/>
      <point x="704" y="299"/>
      <point x="676" y="240"/>
      <point x="623" y="198" type="curve"/>
    </contour>
    <contour>
      <point x="969" y="140" type="curve" smooth="yes"/>
      <point x="1104" y="140"/>
      <point x="1198" y="241"/>
      <point x="1198" y="391" type="curve" smooth="yes"/>
      <point x="1198" y="528"/>
      <point x="1108" y="640"/>
      <point x="954" y="640" type="curve" smooth="yes"/>
      <point x="862" y="640"/>
      <point x="788" y="599"/>
      <point x="741" y="521" type="curve"/>
      <point x="778" y="439" type="line"/>
      <point x="823" y="523"/>
      <point x="873" y="574"/>
      <point x="952" y="574" type="curve" smooth="yes"/>
      <point x="1047" y="574"/>
      <point x="1107" y="499"/>
      <point x="1107" y="388" type="curve" smooth="yes"/>
      <point x="1107" y="276"/>
      <point x="1046" y="207"/>
      <point x="954" y="207" type="curve" smooth="yes"/>
      <point x="924" y="207"/>
      <point x="898" y="212"/>
      <point x="876" y="223" type="curve"/>
      <point x="844" y="163" type="line"/>
      <point x="878" y="146"/>
      <point x="915" y="140"/>
    </contour>
  </outline>
</glyph>
